<svg width="409" height="304" viewBox="0 0 409 304" fill="none" xmlns="http://www.w3.org/2000/svg">
<g filter="url(#filter0_d_435_81)">
<circle cx="216.818" cy="151.819" r="139.156" stroke="#6334FA" stroke-opacity="0.09" stroke-width="2" shape-rendering="crispEdges"/>
</g>
<g filter="url(#filter1_d_435_81)">
<circle cx="216.819" cy="151.819" r="165.336" stroke="#6334FA" stroke-opacity="0.1" shape-rendering="crispEdges"/>
</g>
<g filter="url(#filter2_d_435_81)">
<circle cx="216.818" cy="151.818" r="191.568" stroke="#6334FA" stroke-opacity="0.1" stroke-width="0.5" shape-rendering="crispEdges"/>
</g>
<g filter="url(#filter3_d_435_81)">
<circle cx="216.275" cy="151.262" r="120.576" fill="white"/>
</g>
<path d="M165.764 209.206V191.03H171.675C172.709 191.03 173.744 191.197 174.723 191.585C175.591 191.954 176.367 192.527 176.976 193.247C177.641 194.06 178.121 195.002 178.417 196.018C178.768 197.274 178.934 198.567 178.916 199.86C178.934 201.245 178.768 202.612 178.417 203.942C178.14 204.995 177.641 205.992 176.976 206.86C176.385 207.617 175.609 208.227 174.723 208.615C173.762 209.021 172.728 209.224 171.675 209.206H165.764ZM169.163 194.06V206.195H171.361C171.952 206.195 172.543 206.084 173.079 205.826C173.596 205.586 174.039 205.216 174.372 204.773C174.76 204.237 175.037 203.646 175.185 203C175.388 202.187 175.48 201.356 175.462 200.506V199.176C175.462 198.419 175.369 197.662 175.185 196.923C175.018 196.332 174.741 195.796 174.372 195.316C174.021 194.891 173.578 194.577 173.079 194.355C172.543 194.134 171.971 194.023 171.379 194.041H169.144L169.163 194.06Z" fill="#6334FA"/>
<path d="M184.457 192.933H181.299V190.051H184.457V192.933ZM184.457 209.187H181.299V195.279H184.457V209.187Z" fill="#6334FA"/>
<path d="M198.753 192.933C198.79 193.764 198.587 194.577 198.162 195.297C197.756 195.87 197.183 196.295 196.5 196.479C196.869 196.886 197.146 197.366 197.331 197.883C197.534 198.456 197.627 199.065 197.608 199.693C197.608 200.358 197.497 201.023 197.276 201.633C197.054 202.205 196.722 202.704 196.297 203.129C195.835 203.554 195.281 203.886 194.671 204.089C193.951 204.329 193.175 204.44 192.418 204.422H191.125C190.866 204.422 190.626 204.496 190.441 204.662C190.275 204.81 190.183 205.031 190.183 205.271C190.183 205.493 190.257 205.696 190.404 205.863C190.552 206.029 190.774 206.103 190.996 206.103H195.816C196.241 206.103 196.666 206.177 197.054 206.343C197.442 206.509 197.774 206.768 198.051 207.1C198.347 207.433 198.587 207.82 198.735 208.245C198.92 208.726 198.993 209.243 198.993 209.741C198.993 210.351 198.883 210.942 198.643 211.496C198.421 212.013 198.088 212.475 197.682 212.863C197.276 213.251 196.777 213.528 196.26 213.731C195.706 213.934 195.096 214.045 194.505 214.045H189.389C188.576 214.045 187.8 213.731 187.227 213.159C186.95 212.863 186.747 212.512 186.599 212.143C186.433 211.736 186.359 211.293 186.359 210.85C186.341 210.24 186.507 209.631 186.858 209.132C187.172 208.67 187.597 208.301 188.096 208.024C187.763 207.82 187.468 207.525 187.283 207.174C187.08 206.786 186.969 206.361 186.987 205.936C186.987 205.659 187.043 205.364 187.154 205.105C187.264 204.847 187.412 204.625 187.597 204.422C187.782 204.2 188.003 204.015 188.243 203.886C188.483 203.738 188.724 203.609 189.001 203.517C188.465 203.11 188.04 202.593 187.763 201.984C187.468 201.263 187.32 200.506 187.357 199.73C187.357 199.065 187.468 198.4 187.689 197.772C187.892 197.2 188.243 196.682 188.668 196.276C189.13 195.851 189.684 195.519 190.275 195.316C190.996 195.075 191.734 194.965 192.492 194.965C192.917 194.965 193.323 195.002 193.729 195.057C194.099 195.112 194.468 195.223 194.819 195.353C195.078 195.186 195.299 194.965 195.484 194.724C195.65 194.521 195.78 194.281 195.89 194.041C195.983 193.838 196.057 193.635 196.112 193.413C196.149 193.265 196.167 193.099 196.167 192.933H198.772H198.753ZM190.792 209.058C190.626 209.058 190.441 209.095 190.294 209.169C190.146 209.243 190.017 209.335 189.887 209.446C189.776 209.557 189.684 209.705 189.61 209.852C189.536 210 189.518 210.166 189.518 210.333C189.481 211.016 189.98 211.589 190.663 211.626C190.7 211.626 190.737 211.626 190.792 211.626H194.357C194.727 211.626 195.096 211.515 195.392 211.275C195.669 211.034 195.816 210.683 195.798 210.333C195.798 209.982 195.669 209.649 195.429 209.409C195.17 209.187 194.838 209.058 194.505 209.077H190.792V209.058ZM192.455 197.329C191.882 197.292 191.328 197.514 190.959 197.957C190.608 198.474 190.46 199.084 190.497 199.693C190.46 200.321 190.645 200.931 190.996 201.429C191.753 202.261 193.046 202.316 193.877 201.54C193.914 201.503 193.951 201.466 193.988 201.429C194.339 200.912 194.523 200.303 194.487 199.693C194.523 199.065 194.357 198.437 193.988 197.938C193.6 197.495 193.027 197.274 192.455 197.329Z" fill="#6334FA"/>
<path d="M203.759 192.933H200.6V190.051H203.759V192.933ZM203.759 209.187H200.6V195.279H203.759V209.187Z" fill="#6334FA"/>
<path d="M206.789 191.049H210.188V206.066H217.872V209.243H206.789V191.049Z" fill="#6334FA"/>
<path d="M225.112 194.965C226.7 194.854 228.252 195.5 229.286 196.719C230.21 197.902 230.672 199.73 230.672 202.242C230.672 204.754 230.21 206.583 229.286 207.765C227.07 210.074 223.394 210.129 221.104 207.913C221.048 207.857 221.011 207.82 220.956 207.765C220.032 206.583 219.552 204.736 219.552 202.242C219.552 199.749 220.014 197.902 220.956 196.719C221.972 195.5 223.523 194.835 225.112 194.965ZM225.112 197.643C224.373 197.606 223.69 198.012 223.376 198.696C222.988 199.656 222.803 200.709 222.858 201.743V202.759C222.803 203.794 222.969 204.847 223.376 205.807C223.874 206.768 225.056 207.137 226.017 206.638C226.368 206.454 226.663 206.158 226.848 205.807C227.236 204.847 227.421 203.794 227.365 202.759V201.743C227.421 200.709 227.254 199.656 226.848 198.696C226.553 198.012 225.851 197.588 225.112 197.643Z" fill="#6334FA"/>
<path d="M237.968 194.965C238.651 194.965 239.335 195.057 239.981 195.279C240.572 195.482 241.09 195.833 241.514 196.276C241.958 196.775 242.29 197.366 242.493 197.994C242.733 198.807 242.863 199.656 242.844 200.506H239.593C239.649 199.767 239.501 199.01 239.187 198.326C238.947 197.883 238.485 197.606 237.968 197.624C237.303 197.624 236.73 198.031 236.546 198.659C236.213 199.638 236.084 200.672 236.121 201.707V202.722C236.084 203.757 236.232 204.791 236.564 205.77C236.786 206.417 237.395 206.841 238.06 206.823C238.577 206.841 239.058 206.546 239.279 206.066C239.575 205.382 239.704 204.643 239.649 203.905H242.844C242.844 204.754 242.752 205.604 242.512 206.417C242.327 207.063 241.995 207.654 241.551 208.153C241.145 208.596 240.628 208.947 240.055 209.15C239.427 209.372 238.762 209.483 238.097 209.464C237.284 209.483 236.49 209.335 235.733 209.04C235.068 208.744 234.495 208.282 234.089 207.71C233.627 207.026 233.295 206.269 233.128 205.456C232.907 204.385 232.796 203.295 232.814 202.205C232.814 199.712 233.239 197.865 234.089 196.682C234.994 195.482 236.453 194.817 237.949 194.928L237.968 194.965Z" fill="#6334FA"/>
<path d="M248.404 200.82L252.301 195.279H255.7L251.563 200.949L255.903 209.206H252.394L249.568 203.443L248.404 204.865V209.206H245.245V190.07H248.404V200.838V200.82Z" fill="#6334FA"/>
<path d="M262.054 194.965C263.531 194.872 264.935 195.537 265.803 196.719C266.653 197.902 267.059 199.73 267.059 202.242V203.037H259.985C259.985 203.591 260.04 204.145 260.114 204.699C260.17 205.124 260.299 205.53 260.484 205.918C260.632 206.232 260.853 206.491 261.13 206.675C261.426 206.86 261.758 206.952 262.109 206.934C262.626 206.934 263.125 206.675 263.402 206.232C263.753 205.641 263.919 204.958 263.882 204.274H267.022C267.022 205.068 266.912 205.863 266.653 206.601C266.431 207.211 266.08 207.784 265.619 208.245C265.175 208.67 264.64 209.003 264.049 209.206C263.421 209.427 262.756 209.52 262.091 209.52C260.521 209.631 259.006 208.966 258.027 207.747C257.104 206.564 256.623 204.717 256.623 202.224C256.623 199.73 257.085 197.883 258.009 196.701C258.969 195.5 260.465 194.835 261.998 194.946L262.054 194.965ZM262.054 197.569C261.426 197.514 260.835 197.846 260.558 198.4C260.207 199.139 260.022 199.933 260.022 200.746H263.716C263.753 199.933 263.624 199.139 263.31 198.4C263.107 197.902 262.608 197.569 262.054 197.569Z" fill="#6334FA"/>
<path d="M275.02 194.965C275.205 194.965 275.39 194.965 275.556 195.002L275.981 195.076C276.092 195.094 276.221 195.131 276.332 195.168V198.234H275.205C274.873 198.234 274.54 198.29 274.208 198.382C273.894 198.493 273.617 198.659 273.376 198.899C273.118 199.176 272.915 199.509 272.804 199.878C272.638 200.377 272.582 200.894 272.582 201.43V209.187H269.424V195.26H272.065L272.434 197.292H272.582C272.675 196.997 272.785 196.719 272.915 196.424C273.044 196.147 273.21 195.907 273.395 195.667C273.58 195.445 273.82 195.279 274.078 195.131C274.355 194.983 274.688 194.909 275.002 194.928L275.02 194.965Z" fill="#6334FA"/>
<path d="M217.89 119.381V88.4792H189.278C186.249 88.4792 183.774 90.9543 183.774 93.9836V168.422C183.774 171.451 186.249 173.926 189.278 173.926H250.879C253.908 173.926 256.384 171.451 256.384 168.422V119.381H217.89Z" fill="#6334FA"/>
<path d="M179.063 162.474C170.862 162.419 164.268 155.751 164.323 147.549C164.36 142.027 167.445 136.984 172.358 134.454C172.654 123.722 181.594 115.244 192.325 115.539C198.79 115.724 204.756 119.104 208.21 124.572C209.947 123.888 211.794 123.537 213.659 123.5C220.401 123.5 226.367 127.859 228.381 134.287C233.442 136.799 236.637 141.971 236.619 147.623C236.619 154.993 231.225 161.255 223.948 162.326V162.474H179.045H179.063Z" fill="#6334FF"/>
<path d="M226.516 135.82C224.817 128.691 217.65 124.276 210.52 125.975C209.412 126.234 208.34 126.64 207.343 127.176C203.058 118.605 192.64 115.133 184.088 119.418C178.233 122.355 174.52 128.34 174.501 134.897V135.747C167.944 138.277 164.693 145.647 167.224 152.204C169.126 157.099 173.836 160.332 179.082 160.332H221.843C228.862 160.295 234.532 154.569 234.514 147.55C234.495 142.378 231.337 137.741 226.553 135.802L226.516 135.82Z" fill="white"/>
<path opacity="0.6" d="M222.156 115.816H256.402L222.156 88.4792V115.816Z" fill="black"/>
<path d="M222.156 115.816H256.402L222.156 88.4792V115.816Z" fill="#6334FF"/>
<path d="M197.054 142.544C198.789 142.544 200.194 141.138 200.194 139.404C200.194 137.669 198.789 136.264 197.054 136.264C195.32 136.264 193.914 137.669 193.914 139.404C193.914 141.138 195.32 142.544 197.054 142.544Z" fill="#6334FA"/>
<path d="M197.96 140.568H196.131L194.007 149.341H200.102L197.96 140.568Z" fill="#6334FA"/>
<defs>
<filter id="filter0_d_435_81" x="51.8627" y="-9.13716" width="329.911" height="329.911" filterUnits="userSpaceOnUse" color-interpolation-filters="sRGB">
<feFlood flood-opacity="0" result="BackgroundImageFix"/>
<feColorMatrix in="SourceAlpha" type="matrix" values="0 0 0 0 0 0 0 0 0 0 0 0 0 0 0 0 0 0 127 0" result="hardAlpha"/>
<feOffset dy="4"/>
<feGaussianBlur stdDeviation="12.4"/>
<feComposite in2="hardAlpha" operator="out"/>
<feColorMatrix type="matrix" values="0 0 0 0 0 0 0 0 0 0 0 0 0 0 0 0 0 0 0.25 0"/>
<feBlend mode="normal" in2="BackgroundImageFix" result="effect1_dropShadow_435_81"/>
<feBlend mode="normal" in="SourceGraphic" in2="effect1_dropShadow_435_81" result="shape"/>
</filter>
<filter id="filter1_d_435_81" x="26.1828" y="-34.8172" width="381.272" height="381.272" filterUnits="userSpaceOnUse" color-interpolation-filters="sRGB">
<feFlood flood-opacity="0" result="BackgroundImageFix"/>
<feColorMatrix in="SourceAlpha" type="matrix" values="0 0 0 0 0 0 0 0 0 0 0 0 0 0 0 0 0 0 127 0" result="hardAlpha"/>
<feOffset dy="4"/>
<feGaussianBlur stdDeviation="12.4"/>
<feComposite in2="hardAlpha" operator="out"/>
<feColorMatrix type="matrix" values="0 0 0 0 0 0 0 0 0 0 0 0 0 0 0 0 0 0 0.25 0"/>
<feBlend mode="normal" in2="BackgroundImageFix" result="effect1_dropShadow_435_81"/>
<feBlend mode="normal" in="SourceGraphic" in2="effect1_dropShadow_435_81" result="shape"/>
</filter>
<filter id="filter2_d_435_81" x="0.200001" y="-60.8" width="433.237" height="433.237" filterUnits="userSpaceOnUse" color-interpolation-filters="sRGB">
<feFlood flood-opacity="0" result="BackgroundImageFix"/>
<feColorMatrix in="SourceAlpha" type="matrix" values="0 0 0 0 0 0 0 0 0 0 0 0 0 0 0 0 0 0 127 0" result="hardAlpha"/>
<feOffset dy="4"/>
<feGaussianBlur stdDeviation="12.4"/>
<feComposite in2="hardAlpha" operator="out"/>
<feColorMatrix type="matrix" values="0 0 0 0 0 0 0 0 0 0 0 0 0 0 0 0 0 0 0.25 0"/>
<feBlend mode="normal" in2="BackgroundImageFix" result="effect1_dropShadow_435_81"/>
<feBlend mode="normal" in="SourceGraphic" in2="effect1_dropShadow_435_81" result="shape"/>
</filter>
<filter id="filter3_d_435_81" x="68.5991" y="7.58591" width="295.352" height="295.352" filterUnits="userSpaceOnUse" color-interpolation-filters="sRGB">
<feFlood flood-opacity="0" result="BackgroundImageFix"/>
<feColorMatrix in="SourceAlpha" type="matrix" values="0 0 0 0 0 0 0 0 0 0 0 0 0 0 0 0 0 0 127 0" result="hardAlpha"/>
<feOffset dy="4"/>
<feGaussianBlur stdDeviation="13.55"/>
<feComposite in2="hardAlpha" operator="out"/>
<feColorMatrix type="matrix" values="0 0 0 0 0.801627 0 0 0 0 0.739881 0 0 0 0 1 0 0 0 1 0"/>
<feBlend mode="normal" in2="BackgroundImageFix" result="effect1_dropShadow_435_81"/>
<feBlend mode="normal" in="SourceGraphic" in2="effect1_dropShadow_435_81" result="shape"/>
</filter>
</defs>
</svg>
