<svg id="SvgjsSvg1158" width="288" height="288" xmlns="http://www.w3.org/2000/svg" version="1.1" xmlns:xlink="http://www.w3.org/1999/xlink" xmlns:svgjs="http://svgjs.com/svgjs"><defs id="SvgjsDefs1159"></defs><g id="SvgjsG1160"><svg xmlns="http://www.w3.org/2000/svg" fill="none" viewBox="0 0 44 44" width="288" height="288"><path fill="#6334fa" d="M.0101824 30.6853C.432752 29.6521.834957 29.4434 2.00593 29.5249 3.57402 29.6368 5.14211 29.7183 6.71529 29.7997 7.75899 29.8506 8.29356 30.3901 8.28338 31.4233 8.27829 31.8254 8.29865 32.2224 8.20192 32.6194 8.14083 32.8586 8.06446 33.1182 7.8659 33.2505 7.48915 33.4999 7.48915 33.846 7.49424 34.2278 7.50443 35.1643 7.60116 36.0804 7.88627 36.9762 8.44121 38.7118 9.62746 39.6178 11.5519 39.7552 12.3767 39.8112 13.2117 39.8163 14.0313 39.6737 14.2961 39.6279 14.4997 39.5363 14.6627 39.3022 15.0699 38.7169 16.3987 38.2995 17.0708 38.5184 17.5239 38.666 17.8294 38.9714 17.977 39.4244 18.1705 40.0351 18.369 40.651 18.532 41.2719 18.7407 42.0761 18.364 42.7683 17.5748 43.038 16.969 43.2467 16.3631 43.5012 15.7013 43.2162 15.6453 43.1907 15.5587 43.206 15.4925 43.2315 14.3368 43.6234 13.1404 43.8168 11.9389 44H9.10306C8.29356 43.827 7.48406 43.6539 6.71529 43.3383 3.96095 42.2186 2.33177 40.0911 1.36953 37.3732.972419 36.2433.814592 35.0727.748406 33.8867.733133 33.6068.76368 33.3014.50912 33.0928.280016 32.9044.142554 32.6601 0 32.4107V30.6955L.0101824 30.6853zM10.4115 42.58C10.4522 42.58 10.4981 42.58 10.5388 42.58 11.6639 42.468 11.4603 42.6665 11.3534 41.6027 11.3228 41.3126 11.2159 41.2057 10.9155 41.1549 8.7925 40.7986 7.24478 39.7043 6.53201 37.6022 6.45055 37.3681 6.34363 37.3274 6.11962 37.3834 5.37121 37.5768 4.61772 37.7498 3.86931 37.928 3.22782 38.0807 3.21764 38.0959 3.54856 38.6609 5.08611 41.2719 7.41788 42.4934 10.4013 42.5749L10.4115 42.58zM2.67288 33.4694C2.56087 33.5254 2.20449 33.3065 2.22994 33.6526 2.28595 34.5739 2.33686 35.5053 2.62706 36.396 2.69833 36.6097 2.81034 36.6861 3.04454 36.625 3.95586 36.3909 4.86719 36.1669 5.7836 35.9481 6.0178 35.8921 6.11453 35.7699 6.09416 35.5256 6.05343 35.0014 6.02798 34.4721 6.00252 33.9478 5.99234 33.7035 5.8447 33.6424 5.63596 33.6272 4.66863 33.5763 3.7013 33.5203 2.67797 33.4643L2.67288 33.4694zM6.16544 32.1868C6.16544 32.1868 6.16544 32.197 6.16544 32.2021 6.22144 32.2021 6.28254 32.197 6.33854 32.2021 6.63383 32.2377 6.78657 32.1461 6.79675 31.8101 6.80693 31.4946 6.82221 31.2503 6.39964 31.2401 5.91597 31.2299 5.43231 31.179 4.94355 31.1485 3.91513 31.0874 2.8918 31.0314 1.86338 30.9602 1.36953 30.9245 1.52227 31.2961 1.47645 31.5455 1.43572 31.7745 1.46117 31.9221 1.76155 31.9374 3.23291 32.0086 4.69918 32.0952 6.17053 32.1817L6.16544 32.1868zM12.8298 41.5875C12.8502 41.6842 12.8858 41.786 12.8807 41.8827 12.8655 42.2899 13.064 42.356 13.4153 42.2491 13.7564 42.1473 14.1026 42.0761 14.4488 41.9947 14.6677 41.9438 14.8714 41.8929 14.7645 41.5773 14.6779 41.3177 14.6474 41.0327 14.2503 41.104 13.8735 41.1701 13.4917 41.221 13.1098 41.2566 12.8858 41.277 12.8095 41.3788 12.8298 41.5926V41.5875zM16.4191 39.9842C16.0271 39.9842 15.8896 40.1674 15.9965 40.5492 16.0882 40.88 16.19 41.2057 16.2817 41.5366 16.3529 41.786 16.4904 41.8369 16.7297 41.7554 16.9588 41.674 17.1217 41.5977 17.025 41.3025 16.9079 40.9513 16.8111 40.5899 16.7042 40.2387 16.6635 40.1013 16.6126 39.9588 16.4191 39.9842zM32.0389 43.9898C30.8374 43.8117 29.641 43.6081 28.4853 43.2213 28.4191 43.2009 28.3325 43.1806 28.2765 43.206 27.6045 43.5012 26.9833 43.2315 26.3673 43.0177 25.6291 42.7581 25.2472 42.0761 25.4356 41.3126 25.5985 40.6612 25.8022 40.0198 26.0109 39.3836 26.1637 38.9154 26.4997 38.5744 26.9783 38.498 27.7929 38.3708 28.5922 38.5642 29.1522 39.1393 29.5086 39.5058 29.8548 39.6839 30.3181 39.7196 31.3771 39.8061 32.4309 39.8264 33.4695 39.5567 35.1751 39.1139 35.954 37.8873 36.2799 36.2789 36.4428 35.49 36.5039 34.696 36.4886 33.8918 36.4886 33.6781 36.4377 33.5101 36.2544 33.3727 35.9846 33.164 35.8217 32.879 35.7606 32.5431 35.6689 32.0188 35.6587 31.4844 35.7148 30.9602 35.7809 30.3341 36.3766 29.8455 37.069 29.7997 38.8357 29.6877 40.6023 29.5758 42.374 29.474 43.1326 29.4282 43.7436 29.8862 43.9116 30.6242 44.0338 31.1434 44.0032 31.6778 43.9727 32.2021 43.9574 32.4769 43.825 32.7467 43.6112 32.9146 43.2752 33.1793 43.2345 33.5254 43.2141 33.902 43.0919 36.5181 42.3079 38.8899 40.5972 40.9156 39.1666 42.6105 37.3083 43.5267 35.1547 43.9084 35.058 43.9237 34.9613 43.9542 34.8645 43.9796H32.0287L32.0389 43.9898zM33.6019 42.58C33.6019 42.58 33.6019 42.5952 33.6019 42.6003 34.111 42.5392 34.6303 42.5036 35.1344 42.412 37.5629 41.9743 39.3295 40.6255 40.5259 38.4878 40.7041 38.1723 40.643 38.045 40.2866 37.9687 39.4771 37.7906 38.6727 37.587 37.8734 37.3732 37.6138 37.3019 37.5119 37.3732 37.4407 37.6175 37.3236 37.9992 37.1556 38.3657 36.9468 38.7067 36.0559 40.1776 34.6761 40.8749 33.0419 41.1498 32.7873 41.1905 32.6804 41.2719 32.6346 41.5315 32.4513 42.5087 32.4564 42.5291 33.4339 42.5698 33.4899 42.5698 33.5459 42.5698 33.607 42.5698L33.6019 42.58zM37.8683 35.5409C37.8021 35.7699 38.0058 35.9125 38.3825 35.9939 39.2175 36.1771 40.0525 36.3807 40.8772 36.6097 41.1929 36.6963 41.31 36.6097 41.3965 36.3094 41.6307 35.5053 41.6765 34.6807 41.758 33.8613 41.7936 33.5152 41.702 33.4338 41.3813 33.4541 40.3732 33.5254 39.3601 33.5814 38.3469 33.6323 38.0974 33.6424 37.9803 33.7442 37.9905 33.9936 38.0007 34.4517 37.9752 34.9047 37.8683 35.5409zM37.8938 32.2071C38.1891 32.1868 38.5607 32.1512 38.9273 32.1308 40.027 32.0646 41.1267 32.0086 42.2213 31.9476 42.3689 31.9374 42.5013 31.9476 42.5268 31.7389 42.6082 31.1027 42.4708 30.95 41.8293 31.0212 41.646 31.0416 41.4576 31.0416 41.2743 31.0518 40.1034 31.1129 38.9324 31.1688 37.7665 31.2401 37.1759 31.2757 37.1912 31.2961 37.1912 31.8152 37.1912 32.3191 37.5323 32.197 37.8887 32.2071H37.8938zM29.4933 41.104C29.2438 41.109 29.2897 41.4297 29.2082 41.6536 29.1166 41.9081 29.3202 41.9387 29.478 41.9794 29.7784 42.0608 30.0839 42.1372 30.3894 42.2084 31.041 42.3611 31.209 42.2084 31.153 41.5213 31.1429 41.3941 31.1123 41.2923 30.9698 41.277 30.5166 41.221 30.0686 41.1701 29.4882 41.104H29.4933zM27.5688 39.9944C27.3805 39.9639 27.3245 40.1013 27.2837 40.2387 27.1819 40.5644 27.1004 40.9004 26.9833 41.221 26.8815 41.506 26.9273 41.6587 27.243 41.7656 27.5994 41.8827 27.6656 41.6893 27.7368 41.4297 27.8132 41.1396 27.9099 40.8546 27.9863 40.5644 28.0983 40.1674 27.9761 39.9995 27.5688 39.9893V39.9944z" class="colorDF1D26 svgShape"></path><path fill="#6334fa" d="M5.81415 18.9535C5.74287 10.1229 13.0437 2.72755 22.0245 2.74791C30.9443 2.76827 38.1433 10.0924 38.1789 18.8976C38.2145 27.8249 30.9392 35.2559 21.8718 35.1897C12.9062 35.1235 5.73269 27.7231 5.81415 18.9586V18.9535ZM29.697 31.5048C29.7682 31.4691 29.8599 31.4284 29.9413 31.3724C31.596 30.2985 32.9808 28.9548 34.111 27.3414C34.279 27.1022 34.2281 26.9444 34.055 26.7408C33.2761 25.8094 32.5073 24.8627 31.7334 23.9262C31.5094 23.6564 31.3771 23.3663 31.5451 23.0202C31.7131 22.6843 32.0185 22.6029 32.3698 22.5876C33.5561 22.5367 34.7423 22.4654 35.9235 22.4298C36.2137 22.4196 36.3359 22.3026 36.3817 22.0379C36.4581 21.5595 36.5548 21.081 36.6159 20.5975C36.789 19.1419 36.7126 17.6862 36.4581 16.2458C36.4173 16.0117 36.3155 15.8794 36.0406 15.8539C34.9154 15.7572 33.7954 15.63 32.6702 15.5333C32.2629 15.4976 31.8913 15.4467 31.7283 15.0141C31.5705 14.5866 31.8454 14.3066 32.0949 14.0318C32.7975 13.2582 33.4848 12.4693 34.2128 11.7262C34.5234 11.4106 34.503 11.1816 34.2739 10.8456C33.2302 9.29836 31.9625 7.98013 30.4352 6.89602C30.1399 6.68734 29.9464 6.67207 29.6613 6.92147C28.8315 7.64421 27.971 8.33132 27.1208 9.0337C26.8663 9.24238 26.5964 9.38489 26.2553 9.24747C25.8989 9.09986 25.792 8.80466 25.7666 8.45856C25.7513 8.24479 25.7564 8.03103 25.7462 7.81726C25.7055 6.91638 25.6545 6.02059 25.624 5.11971C25.6138 4.76852 25.4509 4.6311 25.12 4.55984C23.2668 4.17303 21.4034 4.14249 19.5349 4.4326C19.2244 4.47841 19.0818 4.59547 19.0564 4.90594C18.9596 5.98496 18.8476 7.06907 18.7458 8.14809C18.7102 8.51964 18.6338 8.87083 18.2469 9.02861C17.8548 9.19148 17.5646 8.9828 17.2897 8.72323C16.5108 8.00558 15.7165 7.3032 14.9528 6.57537C14.683 6.32088 14.4794 6.28017 14.1484 6.49393C12.5294 7.53732 11.1497 8.82502 10.0246 10.3927C9.86165 10.6166 9.85656 10.7642 10.0398 10.9831C10.7882 11.8687 11.5112 12.7746 12.2545 13.6653C12.4836 13.9402 12.5956 14.2354 12.4378 14.5713C12.2902 14.892 11.9949 14.9887 11.6588 15.0039C10.4879 15.0548 9.31689 15.121 8.14592 15.1668C7.87099 15.177 7.73353 15.2686 7.67244 15.5434C7.23459 17.4164 7.17859 19.3047 7.43824 21.2083C7.48915 21.59 7.66225 21.7223 8.05428 21.7529C9.23543 21.8394 10.4166 21.9666 11.5977 22.0939C12.2494 22.1651 12.504 22.7556 12.1323 23.29C12.0254 23.4427 11.8981 23.575 11.7709 23.7124C11.0377 24.5166 10.3097 25.3208 9.56636 26.1148C9.3678 26.3234 9.33217 26.4863 9.49508 26.7459C10.4828 28.3288 11.725 29.6826 13.2168 30.7973C13.7259 31.179 13.731 31.1688 14.2095 30.7668C15.1005 30.0237 15.9915 29.2857 16.8875 28.5476C17.1421 28.339 17.417 28.1965 17.753 28.3491C18.0839 28.4967 18.1959 28.7818 18.2214 29.1126C18.2418 29.3976 18.2367 29.6826 18.2519 29.9677C18.3029 30.95 18.3589 31.9374 18.4047 32.9197C18.4149 33.1487 18.481 33.2811 18.7356 33.3371C20.6754 33.7748 22.6202 33.7951 24.5752 33.4847C24.789 33.449 24.8858 33.3421 24.9061 33.1131C25.0131 31.8763 25.1403 30.6395 25.2523 29.4027C25.288 29.0413 25.3745 28.7156 25.7462 28.568C26.1178 28.4204 26.403 28.5884 26.6728 28.8378C27.5688 29.6623 28.47 30.4766 29.366 31.2961C29.4577 31.3826 29.5442 31.4895 29.7071 31.5048H29.697ZM26.6066 30.782C26.5302 31.5048 26.464 32.1053 26.403 32.711C26.3826 32.8892 26.403 33.052 26.6473 32.9604C27.1106 32.7874 27.5739 32.5991 28.0321 32.4107C28.19 32.3446 28.2205 32.2479 28.083 32.1257C27.6147 31.6982 27.1463 31.2706 26.6066 30.782ZM16.7806 30.5326C16.2256 30.9958 15.7471 31.3928 15.2634 31.7898C15.1056 31.9221 15.1158 32.0137 15.2991 32.0952C15.7369 32.2937 16.1747 32.4973 16.6177 32.6958C16.8111 32.7823 16.913 32.7314 16.9028 32.4973C16.862 31.8763 16.8264 31.2605 16.7857 30.5326H16.7806ZM33.7343 24.0382C34.1568 24.5522 34.5387 25.0205 34.9205 25.4938C35.0325 25.6312 35.1242 25.6414 35.2005 25.4684C35.3889 25.0408 35.5773 24.6082 35.7606 24.1807C35.842 23.9924 35.7708 23.9262 35.5722 23.9262C34.9816 23.9262 34.391 23.9771 33.7343 24.0433V24.0382ZM10.0297 23.4121C9.35762 23.346 8.80777 23.29 8.25792 23.2391C8.01355 23.2187 7.90154 23.3002 8.00336 23.5597C8.1561 23.9567 8.30374 24.3588 8.45139 24.7558C8.52776 24.9543 8.62449 24.9492 8.75686 24.8067C9.15397 24.369 9.55618 23.9313 10.0297 23.4121ZM10.2689 13.5737C9.86165 13.0749 9.51545 12.6474 9.16925 12.2249C9.07251 12.1079 8.97578 12.1028 8.90451 12.2402C8.71613 12.6219 8.53794 13.0088 8.35975 13.3956C8.27829 13.5737 8.34447 13.6704 8.54303 13.6602C9.08779 13.6348 9.63764 13.6043 10.274 13.5686L10.2689 13.5737ZM33.9583 14.1743C34.5947 14.2405 35.1191 14.2914 35.6435 14.3474C35.8828 14.3728 35.9642 14.2761 35.8726 14.0471C35.7351 13.701 35.5977 13.36 35.4551 13.0139C35.3736 12.8052 35.2616 12.7339 35.0834 12.9273C34.7322 13.3192 34.3809 13.7061 33.9583 14.1692V14.1743ZM17.3813 6.80441C17.4424 6.1631 17.4832 5.6694 17.5443 5.1757C17.5697 4.96702 17.5137 4.90085 17.3253 4.97211C16.9486 5.10953 16.5769 5.24695 16.2104 5.39456C16.1035 5.43527 15.9762 5.51671 16.1086 5.64395C16.5057 6.02059 16.913 6.38196 17.3813 6.80441ZM27.1972 7.03853C27.6707 6.6568 28.078 6.32597 28.4853 5.99514C28.5973 5.90353 28.6227 5.80682 28.47 5.73557C28.083 5.55743 27.691 5.37929 27.299 5.21133C27.1514 5.15025 27.0852 5.21133 27.0954 5.36402C27.131 5.88826 27.1615 6.4125 27.2023 7.03853H27.1972Z" class="colorDF1D26 svgShape"></path><path fill="#6334fa" d="M3.0649 17.6455C3.13618 13.5126 5.11156 8.81993 9.12343 5.05863 12.2189 2.16259 15.91.503346 20.1459.0910791 27.803-.657108 35.0784 3.25179 38.7084 10.0669 40.419 13.2836 41.1267 16.7192 40.8823 20.3379 40.699 23.066 39.9303 25.6465 38.6167 28.059 38.4487 28.3644 38.2553 28.5018 37.9091 28.4866 37.6545 28.4764 37.3948 28.5273 37.1403 28.5375 37.0028 28.5426 36.8297 28.6189 36.7483 28.4713 36.6719 28.3441 36.8145 28.2372 36.8755 28.1303 37.8378 26.5423 38.5505 24.8474 38.9782 23.0355 41.2947 13.1818 34.9409 3.47065 24.9774 1.72488 15.6045.0808997 6.55746 6.28526 4.83155 15.7521 4.02714 20.1547 4.801 24.2774 7.10222 28.1201 7.16841 28.227 7.30078 28.3339 7.23459 28.4611 7.15313 28.6189 6.98003 28.5375 6.84766 28.5324 6.70511 28.5324 6.55746 28.4662 6.42509 28.4866 5.72251 28.6087 5.42722 28.2015 5.1472 27.6366 3.78276 24.9187 3.05981 22.0532 3.06999 17.6404L3.0649 17.6455zM21.9736 37.9432C17.4679 37.8924 13.456 36.4621 9.95329 33.6119 9.59691 33.3218 9.33217 33.052 9.50018 32.538 9.57145 32.3293 9.52054 32.085 9.53072 31.856 9.54091 31.7185 9.50018 31.5302 9.63764 31.464 9.79547 31.3877 9.87692 31.576 9.97366 31.6625 10.9104 32.5532 11.9287 33.3371 13.0386 33.9987 15.4925 35.4544 18.1399 36.284 20.9961 36.4265 26.016 36.681 30.3435 35.0523 34.0194 31.6422 34.111 31.5607 34.1874 31.3979 34.3249 31.459 34.4572 31.5149 34.4318 31.6778 34.4369 31.8051 34.4623 32.1766 34.4369 32.5482 34.5234 32.9146 34.5896 33.2149 34.3299 33.3422 34.1518 33.4898 32.5175 34.864 30.7101 35.9481 28.7144 36.7115 26.5404 37.5361 24.2952 37.9687 21.9634 37.9432H21.9736z" class="colorDF1D26 svgShape"></path><path fill="#6334fa" d="M30.8527 11.6549C30.7254 12.7746 30.5319 13.9605 30.201 15.1159C30.0941 15.4773 30.1603 15.6758 30.5014 15.8641C31.4891 16.4138 32.4157 17.0653 33.3015 17.7727C34.167 18.4649 34.167 19.4727 33.2964 20.17C32.4004 20.8876 31.4636 21.5391 30.4606 22.0939C30.1653 22.2568 30.0941 22.4247 30.1857 22.7403C30.5115 23.8549 30.6948 24.995 30.8425 26.1453C30.9799 27.2141 30.1908 27.9572 29.1217 27.8249C27.971 27.6824 26.8306 27.4839 25.7156 27.1632C25.4153 27.0767 25.2778 27.1683 25.1352 27.4177C24.5854 28.4051 23.9439 29.3365 23.2464 30.2272C22.4929 31.1892 21.5052 31.1841 20.7466 30.2272C20.044 29.3365 19.4076 28.4051 18.8527 27.4177C18.6949 27.1327 18.532 27.0869 18.2316 27.1734C17.0912 27.5043 15.9202 27.6977 14.739 27.8453C13.7921 27.9623 13.0233 27.1785 13.1404 26.1911C13.2778 25.0561 13.456 23.9262 13.7819 22.8268C13.899 22.4349 13.8124 22.2415 13.456 22.0481C12.4582 21.5137 11.5417 20.8469 10.6559 20.1445C9.82601 19.488 9.82601 18.4598 10.6457 17.8033C11.5417 17.0856 12.4785 16.429 13.4764 15.8692C13.7819 15.6961 13.899 15.5282 13.7921 15.1617C13.4662 14.0623 13.288 12.9324 13.1404 11.7974C13.0029 10.7286 13.787 9.97529 14.851 10.1127C16.0016 10.2603 17.1421 10.4588 18.257 10.7693C18.5523 10.8507 18.7 10.7642 18.8425 10.5148C19.3975 9.5274 20.039 8.59598 20.7365 7.70528C21.4899 6.74333 22.4878 6.73824 23.2413 7.70528C23.9184 8.57562 24.5498 9.4765 25.0843 10.4435C25.2574 10.754 25.4356 10.866 25.7971 10.754C26.9223 10.413 28.083 10.24 29.2438 10.0924C30.1144 9.98038 30.8628 10.6777 30.8476 11.66L30.8527 11.6549ZM14.6372 26.013C14.6168 26.298 14.6576 26.3642 14.9121 26.3285C16.3173 26.1402 17.7123 25.901 19.0309 25.3615C19.3007 25.2495 19.428 25.2801 19.5502 25.5651C20.095 26.868 20.9146 28.0081 21.7445 29.1381C21.9227 29.3824 22.05 29.3722 22.2282 29.1381C23.0631 28.0081 23.8777 26.868 24.4225 25.5651C24.5294 25.3157 24.6363 25.2393 24.9011 25.3462C26.2095 25.8806 27.5892 26.1199 28.974 26.3234C29.2846 26.3692 29.3711 26.2776 29.3304 25.9926C29.1166 24.6235 28.9078 23.2493 28.3732 21.9565C28.246 21.646 28.2867 21.5137 28.6023 21.3813C29.9057 20.8367 31.0461 20.0173 32.1662 19.1724C32.3495 19.035 32.4258 18.9434 32.1916 18.7652C31.0512 17.9203 29.9108 17.0805 28.5922 16.5308C28.3071 16.4138 28.2358 16.3018 28.3631 15.9913C28.9078 14.6884 29.1217 13.2989 29.3304 11.9145C29.366 11.6651 29.2948 11.5429 28.9995 11.5887C27.5994 11.8076 26.2044 12.0315 24.8858 12.5812C24.6465 12.683 24.5345 12.6219 24.4327 12.3827C23.8879 11.095 23.0937 9.96002 22.2689 8.84029C22.0602 8.55527 21.9278 8.51964 21.7038 8.83011C20.8892 9.95494 20.0848 11.0849 19.54 12.3725C19.4433 12.5965 19.3516 12.6932 19.0971 12.5863C17.7785 12.0315 16.3835 11.8127 14.9834 11.5938C14.6576 11.5429 14.6016 11.6854 14.6423 11.945C14.851 13.3141 15.0649 14.6884 15.5994 15.9812C15.7318 16.3069 15.6503 16.4189 15.35 16.5461C14.0466 17.0958 12.9113 17.9203 11.7861 18.7601C11.5621 18.9281 11.6028 19.0146 11.8014 19.1673C12.9215 20.0122 14.067 20.8266 15.3652 21.3762C15.686 21.5137 15.7216 21.6511 15.5943 21.9514C15.0649 23.2442 14.851 24.6184 14.6372 26.0079V26.013Z" class="colorDF1D26 svgShape"></path><path fill="#6334fa" d="M16.1238 18.9637C16.1238 15.6859 18.7407 13.0647 22.0092 13.0698C25.2523 13.0698 27.9303 15.747 27.9201 18.9739C27.9099 22.216 25.2422 24.8678 21.9991 24.8729C18.7356 24.8729 16.1238 22.2466 16.1238 18.9637ZM22.0042 14.5611C19.5502 14.5611 17.5341 16.5257 17.5697 18.9637C17.6155 21.8343 19.9473 23.4019 21.9991 23.3816C24.453 23.3561 26.4284 21.4068 26.4284 18.9688C26.4284 16.5258 24.453 14.556 22.0042 14.5611Z" class="colorDF1D26 svgShape"></path><path fill="#6334fa" d="M22.0092 22.1092C21.7649 22.1092 21.5714 21.9972 21.4034 21.8292C20.6448 21.0709 19.8811 20.3176 19.1378 19.549C18.7611 19.1622 18.7611 18.7652 19.1378 18.3784C19.8862 17.6099 20.6448 16.8515 21.4085 16.1033C21.8005 15.7165 22.1722 15.7165 22.5693 16.1033C23.333 16.8515 24.0916 17.6099 24.84 18.3784C25.2167 18.7652 25.2167 19.1622 24.84 19.5541C24.0916 20.3227 23.3279 21.0759 22.5744 21.8292C22.4165 21.987 22.2333 22.0888 22.0092 22.1092ZM22.0042 17.6811C21.9532 17.7015 21.9074 17.7117 21.8769 17.7371C21.5001 18.1087 21.1285 18.4751 20.7568 18.8517C20.6448 18.9637 20.7263 19.0604 20.8128 19.1419C21.1437 19.4778 21.4798 19.8086 21.8107 20.1394C21.9329 20.2667 22.0551 20.2667 22.1773 20.1394C22.5184 19.7933 22.8595 19.4523 23.2057 19.1113C23.3024 19.0146 23.3075 18.9179 23.2057 18.8161C22.8544 18.4649 22.498 18.1087 22.1467 17.7626C22.1111 17.7269 22.05 17.7066 22.0042 17.6811Z" class="colorDF1D26 svgShape"></path></svg></g></svg>