<svg id="SvgjsSvg1001" width="288" height="288" xmlns="http://www.w3.org/2000/svg" version="1.1" xmlns:xlink="http://www.w3.org/1999/xlink" xmlns:svgjs="http://svgjs.com/svgjs"><defs id="SvgjsDefs1002"></defs><g id="SvgjsG1008"><svg xmlns="http://www.w3.org/2000/svg" fill="none" viewBox="0 0 59 44" width="288" height="288"><path fill="#6334fa" d="M58.7506 43.0807C57.8506 43.1341 57.4548 42.8562 57.547 41.9208C57.5903 41.4825 57.7367 40.8358 57.0427 40.7503C56.3867 40.6701 56.3162 40.328 56.2512 39.7935C55.8391 36.5277 55.7523 33.2085 55.2047 29.9748C54.7114 27.0672 55.015 24.09 54.0824 21.2091C53.665 19.9316 54.0119 18.4137 54.0119 17.0026C54.0119 16.5002 54.3264 16.3986 54.7656 16.3612C56.4138 16.2222 56.4138 16.2116 56.4409 14.592C56.4409 14.3836 56.4409 14.1805 56.4409 13.972C56.4789 11.2407 56.3325 11.7485 54.2126 11.7004C53.8656 11.6951 53.5131 11.6951 53.1661 11.6897C52.9167 11.6897 52.6185 11.6683 52.5589 11.3957C52.3691 10.5352 51.7023 10.6368 51.0788 10.6421C50.3143 10.6421 49.5444 10.6581 48.7799 10.6528C48.4709 10.6528 48.0588 10.6956 47.9938 10.3161C47.8311 9.44484 47.1913 9.49294 46.557 9.49294C45.825 9.49294 45.0931 9.50363 44.3666 9.51967C44.0467 9.52501 43.6672 9.56777 43.5858 9.18828C43.4178 8.39188 42.8376 8.40792 42.225 8.41326C41.493 8.41861 40.7611 8.41326 40.0291 8.40792C39.7526 8.40792 39.3297 8.4774 39.2647 8.2155C38.9177 6.83115 37.8225 7.22668 36.9062 7.17858C36.5809 7.16254 36.2989 7.13047 36.158 6.76167C35.4369 4.86421 34.6616 2.98813 33.9784 1.07998C33.7019 0.315648 33.2844 -0.010394 32.4549 0.000295898C30.3295 0.0377106 28.2042 0.0323656 26.0788 0.000295898C25.2981 -0.010394 24.8644 0.267544 24.6041 0.999803C24.0565 2.55519 23.3734 4.07315 22.8908 5.64457C22.533 6.80443 21.98 7.41375 20.6842 7.19996C20.0878 7.10375 19.5564 7.24271 19.4859 7.99635C19.448 8.43464 19.101 8.41861 18.7865 8.41861C17.8811 8.41861 16.9756 8.41861 16.0702 8.42395C15.7232 8.42395 15.2461 8.38119 15.1756 8.77672C15.0184 9.62122 14.4437 9.51432 13.8473 9.50363C13.1153 9.4876 12.3834 9.50363 11.6514 9.51432C11.3044 9.51967 10.8165 9.51432 10.7406 9.86709C10.5291 10.8773 9.7755 10.6635 9.10862 10.6742C8.41463 10.6849 7.71522 10.6635 7.02123 10.6635C6.74472 10.6635 6.34893 10.6314 6.30013 10.9361C6.14832 11.9302 5.40553 11.6951 4.78203 11.7111C4.22358 11.7271 3.66514 11.7271 3.10669 11.7164C2.49945 11.7058 2.20667 11.9677 2.21752 12.577C2.23378 13.4375 2.27173 14.2981 2.20667 15.1533C2.13077 16.1153 2.53198 16.4895 3.47537 16.3719C4.29949 16.265 4.62479 16.6285 4.55431 17.4302C4.51636 17.8738 4.55431 18.3228 4.54889 18.7718C4.53262 19.6965 4.80913 20.7868 4.4025 21.5084C3.89285 22.4171 3.91454 23.2616 3.92538 24.1542C3.94165 25.3301 3.79526 26.4846 3.62718 27.6391C3.37778 29.3708 3.12838 31.0919 3.04163 32.8504C2.92235 35.245 2.54282 37.6288 2.27173 40.0127C2.2392 40.3066 2.28258 40.7289 1.84883 40.7235C0.851222 40.7129 0.932549 41.3863 0.981345 42.001C1.04099 42.7707 0.764473 43.086 0 43.0807V44C19.6649 44 39.3297 44 59 44V43.07C58.9241 43.07 58.8428 43.07 58.7669 43.0807H58.7506ZM55.3132 40.1516C55.3674 40.8518 54.8415 40.777 54.3915 40.7823C53.4535 40.7877 52.5155 40.7823 51.5776 40.7823C50.5691 40.7823 49.5661 40.7823 48.5576 40.7823C48.1022 40.7823 47.7227 40.7235 47.7281 40.1302C47.7281 39.5423 47.9612 39.243 48.5902 39.2483C50.5366 39.2644 52.4776 39.2644 54.424 39.2483C55.0746 39.243 55.2698 39.6278 55.3132 40.1516ZM54.977 37.6662C55.0421 38.1954 54.7981 38.3237 54.3264 38.313C53.3884 38.2969 52.4505 38.313 51.5125 38.313C50.5745 38.313 49.6366 38.3023 48.6986 38.313C48.2323 38.3183 47.9883 38.2007 48.0534 37.6609C48.1889 36.5064 48.2703 35.3465 48.3895 34.192C48.4492 33.6147 48.6877 33.2566 49.3817 33.2727C50.8022 33.3101 52.2282 33.3047 53.6487 33.2727C54.2668 33.262 54.5216 33.5185 54.5758 34.1011C54.6897 35.2931 54.8198 36.4796 54.9662 37.6662H54.977ZM53.8927 27.2222C53.9523 27.9384 54.0879 28.6493 54.2071 29.3602C54.4132 30.5895 54.3752 30.6376 53.0794 30.5788C52.9059 30.5735 52.7324 30.5628 52.6348 30.5574C51.133 30.5521 51.1221 30.5467 51.2902 29.1036C51.3661 28.4569 51.5505 27.8208 51.5884 27.1741C51.6426 26.3189 52.1469 26.212 52.8625 26.2227C53.5836 26.2334 53.833 26.5701 53.8927 27.2275V27.2222ZM49.6366 21.4657C49.4739 21.2732 49.5607 20.867 49.5607 20.5624C49.5607 19.1246 49.5769 17.6814 49.5552 16.2436C49.5444 15.5809 49.8155 15.335 50.4878 15.335C51.1655 15.335 51.4203 15.6022 51.4095 16.2543C51.3878 17.8311 51.8215 19.5575 51.3065 20.9525C50.5149 23.0959 51.1167 25.2926 50.4824 27.4627C50.233 26.5059 50.2058 25.6187 50.1787 24.7261C50.1408 23.625 50.4715 22.4705 49.6366 21.471V21.4657ZM47.6196 30.5628C46.8172 30.675 46.5461 30.3757 46.7196 29.5846C46.8931 28.7829 47.0016 27.9651 47.1046 27.1527C47.1859 26.4792 47.5275 26.2334 48.2106 26.2173C48.9263 26.2013 49.3384 26.4311 49.4251 27.1527C49.5281 27.9651 49.5661 28.7989 49.7721 29.59C49.9998 30.4773 49.7179 30.7231 48.8667 30.5735C48.6661 30.536 48.4492 30.5735 48.2432 30.5735C48.0371 30.5735 47.8203 30.5467 47.6196 30.5735V30.5628ZM45.169 21.6901C44.9304 21.5191 45.0118 21.1824 45.0118 20.9098C45.0118 19.023 45.0335 17.1362 44.9955 15.2495C44.9847 14.5332 45.2449 14.2767 45.9714 14.2927C46.6491 14.3034 47.0016 14.4584 46.9853 15.2174C46.9473 17.2057 47.4407 19.349 46.8443 21.145C46.1395 23.2616 46.7955 25.4049 45.9931 27.436C45.6353 26.0677 45.6298 24.678 45.6461 23.2829C45.6461 22.7164 45.7654 22.1177 45.1744 21.6901H45.169ZM41.8671 25.0254C41.8021 25.779 41.737 26.5113 41.5418 27.3718C41.0918 25.8752 41.2653 24.4695 41.2273 23.0798C41.2165 22.6041 41.2816 22.1177 40.8153 21.765C40.5334 21.5565 40.5984 21.2037 40.5984 20.8991C40.593 18.6328 40.6093 16.3666 40.5767 14.1003C40.5659 13.3627 40.799 13.0634 41.5906 13.0687C42.4147 13.0687 42.5828 13.4429 42.5774 14.1484C42.5557 16.3826 42.572 18.6114 42.5665 20.8456C42.5665 21.0862 42.6262 21.4282 42.4961 21.5458C41.3683 22.556 41.9593 23.8602 41.8617 25.0307L41.8671 25.0254ZM37.2478 22.7057C37.2369 22.107 37.3833 21.455 36.6351 21.1022C36.3586 20.9739 36.4236 20.6158 36.4236 20.3486C36.4236 17.8097 36.4236 15.2708 36.4182 12.7373C36.4182 12.2509 36.4345 11.8554 37.1393 11.9196C37.7086 11.973 38.0176 12.0746 38.0122 12.7427C37.9797 15.4846 38.2562 18.264 37.8875 20.9579C37.7032 22.3262 37.3833 23.7052 37.2532 25.0682C37.2532 24.2824 37.264 23.4914 37.2532 22.7057H37.2478ZM26.5777 26.6342C25.8078 25.9127 26.0734 24.8062 25.9813 23.6197C27.9277 25.2285 29.7115 26.6877 31.4735 28.1682C31.8368 28.4729 31.7988 30.0443 31.4844 30.365C31.2512 30.6002 31.0994 30.3864 30.9585 30.2741C29.4837 29.0715 27.9602 27.9277 26.5777 26.6289V26.6342ZM29.7494 30.5521C26.8271 30.504 27.0331 31.0011 26.6807 27.9865C27.7704 28.9005 28.7084 29.6809 29.7494 30.5521ZM31.5549 26.9923C29.8145 25.5652 27.906 24.2771 26.4367 22.6202C25.8023 21.9039 24.6854 20.8563 25.3849 19.3651C27.6186 21.2144 29.8307 23.0371 32.0374 24.8704C32.4115 25.1804 32.4223 26.7091 32.0916 27.0725C31.8639 27.313 31.6958 27.1046 31.5603 26.9923H31.5549ZM21.1504 23.3204C21.1504 22.7484 21.2426 22.1551 20.6842 21.7115C20.4239 21.5084 20.5107 21.1343 20.5107 20.8296C20.5107 18.1838 20.5052 15.5381 20.5107 12.8923C20.5107 12.3792 20.4185 11.8608 21.2751 11.8714C22.1101 11.8821 22.1318 12.3258 22.1264 12.9351C22.1101 15.3403 22.1209 17.7456 22.1155 20.1508C22.1155 20.5944 22.1535 21.0327 21.6276 21.2946C21.2318 21.487 21.248 21.92 21.248 22.2995C21.248 23.3631 21.248 24.4268 21.248 25.4904C21.2155 25.4904 21.183 25.4851 21.1504 25.4797C21.1504 24.7581 21.1504 24.0366 21.1504 23.3204ZM17.2901 23.3043C17.263 24.6673 17.3877 26.0409 16.9865 27.4627C16.5907 26.0784 16.7534 24.7368 16.7208 23.4112C16.7046 22.7965 16.7534 22.1819 16.2654 21.6688C16.016 21.4069 16.0756 21.022 16.0756 20.6799C16.0756 18.5152 16.0756 16.3505 16.0648 14.1858C16.0648 13.5284 16.1461 13.0687 17.0136 13.0634C17.9136 13.0634 17.9299 13.5658 17.9245 14.1965C17.9136 15.8802 17.9461 17.5638 17.9082 19.2475C17.8865 20.2791 18.1901 21.3641 17.3877 22.2941C17.2088 22.5026 17.301 22.9569 17.2955 23.299L17.2901 23.3043ZM11.684 21.6848C11.4563 21.5084 11.5376 21.1717 11.5322 20.8991C11.5322 19.0123 11.5539 17.1255 11.5213 15.2441C11.5105 14.5172 11.8033 14.2927 12.5081 14.2927C13.2021 14.2927 13.522 14.4905 13.5057 15.2281C13.4677 17.1149 13.9232 19.1299 13.381 20.851C12.725 22.9409 13.24 25.0842 12.5135 27.3023C12.1611 25.8378 12.134 24.5604 12.1502 23.2776C12.1557 22.7057 12.2478 22.1124 11.684 21.6794V21.6848ZM7.25436 21.6367C7.1134 21.5138 7.12424 21.1877 7.12424 20.9525C7.1134 19.3758 7.12966 17.799 7.1134 16.2222C7.10798 15.6396 7.29232 15.3296 7.94836 15.3403C8.54475 15.351 8.96765 15.4365 8.96223 16.1635C8.94054 17.8097 9.35802 19.5842 8.8538 21.0648C8.11101 23.2402 8.82126 25.4904 8.00799 27.468C7.7857 26.2494 7.7098 24.9025 7.74233 23.5448C7.75859 22.8767 7.87245 22.1765 7.25436 21.6313V21.6367ZM8.84837 29.0288C8.94054 28.4194 9.08151 27.8155 9.13573 27.2008C9.20079 26.4792 9.5261 26.1959 10.2743 26.2227C10.9846 26.2494 11.3912 26.4472 11.4291 27.2061C11.4617 27.7834 11.581 28.3606 11.6731 28.9379C11.8502 30.0283 11.393 30.5699 10.3014 30.5628C10.2689 30.5628 10.2309 30.5628 10.1984 30.5628C9.14296 30.5592 8.69114 30.0479 8.84295 29.0288H8.84837ZM10.0412 15.9283C10.0412 15.7359 10.0574 15.474 10.3556 15.5167C10.5725 15.5434 10.5671 15.7679 10.5671 15.9283C10.5671 17.7028 10.5671 19.4773 10.5671 21.2519C10.5671 21.4175 10.5671 21.6367 10.3556 21.6634C10.0574 21.7008 10.0466 21.4389 10.0412 21.2465C10.0303 20.3272 10.0412 19.4025 10.0412 18.4832C10.0412 17.628 10.0357 16.7781 10.0412 15.9229V15.9283ZM10.2635 22.7591C11.3207 22.6629 11.2502 23.3578 11.2069 23.9992C11.2665 24.6887 11.1852 25.1911 10.3123 25.1804C8.92428 25.1644 9.46104 24.0793 9.31465 23.4326C9.13573 22.6629 9.78634 22.8019 10.2635 22.7591ZM13.3702 28.986C13.4515 28.4462 13.5708 27.9063 13.5924 27.3665C13.6141 26.6503 13.7985 26.228 14.6551 26.212C15.4847 26.1906 15.8588 26.4792 15.9238 27.2863C15.9672 27.8636 16.119 28.4301 16.2003 29.002C16.4172 30.5628 16.4118 30.5628 14.7744 30.5628C13.6828 30.5628 13.2147 30.039 13.3702 28.9914V28.986ZM14.9913 21.2465C14.9913 21.4336 14.9858 21.7008 14.6822 21.6581C14.4708 21.626 14.4762 21.4069 14.4762 21.2412C14.4762 19.1246 14.4708 17.008 14.4762 14.8914C14.4762 14.7257 14.4762 14.5065 14.6876 14.4798C14.9858 14.4424 14.9967 14.7043 14.9967 14.8967C15.0075 15.955 14.9967 17.0133 14.9967 18.0716C14.9967 19.1299 15.0021 20.1882 14.9967 21.2465H14.9913ZM14.7364 22.7484C15.7286 22.7431 15.631 23.3631 15.6527 23.9885C15.6744 24.678 15.6039 25.2018 14.6768 25.1804C13.6521 25.159 13.8635 24.4642 13.8202 23.6571C13.7768 23.2188 13.8581 22.7484 14.7419 22.7484H14.7364ZM17.7998 29.157C17.8702 28.5477 17.9895 27.9437 18.06 27.3291C18.1413 26.5701 18.4612 26.1906 19.3233 26.2173C20.1908 26.244 20.3697 26.7144 20.4131 27.3932C20.4619 28.0987 20.5974 28.7829 20.5107 29.5259C20.4022 30.4666 20.0661 30.83 19.2636 30.6162C17.6534 30.6429 17.6317 30.6269 17.8052 29.157H17.7998ZM19.1389 13.2986C19.1389 13.2986 19.1986 13.2665 19.4751 13.1115C19.4751 15.9924 19.4751 18.729 19.4751 21.471C19.4751 21.61 19.3992 21.7436 19.2365 21.7489C19.063 21.7543 18.9817 21.6153 18.9871 21.4763C19.1064 18.7504 18.8245 16.0191 19.1444 13.2986H19.1389ZM19.204 22.7431C20.1799 22.7431 20.2884 23.2348 20.1908 23.9724C20.2884 24.7207 20.1582 25.2018 19.1932 25.2018C18.1522 25.2018 18.2606 24.5711 18.2389 23.9083C18.2172 23.2188 18.2769 22.7484 19.204 22.7431ZM21.7685 28.1415C21.8065 27.9063 21.8336 27.6658 21.877 27.4306C22.1968 25.8271 22.2023 25.8913 23.8776 25.8111C24.9077 25.7577 25.3144 26.1425 25.4282 27.0992C25.5367 28.0132 25.7047 28.9272 25.927 29.8252C26.106 30.536 25.8511 30.6697 25.2059 30.5895C24.7613 30.536 24.3059 30.5788 23.8505 30.5788C22.1986 30.5681 21.5047 29.7575 21.7685 28.1468V28.1415ZM23.124 12.8122C23.124 12.3846 23.0643 11.9356 23.6824 11.9196C24.3818 11.9035 24.1866 12.4541 24.1921 12.8175C24.2137 14.0522 24.1975 15.2922 24.1975 16.5269C24.1975 17.799 24.1975 19.0711 24.1975 20.3379C24.1975 20.7548 24.2137 21.2305 23.5794 21.177C23.0155 21.1289 23.1185 20.7013 23.124 20.3218C23.1348 17.8204 23.1348 15.3136 23.124 12.8122ZM23.6661 22.1498C24.5987 22.1534 25.065 22.6059 25.065 23.5074C25.065 24.4089 24.5788 24.8757 23.6065 24.9078C22.6342 24.9399 22.1715 24.4481 22.2185 23.4326C22.2185 22.5703 22.7011 22.1409 23.6661 22.1445V22.1498ZM25.5746 18.2694C24.7668 17.5692 25.3794 16.5162 25.1409 15.6396C25.5584 15.5541 25.7156 15.8374 25.8891 16.0031C27.6674 17.6868 29.6681 19.1139 31.5765 20.6372C32.7151 21.5405 32.5579 22.6309 32.4928 24.0259C30.0693 22.0215 27.7813 20.1882 25.5692 18.264L25.5746 18.2694ZM25.6885 14.5974C24.8915 13.9346 25.1355 12.9939 25.2547 12.2082C25.3415 11.6683 25.8186 12.1815 26.0084 12.3365C27.4614 13.507 28.8819 14.7043 30.3187 15.8962C30.85 16.3398 31.3271 16.869 31.9181 17.2057C33.3603 18.0235 33.6206 19.2368 33.2736 20.8617C30.682 18.7237 28.1771 16.6659 25.6885 14.5974ZM27.1469 12.0425C30.503 11.1606 33.7236 13.7582 33.2573 17.1149C31.1482 15.3671 29.1747 13.7262 27.1469 12.0425ZM32.9645 28.1362C32.9916 28.0025 33.0187 27.8689 33.0404 27.7353C33.382 25.7523 33.729 25.5225 35.7676 25.8485C36.1688 25.9127 36.4074 26.0944 36.4833 26.4739C36.7001 27.6177 36.9008 28.7615 37.1231 29.9C37.2152 30.3917 37.0417 30.6002 36.5267 30.5735C36.0062 30.5467 35.4857 30.5681 34.9652 30.5681C33.3206 30.561 32.6555 29.7503 32.97 28.1362H32.9645ZM34.8459 11.9249C35.3827 11.9196 35.4694 12.2242 35.4694 12.6572C35.464 15.2602 35.4694 17.8631 35.4694 20.4715C35.4694 20.8296 35.4369 21.177 34.9435 21.1931C34.3959 21.2144 34.3417 20.8456 34.3417 20.4394C34.3417 19.1032 34.3417 17.7669 34.3417 16.4307C34.3417 15.196 34.3362 13.9613 34.3417 12.732C34.3417 12.3739 34.2387 11.9356 34.8567 11.9302L34.8459 11.9249ZM34.9326 22.1498C35.8507 22.1498 36.3098 22.6059 36.3098 23.5181C36.3098 24.441 35.8218 24.9025 34.8459 24.9025C33.917 24.9025 33.4525 24.4481 33.4525 23.5395C33.4525 22.613 33.9441 22.1498 34.9272 22.1498H34.9326ZM38.1911 26.9282C38.2616 26.2334 38.8201 26.228 39.3677 26.228C39.9099 26.228 40.3436 26.3403 40.4358 26.9549C40.5876 27.9384 40.7502 28.9165 40.8695 29.9C40.9508 30.5681 40.9237 30.5681 39.4056 30.5574C38.4405 30.8354 38.099 30.2902 38.0122 29.2693C37.9472 28.4675 38.1098 27.7032 38.1857 26.9282H38.1911ZM39.0586 17.5478C39.0586 17.5478 39.0803 17.5478 39.0912 17.5478C39.0912 16.281 39.0857 15.0196 39.0966 13.7529C39.0966 13.5444 39.0586 13.197 39.4273 13.2504C39.6821 13.2879 39.6333 13.5711 39.6333 13.7689C39.6333 16.265 39.6225 18.7611 39.6171 21.2572C39.6171 21.4603 39.6496 21.7276 39.3839 21.7543C39.0207 21.7863 39.0641 21.4817 39.0641 21.2465C39.0641 20.0172 39.0641 18.7878 39.0641 17.5585L39.0586 17.5478ZM39.2484 22.7378C40.1864 22.7324 40.387 23.1493 40.2731 23.903C40.3382 24.6352 40.3111 25.1911 39.3135 25.1964C38.3104 25.1964 38.3213 24.6352 38.3267 23.935C38.3267 23.2829 38.2887 22.7431 39.2538 22.7378H39.2484ZM42.3226 29.2372C42.4364 28.5263 42.6045 27.8208 42.6479 27.1046C42.6967 26.367 43.0816 26.2066 43.7431 26.2173C44.3991 26.228 44.8816 26.2868 44.925 27.126C44.9684 27.9758 45.1202 28.8257 45.31 29.6648C45.4889 30.4719 45.2286 30.7392 44.4262 30.5681C44.2581 30.5307 44.0792 30.5681 43.9057 30.5681C43.7648 30.5681 43.6292 30.5681 43.4882 30.5681C42.1274 30.5574 42.1165 30.5414 42.3226 29.2479V29.2372ZM43.5316 15.0517C43.5316 14.8272 43.4774 14.5546 43.7973 14.4477C44.1117 14.5546 44.063 14.8219 44.063 15.0517C44.0684 17.0454 44.0684 19.039 44.063 21.0274C44.063 21.2519 44.1443 21.6153 43.8461 21.642C43.4069 21.6794 43.5425 21.2625 43.537 21.0274C43.5208 19.0337 43.5262 17.04 43.537 15.0517H43.5316ZM43.819 22.7378C44.8112 22.7431 44.6919 23.3631 44.7081 23.9831C44.7244 24.6512 44.6973 25.1911 43.7593 25.1804C42.7888 25.1697 42.8593 24.555 42.8756 23.8548C42.8214 23.2509 42.8864 22.7324 43.819 22.7431V22.7378ZM47.9395 16.0779C47.9395 15.8534 47.8745 15.5809 48.2052 15.4793C48.5142 15.5862 48.4709 15.8534 48.4763 16.0833C48.4817 17.7349 48.4871 19.3811 48.4763 21.0327C48.4763 21.2679 48.5847 21.6848 48.1564 21.642C47.8528 21.6153 47.9504 21.2519 47.945 21.0274C47.9341 19.3758 47.9395 17.7295 47.945 16.0779H47.9395ZM48.3082 22.7324C49.2245 22.7591 49.3546 23.1921 49.2353 23.8067C49.2625 24.5657 49.3709 25.2018 48.3082 25.1911C47.3377 25.1804 47.2727 24.6833 47.2781 23.9511C47.2781 23.2295 47.3106 22.7057 48.3082 22.7324ZM52.8896 25.1751C51.7565 25.3194 51.7294 24.6726 51.7999 23.8762C51.789 23.3952 51.4637 22.7164 52.4342 22.7591C52.9927 22.7859 53.7463 22.5881 53.6487 23.5235C53.5836 24.1274 54.1258 25.02 52.8896 25.1751ZM26.0355 2.52846C28.2205 2.51243 30.4109 2.51243 32.5958 2.52846C32.8832 2.52846 33.3928 2.41622 33.3983 2.76898C33.3983 3.27141 32.8615 3.05227 32.5687 3.05227C30.3458 3.07365 28.1229 3.06296 25.9053 3.05227C25.6451 3.05227 25.3469 3.14848 25.0704 2.83847C25.3306 2.41622 25.7156 2.52846 26.0355 2.52846ZM33.9567 4.43661H24.4903C25.1029 3.87005 33.0675 3.78987 33.9567 4.43661ZM34.5097 5.59647C33.9676 6.02406 25.8945 6.1951 23.9264 5.59647H34.5097ZM23.5848 6.98081H34.9381C34.9381 7.02892 34.9381 7.07702 34.9381 7.11978H23.5848C23.5848 7.07168 23.5848 7.02357 23.5848 6.98081ZM3.66514 15.4045C3.00368 15.4045 3.17175 14.7684 3.15549 14.3569C3.10669 12.6678 3.11753 12.6946 4.83624 12.6572C5.74711 12.6358 6.72303 12.9565 7.36822 11.7913C7.63389 11.3102 8.61524 11.6897 9.26585 11.6095C10.1659 11.5133 11.2557 11.989 11.749 10.7169C11.8412 10.4818 12.2587 10.5673 12.5298 10.5619C13.2942 10.5512 14.0641 10.5566 14.8286 10.5512C15.4142 10.5512 15.9618 10.5031 16.0485 9.74416C16.0973 9.30052 16.4823 9.37535 16.7805 9.37001C17.5449 9.35932 18.3148 9.35932 19.0793 9.37001C19.7625 9.37535 20.4239 9.42346 20.5595 8.48809C20.6191 8.09791 21.0257 8.13532 21.3348 8.13532C26.5939 8.13532 31.8585 8.13532 37.1176 8.13532C37.4592 8.13532 37.8821 8.08722 37.9634 8.54154C38.099 9.32725 38.6357 9.39139 39.2809 9.37001C39.9424 9.34863 40.6038 9.35932 41.2653 9.37001C41.8725 9.37535 42.5394 9.215 42.6695 10.1557C42.7183 10.5299 43.2009 10.5406 43.5533 10.5459C44.2148 10.5619 44.8762 10.5566 45.5377 10.5566C46.1937 10.5566 46.866 10.439 47.1425 11.3049C47.2455 11.6202 47.663 11.6042 47.9775 11.6095C48.6769 11.6202 49.3709 11.6256 50.0703 11.6149C50.7047 11.6095 51.3282 11.5561 51.6101 12.3365C51.7294 12.6625 52.1143 12.6625 52.4288 12.6678C52.9872 12.6732 53.5511 12.7213 54.0987 12.6572C55.1288 12.5396 55.5246 12.9779 55.3728 13.9453C55.2915 14.4638 55.6981 15.3617 54.8523 15.3777C54.0228 15.3938 52.8842 16.1314 52.3258 14.8005C52.1794 14.4531 51.8541 14.4317 51.5342 14.4263C50.8022 14.421 50.0703 14.4156 49.3384 14.4156C48.6877 14.4156 47.9938 14.56 47.7715 13.6513C47.701 13.3573 47.316 13.3841 47.0395 13.3787C46.3401 13.3734 45.6461 13.3787 44.9467 13.368C44.269 13.368 43.5316 13.5337 43.3419 12.5235C43.2714 12.1547 42.7943 12.1654 42.4418 12.1654C41.5364 12.1601 40.631 12.1547 39.7255 12.1601C39.3406 12.1601 39.0261 12.1066 38.9881 11.6416C38.9394 11.0537 38.5327 10.9414 38.0285 10.9414C32.2109 10.9414 26.3933 10.9414 20.5757 10.9468C20.2233 10.9468 19.7353 10.9468 19.6811 11.3156C19.5239 12.3632 18.7648 12.1494 18.098 12.1601C17.4365 12.1708 16.775 12.1708 16.1136 12.1601C15.5822 12.1547 15.1377 12.2563 15.013 12.8656C14.9262 13.2986 14.6009 13.368 14.2268 13.368C13.5653 13.368 12.9039 13.368 12.2424 13.368C11.5322 13.3734 10.7514 13.1863 10.4695 14.1805C10.3882 14.4691 9.99237 14.405 9.72128 14.405C8.95681 14.4157 8.18691 14.405 7.42244 14.405C6.86942 14.405 6.47905 14.4638 6.08868 15.0731C5.55734 15.8909 4.48925 15.3938 3.66514 15.3938V15.4045ZM5.86096 22.7378C6.78809 22.7431 6.84231 23.2241 6.82604 23.9083C6.80978 24.5818 6.8911 25.1911 5.86096 25.1911C4.88504 25.1911 4.7766 24.694 4.86877 23.9511C4.76576 23.2081 4.88504 22.7217 5.86096 22.7324V22.7378ZM6.17543 21.177C6.17543 21.4122 6.18627 21.7062 5.86096 21.7329C5.51939 21.765 5.49228 21.4763 5.48686 21.2358C5.48144 19.798 5.48686 18.3656 5.48686 16.9278C5.48686 16.7193 5.53566 16.4841 5.7959 16.4681C6.13747 16.4467 6.16458 16.73 6.16458 16.9705C6.17543 17.6868 6.16458 18.4083 6.16458 19.1246C6.16458 19.8087 6.16458 20.4929 6.16458 21.177H6.17543ZM4.41334 29.0662C4.48383 28.521 4.58684 27.9812 4.63022 27.436C4.68443 26.7037 4.8742 26.2227 5.79048 26.212C6.67965 26.2013 6.9399 26.6235 7.02123 27.3718C7.09713 28.0881 7.15135 28.815 7.33027 29.5045C7.56341 30.381 7.35196 30.7498 6.39772 30.5681C6.19711 30.5307 5.98024 30.5628 5.77421 30.5628C4.74046 30.5628 4.28683 30.0639 4.41334 29.0662ZM3.58381 37.5647C3.71935 36.3086 3.86574 35.0472 4.01213 33.7911C4.0555 33.4063 4.32659 33.294 4.67901 33.2887C6.20796 33.2887 7.73691 33.294 9.26585 33.278C9.79177 33.278 10.0303 33.5453 10.09 34.0103C10.2526 35.2289 10.4044 36.4529 10.5508 37.6716C10.6105 38.19 10.2743 38.313 9.83514 38.3076C8.89717 38.3076 7.9592 38.3076 7.02123 38.3076C6.11579 38.3076 5.21577 38.2969 4.31033 38.3076C3.77357 38.313 3.52959 38.0671 3.58381 37.5593V37.5647ZM3.23139 40.1997C3.28561 39.7133 3.3832 39.243 4.07177 39.2483C6.08868 39.2644 8.10559 39.259 10.1225 39.259C10.6972 39.259 10.7948 39.6171 10.7948 40.0821C10.7948 40.5472 10.6105 40.7877 10.1225 40.7877C9.08151 40.7877 8.0351 40.7877 6.99412 40.7877C6.0182 40.7877 5.04769 40.793 4.07177 40.7877C3.66514 40.7877 3.15549 40.8572 3.23139 40.2051V40.1997ZM11.1581 43.0593C9.73213 43.0593 8.30619 43.0593 6.88026 43.0593C5.52481 43.0593 4.16936 43.0593 2.80849 43.0593C2.30969 43.0593 1.90305 43.0165 1.91932 42.3644C1.93558 41.7712 2.32053 41.7284 2.77054 41.7284C5.58987 41.7284 8.40379 41.7284 11.2231 41.7284C11.684 41.7284 12.0635 41.8032 12.0743 42.3805C12.0852 43.0326 11.6514 43.07 11.1635 43.0646L11.1581 43.0593ZM45.4835 42.0384C45.6027 42.8882 45.207 43.086 44.4154 43.0807C34.2766 43.0593 24.1378 43.0539 14.0045 43.0807C13.1533 43.0807 13.0123 42.7279 13.0394 42.0437C13.0611 41.4398 13.1912 40.7556 12.199 40.7396C11.7978 40.7342 11.7816 40.3547 11.749 40.034C11.5322 37.9549 11.3044 35.8757 11.0876 33.7911C10.952 32.4763 10.8328 32.3587 9.48272 32.3587C8.01884 32.3587 6.55495 32.364 5.09107 32.3426C4.73865 32.3426 4.1531 32.5137 4.12599 32.0219C4.09346 31.3966 4.73323 31.605 5.09649 31.5997C12.1665 31.5837 19.242 31.589 26.312 31.589C27.3204 31.589 28.3343 31.589 29.3428 31.589C37.2532 31.589 45.1582 31.589 53.0686 31.589C53.2421 31.589 53.421 31.573 53.5891 31.589C53.9144 31.6211 54.4077 31.4928 54.3969 31.9845C54.3861 32.4709 53.8818 32.3426 53.5674 32.348C51.9625 32.364 50.3631 32.3801 48.7582 32.348C47.9938 32.332 47.6305 32.5671 47.5546 33.3796C47.3431 35.5977 47.0449 37.8052 46.7847 40.018C46.7467 40.3227 46.7847 40.7235 46.3672 40.7449C45.4455 40.7877 45.3913 41.3703 45.4835 42.0331V42.0384ZM55.7144 43.0593C54.321 43.0539 52.933 43.0593 51.5396 43.0593C50.1462 43.0593 48.7582 43.0593 47.3648 43.0593C46.8877 43.0593 46.4323 43.0433 46.4377 42.3858C46.4431 41.7284 46.9094 41.7284 47.3811 41.7284C50.1625 41.7284 52.9493 41.7284 55.7307 41.7284C56.1752 41.7284 56.571 41.7658 56.5927 42.3591C56.6198 43.0058 56.2132 43.07 55.7144 43.0646V43.0593Z" class="colorFF7577 svgShape"></path><path fill="#6334fa" d="M29.3699 40.4296C25.6126 40.4296 21.8553 40.4456 18.098 40.4135 17.5775 40.4135 16.6612 40.6808 16.6829 39.8577 16.7046 39.1682 17.5775 39.4087 18.0817 39.4087 25.5638 39.3926 33.0513 39.398 40.5334 39.4087 41.043 39.4087 41.8997 39.1788 41.8997 39.9111 41.8997 40.654 41.0484 40.4028 40.5388 40.4028 36.814 40.4189 33.0892 40.4135 29.3645 40.4135V40.4242L29.3699 40.4296zM29.3319 34.021C32.6718 34.021 36.0116 34.021 39.3568 34.021 39.6713 34.021 39.9858 34.0263 40.2948 34.0798 40.5388 34.1172 40.7665 34.2454 40.7665 34.5448 40.7665 34.8601 40.5388 34.951 40.2785 34.9617 39.8611 34.9777 39.4436 34.9777 39.0315 34.9777 34.5857 35.0098 30.1344 35.0472 25.6885 35.0579 23.3951 35.0632 21.1016 35.0151 18.8082 34.9937 18.3962 34.9937 17.8377 35.09 17.8269 34.5287 17.816 33.9622 18.4016 34.0316 18.7974 34.0316 22.3107 34.021 25.8294 34.0263 29.3428 34.021H29.3319zM29.1747 42.1506C25.309 42.1506 21.4432 42.1506 17.5775 42.1506 17.301 42.1506 17.019 42.1506 16.7425 42.14 16.4606 42.1239 16.1353 42.0972 16.1136 41.7444 16.0919 41.3275 16.4497 41.2794 16.7696 41.2527 17.0136 41.2313 17.2576 41.2367 17.5016 41.2367 25.3361 41.2367 33.1706 41.2313 41.0051 41.2473 41.4984 41.2473 42.3768 40.9587 42.3605 41.7124 42.3442 42.4393 41.4713 42.1346 40.9779 42.14 37.0417 42.1667 33.1109 42.156 29.1747 42.156V42.1506zM29.3753 37.6983C32.9916 37.6983 36.6134 37.6983 40.2297 37.6983 40.5062 37.6983 40.7882 37.6983 41.0647 37.725 41.3195 37.7517 41.5527 37.8533 41.531 38.1633 41.5147 38.4038 41.3249 38.5214 41.1081 38.5481 40.837 38.5909 40.555 38.6069 40.2785 38.6069 32.9374 38.6069 25.5963 38.6069 18.2552 38.6069 18.1142 38.6069 17.9733 38.6123 17.8377 38.5962 17.4961 38.5642 17.0299 38.5962 17.0244 38.1526 17.0136 37.5914 17.5449 37.7036 17.8919 37.6983 21.7197 37.6876 25.5475 37.6929 29.3753 37.6876V37.6983zM29.3753 35.8543C32.8561 35.8543 36.3369 35.8543 39.8177 35.8543 40.1321 35.8543 40.4466 35.8543 40.7557 35.9024 40.9725 35.9345 41.146 36.0681 41.1514 36.3086 41.1569 36.5545 40.9942 36.6988 40.7773 36.7309 40.4683 36.7736 40.1538 36.7843 39.8394 36.7843 32.8073 36.7843 25.7752 36.7896 18.7432 36.7736 18.2715 36.7736 17.469 37.0141 17.4582 36.33 17.4473 35.6244 18.2606 35.8703 18.7269 35.8703 22.2782 35.8489 25.8294 35.8596 29.3807 35.8596L29.3753 35.8543zM29.3807 32.3373C32.726 32.3373 36.0712 32.3373 39.411 32.3426 39.758 32.3426 40.3219 32.1769 40.349 32.7008 40.3816 33.2834 39.7906 33.2192 39.4002 33.2192 32.6446 33.2299 25.8837 33.2246 19.1281 33.2192 18.7594 33.2192 18.2335 33.2513 18.2389 32.7489 18.2389 32.1983 18.7974 32.3426 19.1389 32.3426 22.5547 32.3266 25.965 32.332 29.3807 32.332V32.3373z" class="colorFF7577 svgShape"></path></svg></g></svg>