<svg id="Icons" viewBox="0 0 60 60" xmlns="http://www.w3.org/2000/svg"><path d="m3.5 55.86c-.37.42-.07 1.09.5 1.11 3.7.19 7.43-.64 10.78-2.28 4.42 2.74 9.64 4.31 15.22 4.31 16.02 0 29-12.98 29-29s-12.98-29-29-29-29 12.98-29 29c0 6.94 2.43 13.3 6.5 18.29-.82 2.81-2.21 5.49-4 7.57z" fill="#3e9ddd"/><path d="m28 17.02v-4c0-1.11.9-2.02 2-2.02.55 0 1.05.22 1.41.59.37.37.59.87.59 1.43v4z" fill="#adbfc4"/><path d="m36 20.02v2h-12v-2c0-2.21 2.69-4 6-4s6 1.79 6 4z" fill="#bdccd1"/><path d="m13.34 39.02h-1.34c-2.21 0-4-1.79-4-4v-6c0-2.21 1.79-4 4-4h1.34z" fill="#bdccd1"/><path d="m46.66 25.02h1.34c2.21 0 4 1.79 4 4v6c0 2.21-1.79 4-4 4h-1.34z" fill="#bdccd1"/><rect fill="#d8e1e5" height="24" rx="10" width="36" x="12" y="20.02"/><rect fill="#203b51" height="14" rx="7" width="28" x="16" y="25.02"/><g fill="#3e9ddd"><circle cx="22" cy="32.02" r="2"/><circle cx="38" cy="32.02" r="2"/><path d="m30 36.02c-1.475 0-2.474-.908-2.832-1.445-.307-.459-.183-1.08.277-1.387.453-.303 1.068-.186 1.379.265.03.042.432.567 1.176.567.764 0 1.164-.55 1.168-.555.305-.459.928-.584 1.387-.277.46.307.584.928.277 1.387-.358.537-1.357 1.445-2.832 1.445z"/></g></svg>