<svg id="SvgjsSvg1100" width="288" height="288" xmlns="http://www.w3.org/2000/svg" version="1.1" xmlns:xlink="http://www.w3.org/1999/xlink" xmlns:svgjs="http://svgjs.com/svgjs"><defs id="SvgjsDefs1101"></defs><g id="SvgjsG1102"><svg xmlns="http://www.w3.org/2000/svg" fill="none" viewBox="0 0 36 44" width="288" height="288"><path fill="#6334fa" d="M22.7921 44C22.4215 44 22.1206 43.7352 22.1206 43.4089C22.1206 43.0825 22.4215 42.8177 22.7921 42.8177H33.3166V17.0155H2.67265V42.8177H13.2025C13.5732 42.8177 13.874 43.0825 13.874 43.4089C13.874 43.7352 13.5732 44 13.2025 44H2.00648C1.63579 44 1.33493 43.7352 1.33493 43.4089V16.4291C1.33493 16.1027 1.63579 15.8379 2.00648 15.8379H33.9935C34.3642 15.8379 34.6651 16.1027 34.6651 16.4291V43.4089C34.6651 43.7352 34.3642 44 33.9935 44H22.7921Z" class="color0374B2 svgShape"></path><path fill="#6334fa" d="M26.816 44C26.4453 44 26.1445 43.7352 26.1445 43.4089V29.1126C26.1445 25.6178 23.1843 22.577 19.2625 22.0426 18.8972 21.9905 18.6501 21.6926 18.7038 21.371 18.7575 21.0494 19.1013 20.8272 19.4667 20.8792 24.0385 21.5034 27.4822 25.0456 27.4822 29.1126V43.4089C27.4822 43.7352 27.1814 44 26.8107 44H26.816zM9.18395 44C8.81326 44 8.51241 43.7352 8.51241 43.4089V29.1126C8.51241 25.0456 11.9615 21.5034 16.528 20.8792 16.8933 20.8272 17.2371 21.0494 17.2908 21.371 17.3499 21.6926 17.0974 21.9953 16.7321 22.0426 12.8049 22.5817 9.85013 25.6225 9.85013 29.1126V43.4089C9.85013 43.7352 9.54927 44 9.17858 44H9.18395zM2.00648 17.0202C1.71637 17.0202 1.46387 16.8594 1.37254 16.6182L.0348235 13.0525C-.0350172 12.8727.00258939 12.6741.126154 12.5228.249718 12.3715.453868 12.2769.668762 12.2769H35.3312C35.5461 12.2769 35.7449 12.3667 35.8738 12.5228 35.9974 12.6741 36.035 12.8727 35.9652 13.0525L34.6275 16.6182C34.5361 16.8594 34.2783 17.0202 33.9935 17.0202H2.00648zM2.48462 15.8426H33.5046L34.4018 13.4544H1.59281L2.48999 15.8426H2.48462z" class="color0374B2 svgShape"></path><path fill="#6334fa" d="M19.3646 23.2201H16.6354C16.2647 23.2201 15.9639 22.9553 15.9639 22.629V20.0989C15.9639 19.7726 16.2647 19.5077 16.6354 19.5077H19.3646C19.7353 19.5077 20.0361 19.7726 20.0361 20.0989V22.629C20.0361 22.9553 19.7353 23.2201 19.3646 23.2201zM17.3016 22.0426H18.693V20.6948H17.3016V22.0426zM22.7921 44C22.4215 44 22.1206 43.7352 22.1206 43.4089L22.1206 29.1174C22.1206 27.1122 20.2671 25.4807 17.9946 25.4807 15.7221 25.4807 13.8687 27.1122 13.8687 29.1174V43.4089C13.8687 43.7352 13.5678 44 13.1971 44 12.8264 44 12.5256 43.7352 12.5256 43.4089V29.1174C12.5256 26.4643 14.9754 24.3031 17.9893 24.3031 21.0031 24.3031 23.4529 26.4596 23.4529 29.1174V43.4089C23.4529 43.7352 23.1521 44 22.7814 44H22.7921zM2.00648 13.2227C1.63579 13.2227 1.33493 12.9579 1.33493 12.6316V10.3947C1.33493 10.0684 1.63579 9.80352 2.00648 9.80352H33.9935C34.3642 9.80352 34.6651 10.0684 34.6651 10.3947V12.6316C34.6651 12.9579 34.3642 13.2227 33.9935 13.2227H2.00648zM2.67265 12.0451H33.322V10.9858H2.67265V12.0451z" class="color0374B2 svgShape"></path><path fill="#6334fa" d="M2.00648 10.7494C1.63579 10.7494 1.33493 10.4845 1.33493 10.1582V7.92132C1.33493 7.59501 1.63579 7.33018 2.00648 7.33018H33.9935C34.3642 7.33018 34.6651 7.59501 34.6651 7.92132V10.1582C34.6651 10.4845 34.3642 10.7494 33.9935 10.7494H2.00648ZM2.67265 9.5718H33.322V8.51247H2.67265V9.5718Z" class="color0374B2 svgShape"></path><path fill="#6334fa" d="M28.4224 8.28074H7.57762C7.20693 8.28074 6.90607 8.01591 6.90607 7.6896V5.11221C6.90607 4.7859 7.20693 4.52107 7.57762 4.52107H28.4224C28.7931 4.52107 29.0939 4.7859 29.0939 5.11221V7.6896C29.0939 8.01591 28.7931 8.28074 28.4224 8.28074ZM8.24379 7.10318H27.7508V5.70335H8.24379V7.10318Z" class="color0374B2 svgShape"></path><path fill="#6334fa" d="M25.113 5.69862H10.8816C10.5109 5.69862 10.2101 5.43379 10.2101 5.10748V1.32889C10.2101 1.135 10.3175.955288 10.4948.846518 10.6721.737747 10.9031.709373 11.1073.775581L14.2393 1.78289C15.0667.685727 16.4796 0 17.9893 0 19.4989 0 20.9172.685727 21.7338 1.78289L24.8766.775581C25.0808.709373 25.3118.737747 25.4891.846518 25.6664.955288 25.7738 1.135 25.7738 1.32889V5.10748C25.7738 5.43379 25.473 5.69862 25.1023 5.69862H25.113zM11.5478 4.52107H24.4415V2.17068L21.6586 3.05976C21.3362 3.1638 20.9709 3.03138 20.8259 2.75709 20.3155 1.79708 19.2034 1.17756 17.9946 1.17756 16.7858 1.17756 15.6684 1.79708 15.1473 2.76182 14.9968 3.03611 14.6369 3.1638 14.3146 3.05976L11.5478 2.17068V4.52107zM7.60448 23.362C6.35809 23.362 5.33734 22.4682 5.33734 21.3663 5.33734 20.2644 6.35272 19.3706 7.60448 19.3706 8.85624 19.3706 9.87162 20.2644 9.87162 21.3663 9.87162 22.4682 8.85624 23.362 7.60448 23.362zM7.60448 20.5529C7.09411 20.5529 6.67506 20.917 6.67506 21.371 6.67506 21.825 7.08873 22.1892 7.60448 22.1892 8.12023 22.1892 8.5339 21.825 8.5339 21.371 8.5339 20.917 8.12023 20.5529 7.60448 20.5529zM28.3955 23.362C27.1491 23.362 26.1284 22.4682 26.1284 21.3663 26.1284 20.2644 27.1438 19.3706 28.3955 19.3706 29.6473 19.3706 30.6627 20.2644 30.6627 21.3663 30.6627 22.4682 29.6473 23.362 28.3955 23.362zM28.3955 20.5529C27.8851 20.5529 27.4661 20.917 27.4661 21.371 27.4661 21.825 27.8798 22.1892 28.3955 22.1892 28.9113 22.1892 29.3249 21.825 29.3249 21.371 29.3249 20.917 28.9113 20.5529 28.3955 20.5529zM13.2025 32.092H2.00648C1.63579 32.092 1.33493 31.8272 1.33493 31.5009 1.33493 31.1745 1.63579 30.9097 2.00648 30.9097H13.2025C13.5732 30.9097 13.874 31.1745 13.874 31.5009 13.874 31.8272 13.5732 32.092 13.2025 32.092zM13.2025 40.6565H2.00648C1.63579 40.6565 1.33493 40.3917 1.33493 40.0653 1.33493 39.739 1.63579 39.4742 2.00648 39.4742H13.2025C13.5732 39.4742 13.874 39.739 13.874 40.0653 13.874 40.3917 13.5732 40.6565 13.2025 40.6565zM33.9881 40.6565H22.7921C22.4214 40.6565 22.1206 40.3917 22.1206 40.0653 22.1206 39.739 22.4214 39.4742 22.7921 39.4742H33.9881C34.3588 39.4742 34.6597 39.739 34.6597 40.0653 34.6597 40.3917 34.3588 40.6565 33.9881 40.6565zM33.9881 32.092H22.7921C22.4214 32.092 22.1206 31.8272 22.1206 31.5009 22.1206 31.1745 22.4214 30.9097 22.7921 30.9097H33.9881C34.3588 30.9097 34.6597 31.1745 34.6597 31.5009 34.6597 31.8272 34.3588 32.092 33.9881 32.092z" class="color0374B2 svgShape"></path></svg></g></svg>