<svg width="38" height="38" viewBox="0 0 38 38" fill="none" xmlns="http://www.w3.org/2000/svg">
<g clip-path="url(#clip0_372_734)">
<g clip-path="url(#clip1_372_734)">
<g clip-path="url(#clip2_372_734)">
<path d="M38 19C38 8.50659 29.4934 0 19 0C8.50659 0 0 8.50659 0 19C0 29.4934 8.50659 38 19 38C29.4934 38 38 29.4934 38 19Z" fill="#FEFBEF"/>
</g>
<path d="M18.9998 25.6421L13.4081 22.8639V17.8928L10.0518 16.2499L18.9998 11.8289L27.9478 16.2499V22.6595H26.7562V16.8281L24.5915 17.8928V22.8639L18.9998 25.6421ZM18.9998 19.3437L25.2015 16.2499L18.9998 13.1562L12.7981 16.2499L18.9998 19.3437ZM18.9998 24.3061L23.3998 22.1061V18.4887L18.9998 20.6694L14.5998 18.4887V22.1061L18.9998 24.3061Z" fill="#B28F00"/>
</g>
</g>
<defs>
<clipPath id="clip0_372_734">
<rect width="38" height="38" rx="19" fill="white"/>
</clipPath>
<clipPath id="clip1_372_734">
<rect width="38" height="38" fill="white"/>
</clipPath>
<clipPath id="clip2_372_734">
<rect width="38" height="38" fill="white"/>
</clipPath>
</defs>
</svg>
