<svg width="60" height="60" viewBox="0 0 60 60" fill="none" xmlns="http://www.w3.org/2000/svg">
<path style="mix-blend-mode:multiply" opacity="0.8" d="M29.68 59.36C46.0718 59.36 59.36 46.0718 59.36 29.68C59.36 13.2882 46.0718 0 29.68 0C13.2882 0 0 13.2882 0 29.68C0 46.0718 13.2882 59.36 29.68 59.36Z" fill="url(#paint0_radial_3288_1951)"/>
<path d="M29.83 53.66C42.9909 53.66 53.66 42.9909 53.66 29.83C53.66 16.6691 42.9909 6 29.83 6C16.6691 6 6 16.6691 6 29.83C6 42.9909 16.6691 53.66 29.83 53.66Z" fill="url(#paint1_linear_3288_1951)"/>
<path d="M32.47 45.0006V31.7206H36.9L37.74 26.2306H32.47V22.6606C32.47 21.1606 33.21 19.6906 35.57 19.6906H37.97V15.0106C37.97 15.0106 35.79 14.6406 33.72 14.6406C29.38 14.6406 26.54 17.2706 26.54 22.0306V26.2206H21.71V31.7106H26.54V44.9906H32.48L32.47 45.0006Z" fill="white"/>
<defs>
<radialGradient id="paint0_radial_3288_1951" cx="0" cy="0" r="1" gradientUnits="userSpaceOnUse" gradientTransform="translate(-42.96 29.68) scale(0.5)">
<stop stop-color="#000057"/>
<stop offset="0.39" stop-color="#7474A4" stop-opacity="0.54"/>
<stop offset="0.79" stop-color="#D8D8E5" stop-opacity="0.15"/>
<stop offset="1" stop-color="white" stop-opacity="0"/>
</radialGradient>
<linearGradient id="paint1_linear_3288_1951" x1="12.98" y1="12.97" x2="46.68" y2="46.68" gradientUnits="userSpaceOnUse">
<stop stop-color="#1677F1"/>
<stop offset="0.18" stop-color="#176EE9"/>
<stop offset="0.46" stop-color="#1D55D3"/>
<stop offset="0.82" stop-color="#252EB0"/>
<stop offset="1" stop-color="#2B189C"/>
</linearGradient>
</defs>
</svg>
