<svg width="100" height="100" viewBox="0 0 100 100" fill="none" xmlns="http://www.w3.org/2000/svg">
<path d="M45.4272 45.4612V17.1967C45.4272 14.4014 46.6528 12.9963 49.064 13C51.4752 13.0037 53.0354 14.6794 53.0354 17.2597V56.27C53.9744 55.3304 54.9141 54.3913 55.8538 53.4521L55.8641 53.4418C56.5201 52.7861 57.1761 52.1305 57.832 51.4746L58.8631 50.4435C60.5081 48.7985 63.0674 48.6598 64.5297 50.0959C64.9347 50.4738 65.2595 50.9291 65.4839 51.4336C65.7084 51.938 65.8276 52.4808 65.8343 53.028C65.8409 53.5753 65.7348 54.1153 65.5225 54.6145C65.3102 55.1136 64.9964 55.5612 64.6004 55.9294C63.5116 57.0273 62.6416 57.9051 61.9246 58.6284C60.2461 60.3219 59.4067 61.1687 58.5637 62.0118C57.7206 62.8549 56.8738 63.6942 55.1803 65.3728C54.457 66.0897 53.5792 66.9598 52.4812 68.0486C52.1131 68.4445 51.6655 68.7584 51.1663 68.9706C50.6672 69.1829 50.1271 69.289 49.5799 69.2824C49.0326 69.2758 48.4899 69.1565 47.9854 68.9321C47.5796 68.7515 47.2056 68.506 46.8781 68.2061C46.7732 68.1154 46.6732 68.0189 46.5784 67.9169C42.9099 64.2789 41.6992 63.0833 40.496 61.8801C39.2928 60.677 38.0972 59.4662 34.4592 55.7977C34.0633 55.4296 33.7494 54.982 33.5372 54.4828C33.3249 53.9837 33.2188 53.4436 33.2254 52.8964C33.232 52.3491 33.3513 51.8064 33.5757 51.3019C33.8001 50.7975 34.1249 50.3421 34.5299 49.9643C35.9947 48.5361 38.5485 48.696 40.1962 50.3384C41.9442 52.0682 43.6877 53.8048 45.4296 55.5444C45.4336 52.9898 45.4328 50.9301 45.4272 45.4612Z" fill="#FFC409"/>
<path d="M24.9683 77.3567C24.9683 75.0303 23.2566 73.1226 21.2071 73.104C20.6536 73.0849 20.1019 73.1772 19.5865 73.3752C19.0711 73.5732 18.603 73.8726 18.2114 74.2549C17.8197 74.6372 17.5129 75.0941 17.3101 75.5971C17.1072 76.1002 17.0126 76.6386 17.0323 77.1789C17.0251 78.9033 17.0191 79.9522 17.0143 80.5511C17.0048 79.3557 17 79.9534 17 80.5511C17 81.1488 17.0048 81.7465 17.0143 80.5511C17.0186 81.0932 17.024 82.0039 17.0302 83.4505C16.9686 83.9676 17.0006 84.4703 17.1339 84.9518C17.1785 85.1398 17.2373 85.3247 17.3101 85.5051C17.5129 86.0081 17.8197 86.465 18.2114 86.8473C18.603 87.2296 19.0711 87.5291 19.5865 87.7271C20.1019 87.9251 20.6536 88.0174 21.2071 87.9982C21.2436 87.9978 21.28 87.9967 21.3162 87.995C21.4285 87.9993 21.5417 88.0012 21.6558 88.0012H77.9807C78.0055 88.0012 78.0302 88.001 78.0548 88.0006C78.3221 88.002 78.5884 87.9775 78.8498 87.9277C80.8847 87.5738 82.1661 85.9719 82.14 83.7545C82.1376 83.5808 82.1281 83.413 82.1114 83.251C82.1173 81.9195 82.1223 81.0678 82.1264 80.5511C82.136 81.7465 82.1407 81.1488 82.1407 80.5511C82.1407 79.9534 82.136 79.3557 82.1264 80.5511C82.1217 79.9522 82.1157 78.9033 82.1085 77.1789C82.1281 76.6386 82.0336 76.1002 81.8307 75.5971C81.6278 75.0941 81.321 74.6372 80.9294 74.2549C80.5377 73.8726 80.0696 73.5732 79.5542 73.3752C79.0388 73.1772 78.4872 73.0849 77.9336 73.104C75.8841 73.1226 74.1725 75.0303 74.1725 77.3567V78.815C74.1725 79.3231 74.1724 79.7283 74.1723 80.0509H49.5922C47.6844 80.0517 45.7767 80.0531 43.8689 80.0544C37.5703 80.0589 31.2706 80.0635 24.9685 80.0461L24.9683 77.3567Z" fill="#FFC409"/>
</svg>
