<svg width="27" height="27" viewBox="0 0 27 27" fill="none" xmlns="http://www.w3.org/2000/svg">
<mask id="mask0_368_222" style="mask-type:alpha" maskUnits="userSpaceOnUse" x="0" y="0" width="27" height="27">
<rect y="0.690308" width="26.0911" height="26.0911" fill="#6334FA"/>
</mask>
<g mask="url(#mask0_368_222)">
<path d="M15.2198 26.7814V24.6071H23.9168V26.7814H15.2198ZM19.5683 23.52L15.2198 19.1715L16.7418 17.6495L18.4812 19.3889V14.8501H20.6554V19.3889L22.3948 17.6495L23.9168 19.1715L19.5683 23.52ZM6.52277 22.4329C5.92485 22.4329 5.41299 22.22 4.9872 21.7942C4.56141 21.3684 4.34851 20.8565 4.34851 20.2586V5.03882C4.34851 4.4409 4.56141 3.92904 4.9872 3.50325C5.41299 3.07746 5.92485 2.86456 6.52277 2.86456H14.1327L20.6554 9.38733V12.6759H13.0455V22.4329H6.52277ZM13.0455 10.4745H18.4812L13.0455 5.03882V10.4745Z" fill="#6334FA"/>
</g>
</svg>
