<svg width="27" height="27" viewBox="0 0 27 27" fill="none" xmlns="http://www.w3.org/2000/svg">
<mask id="mask0_368_219" style="mask-type:alpha" maskUnits="userSpaceOnUse" x="0" y="0" width="27" height="27">
<rect y="0.277832" width="26.0911" height="26.0911" fill="#6334FA"/>
</mask>
<g mask="url(#mask0_368_219)">
<path d="M1.08716 22.0204V18.9764C1.08716 18.3604 1.2457 17.7942 1.56278 17.2778C1.87986 16.7614 2.30112 16.3673 2.82656 16.0955C3.94993 15.5339 5.09141 15.1126 6.25101 14.8318C7.41062 14.5509 8.58834 14.4105 9.78418 14.4105C10.98 14.4105 12.1577 14.5509 13.3173 14.8318C14.4769 15.1126 15.6184 15.5339 16.7418 16.0955C17.2672 16.3673 17.6885 16.7614 18.0056 17.2778C18.3227 17.7942 18.4812 18.3604 18.4812 18.9764V22.0204H1.08716ZM20.6555 22.0204V18.759C20.6555 17.9618 20.4335 17.1963 19.9896 16.4624C19.5457 15.7286 18.9161 15.099 18.1007 14.5736C19.0248 14.6823 19.8945 14.868 20.7098 15.1307C21.5252 15.3934 22.2861 15.715 22.9928 16.0955C23.6451 16.4579 24.1433 16.8611 24.4876 17.305C24.8318 17.7489 25.004 18.2336 25.004 18.759V22.0204H20.6555ZM9.78418 13.3234C8.58834 13.3234 7.56463 12.8976 6.71304 12.046C5.86146 11.1944 5.43567 10.1707 5.43567 8.97485C5.43567 7.77901 5.86146 6.7553 6.71304 5.90372C7.56463 5.05213 8.58834 4.62634 9.78418 4.62634C10.98 4.62634 12.0037 5.05213 12.8553 5.90372C13.7069 6.7553 14.1327 7.77901 14.1327 8.97485C14.1327 10.1707 13.7069 11.1944 12.8553 12.046C12.0037 12.8976 10.98 13.3234 9.78418 13.3234ZM20.6555 8.97485C20.6555 10.1707 20.2297 11.1944 19.3781 12.046C18.5265 12.8976 17.5028 13.3234 16.3069 13.3234C16.1076 13.3234 15.854 13.3007 15.546 13.2554C15.2379 13.2101 14.9843 13.1603 14.785 13.1059C15.2742 12.5261 15.6501 11.8829 15.9129 11.1763C16.1756 10.4697 16.3069 9.73584 16.3069 8.97485C16.3069 8.21386 16.1756 7.48005 15.9129 6.77342C15.6501 6.06679 15.2742 5.42357 14.785 4.84377C15.0386 4.75317 15.2923 4.69429 15.546 4.66711C15.7996 4.63993 16.0533 4.62634 16.3069 4.62634C17.5028 4.62634 18.5265 5.05213 19.3781 5.90372C20.2297 6.7553 20.6555 7.77901 20.6555 8.97485Z" fill="#6334FA"/>
</g>
</svg>
