<svg id="SvgjsSvg1012" width="288" height="288" xmlns="http://www.w3.org/2000/svg" version="1.1" xmlns:xlink="http://www.w3.org/1999/xlink" xmlns:svgjs="http://svgjs.com/svgjs"><defs id="SvgjsDefs1013"></defs><g id="SvgjsG1014"><svg xmlns="http://www.w3.org/2000/svg" fill="none" viewBox="0 0 52 44" width="288" height="288"><path fill="#6334fa" d="M51.3228 44H0.682706C0.308879 44 0.00548233 43.6909 0.00548233 43.3101V12.5178C0.00548233 12.137 0.308879 11.8279 0.682706 11.8279H51.3228C51.6966 11.8279 52 12.137 52 12.5178V43.3101C52 43.6909 51.6966 44 51.3228 44ZM1.35452 42.6257H50.6456V13.2077H1.35452V42.6257Z" class="colorA94821 svgShape"></path><path fill="#6334fa" d="M51.3228 15.9343H.682706C.308879 15.9343.00548233 15.6252.00548233 15.2444.00548233 14.8635.308879 14.5544.682706 14.5544H51.3228C51.6966 14.5544 52 14.8635 52 15.2444 52 15.6252 51.6966 15.9343 51.3228 15.9343zM33.1894 44C32.8156 44 32.5122 43.6909 32.5122 43.3101V30.1631C32.5122 25.5876 26.7802 22.7341 25.507 22.1545 24.2338 22.7341 18.5018 25.582 18.5018 30.1631V43.3101C18.5018 43.6909 18.1984 44 17.8246 44 17.4507 44 17.1474 43.6909 17.1474 43.3101V30.1631C17.1474 24.1029 24.9219 20.9017 25.2524 20.7692 25.4095 20.703 25.5883 20.703 25.7508 20.7692 26.0813 20.9017 33.8558 24.1029 33.8558 30.1631V43.3101C33.8558 43.6909 33.5524 44 33.1786 44H33.1894zM12.2604 39.8605C11.8866 39.8605 11.5832 39.5514 11.5832 39.1706V32.4481C11.5832 30.439 9.13435 29.1034 8.33252 28.7225 7.53068 29.1034 5.08184 30.439 5.08184 32.4481V39.1706C5.08184 39.5514 4.77845 39.8605 4.40462 39.8605 4.03079 39.8605 3.7274 39.5514 3.7274 39.1706V32.4481C3.7274 29.1254 7.90451 27.4034 8.07788 27.3317 8.23499 27.2654 8.41377 27.2654 8.57631 27.3317 8.75509 27.4034 12.9268 29.1254 12.9268 32.4481V39.1706C12.9268 39.5514 12.6234 39.8605 12.2496 39.8605H12.2604z" class="colorA94821 svgShape"></path><path fill="#6334fa" d="M36.6404 44C36.2666 44 35.9632 43.6909 35.9632 43.3101V19.5881H15.056V43.3101C15.056 43.6909 14.7526 44 14.3787 44C14.0049 44 13.7015 43.6909 13.7015 43.3101V18.9037C13.7015 18.5228 14.0049 18.2137 14.3787 18.2137H36.635C37.0089 18.2137 37.3122 18.5228 37.3122 18.9037V43.3101C37.3122 43.6909 37.0089 44 36.635 44H36.6404Z" class="colorA94821 svgShape"></path><path fill="#6334fa" d="M25.5124 19.5881C25.1385 19.5881 24.8351 19.279 24.8351 18.8981V15.2444C24.8351 14.8635 25.1385 14.5544 25.5124 14.5544 25.8862 14.5544 26.1896 14.8635 26.1896 15.2444V18.8981C26.1896 19.279 25.8862 19.5881 25.5124 19.5881zM20.8639 19.5881C20.4901 19.5881 20.1867 19.279 20.1867 18.8981V15.2444C20.1867 14.8635 20.4901 14.5544 20.8639 14.5544 21.2378 14.5544 21.5412 14.8635 21.5412 15.2444V18.8981C21.5412 19.279 21.2378 19.5881 20.8639 19.5881zM16.2155 19.5881C15.8417 19.5881 15.5383 19.279 15.5383 18.8981V15.2444C15.5383 14.8635 15.8417 14.5544 16.2155 14.5544 16.5893 14.5544 16.8927 14.8635 16.8927 15.2444V18.8981C16.8927 19.279 16.5893 19.5881 16.2155 19.5881zM11.5671 19.5881C11.1933 19.5881 10.8899 19.279 10.8899 18.8981V15.2444C10.8899 14.8635 11.1933 14.5544 11.5671 14.5544 11.9409 14.5544 12.2443 14.8635 12.2443 15.2444V18.8981C12.2443 19.279 11.9409 19.5881 11.5671 19.5881zM6.91846 19.5881C6.54463 19.5881 6.24124 19.279 6.24124 18.8981V15.2444C6.24124 14.8635 6.54463 14.5544 6.91846 14.5544 7.29229 14.5544 7.59569 14.8635 7.59569 15.2444V18.8981C7.59569 19.279 7.29229 19.5881 6.91846 19.5881zM30.1608 19.5881C29.787 19.5881 29.4836 19.279 29.4836 18.8981V15.2444C29.4836 14.8635 29.787 14.5544 30.1608 14.5544 30.5346 14.5544 30.838 14.8635 30.838 15.2444V18.8981C30.838 19.279 30.5346 19.5881 30.1608 19.5881zM34.8094 19.5881C34.4356 19.5881 34.1322 19.279 34.1322 18.8981V15.2444C34.1322 14.8635 34.4356 14.5544 34.8094 14.5544 35.1832 14.5544 35.4866 14.8635 35.4866 15.2444V18.8981C35.4866 19.279 35.1832 19.5881 34.8094 19.5881zM39.4631 19.5881C39.0893 19.5881 38.7859 19.279 38.7859 18.8981V15.2444C38.7859 14.8635 39.0893 14.5544 39.4631 14.5544 39.837 14.5544 40.1404 14.8635 40.1404 15.2444V18.8981C40.1404 19.279 39.837 19.5881 39.4631 19.5881zM44.1117 19.5881C43.7379 19.5881 43.4345 19.279 43.4345 18.8981V15.2444C43.4345 14.8635 43.7379 14.5544 44.1117 14.5544 44.4856 14.5544 44.789 14.8635 44.789 15.2444V18.8981C44.789 19.279 44.4856 19.5881 44.1117 19.5881zM12.2442 44H4.4101C4.03627 44 3.73288 43.6909 3.73288 43.3101V22.8721C3.73288 22.4912 4.03627 22.1821 4.4101 22.1821H12.2442C12.6181 22.1821 12.9215 22.4912 12.9215 22.8721V43.3101C12.9215 43.6909 12.6181 44 12.2442 44zM5.08733 42.6257H11.5724V23.562H5.08733V42.6257z" class="colorA94821 svgShape"></path><path fill="#6334fa" d="M12.2442 26.294H4.4101C4.03627 26.294 3.73288 25.985 3.73288 25.6041 3.73288 25.2233 4.03627 24.9142 4.4101 24.9142H12.2442C12.6181 24.9142 12.9215 25.2233 12.9215 25.6041 12.9215 25.985 12.6181 26.294 12.2442 26.294zM46.6146 39.8605C46.2408 39.8605 45.9374 39.5514 45.9374 39.1706V32.4481C45.9374 30.439 43.4886 29.1034 42.6867 28.7225 41.8849 29.1034 39.4361 30.439 39.4361 32.4481V39.1706C39.4361 39.5514 39.1327 39.8605 38.7588 39.8605 38.385 39.8605 38.0816 39.5514 38.0816 39.1706V32.4481C38.0816 29.1254 42.2587 27.4034 42.4321 27.3317 42.5892 27.2654 42.768 27.2654 42.9305 27.3317 43.1093 27.4034 47.281 29.1254 47.281 32.4481V39.1706C47.281 39.5514 46.9776 39.8605 46.6038 39.8605H46.6146z" class="colorA94821 svgShape"></path><path fill="#6334fa" d="M46.6147 44H38.7806C38.4067 44 38.1034 43.6909 38.1034 43.3101V22.8721C38.1034 22.4912 38.4067 22.1821 38.7806 22.1821H46.6147C46.9885 22.1821 47.2919 22.4912 47.2919 22.8721V43.3101C47.2919 43.6909 46.9885 44 46.6147 44ZM39.4578 42.6257H45.9429V23.562H39.4578V42.6257Z" class="colorA94821 svgShape"></path><path fill="#6334fa" d="M46.6147 26.294H38.7806C38.4067 26.294 38.1034 25.985 38.1034 25.6041 38.1034 25.2233 38.4067 24.9142 38.7806 24.9142H46.6147C46.9885 24.9142 47.2919 25.2233 47.2919 25.6041 47.2919 25.985 46.9885 26.294 46.6147 26.294zM17.8353 31.565C17.4615 31.565 17.1581 31.2559 17.1581 30.8751V18.8981C17.1581 18.5173 17.4615 18.2082 17.8353 18.2082 18.2092 18.2082 18.5126 18.5173 18.5126 18.8981V30.8751C18.5126 31.2559 18.2092 31.565 17.8353 31.565zM33.1894 31.565C32.8156 31.565 32.5122 31.2559 32.5122 30.8751V18.8981C32.5122 18.5173 32.8156 18.2082 33.1894 18.2082 33.5632 18.2082 33.8666 18.5173 33.8666 18.8981V30.8751C33.8666 31.2559 33.5632 31.565 33.1894 31.565zM51.3227 13.2022C50.9489 13.2022 50.6455 12.8931 50.6455 12.5123V10.4922H1.35445V12.5123C1.35445 12.8931 1.05105 13.2022.677224 13.2022.303396 13.2022 0 12.8931 0 12.5123V9.80783C0 9.427.303396 9.11792.677224 9.11792H51.3173C51.6911 9.11792 51.9945 9.427 51.9945 9.80783V12.5123C51.9945 12.8931 51.6911 13.2022 51.3173 13.2022H51.3227z" class="colorA94821 svgShape"></path><path fill="#6334fa" d="M25.5124 10.4977C23.2911 10.4977 21.487 8.65981 21.487 6.39689C21.487 5.30407 21.9042 4.27195 22.6681 3.49925C23.432 2.72655 24.4397 2.29604 25.5124 2.29604C27.7337 2.29604 29.5378 4.13397 29.5378 6.39689C29.5378 8.65981 27.7337 10.4977 25.5124 10.4977ZM25.5124 3.67035C24.7973 3.67035 24.1255 3.95183 23.6216 4.47065C23.1178 4.98947 22.836 5.66834 22.836 6.39689C22.836 7.89815 24.0388 9.12343 25.5124 9.12343C26.9861 9.12343 28.1888 7.89815 28.1888 6.39689C28.1888 4.89564 26.9861 3.67035 25.5124 3.67035Z" class="colorA94821 svgShape"></path><path fill="#6334fa" d="M34.8093 13.2022C34.4355 13.2022 34.1321 12.8931 34.1321 12.5123V1.37983H16.8873V12.5123C16.8873 12.8931 16.5839 13.2022 16.21 13.2022C15.8362 13.2022 15.5328 12.8931 15.5328 12.5123V0.689915C15.5328 0.309082 15.8362 0 16.21 0H34.8039C35.1777 0 35.4811 0.309082 35.4811 0.689915V12.5123C35.4811 12.8931 35.1777 13.2022 34.8039 13.2022H34.8093Z" class="colorA94821 svgShape"></path><path fill="#6334fa" d="M10.5213 13.2022C10.1475 13.2022 9.84411 12.8931 9.84411 12.5123V5.18816C9.84411 4.80733 10.1475 4.49825 10.5213 4.49825H16.2154C16.5893 4.49825 16.8927 4.80733 16.8927 5.18816 16.8927 5.56899 16.5893 5.87808 16.2154 5.87808H11.1931V12.5178C11.1931 12.8986 10.8898 13.2077 10.5159 13.2077L10.5213 13.2022zM40.5089 13.2022C40.1351 13.2022 39.8317 12.8931 39.8317 12.5123V5.87256H34.8094C34.4356 5.87256 34.1322 5.56348 34.1322 5.18264 34.1322 4.80181 34.4356 4.49273 34.8094 4.49273H40.5035C40.8773 4.49273 41.1807 4.80181 41.1807 5.18264V12.5068C41.1807 12.8876 40.8773 13.1967 40.5035 13.1967L40.5089 13.2022z" class="colorA94821 svgShape"></path></svg></g></svg>