<svg width="38" height="38" viewBox="0 0 38 38" fill="none" xmlns="http://www.w3.org/2000/svg">
<g clip-path="url(#clip0_372_720)">
<g clip-path="url(#clip1_372_720)">
<g clip-path="url(#clip2_372_720)">
<path d="M38 19C38 8.50659 29.4934 0 19 0C8.50659 0 0 8.50659 0 19C0 29.4934 8.50659 38 19 38C29.4934 38 38 29.4934 38 19Z" fill="#F7F8FF"/>
</g>
<mask id="mask0_372_720" style="mask-type:alpha" maskUnits="userSpaceOnUse" x="8" y="8" width="22" height="22">
<rect x="8" y="8" width="22" height="22" fill="#D9D9D9"/>
</mask>
<g mask="url(#mask0_372_720)">
<path d="M10.6582 26.2416V16.4791L16.7999 11.8552L20.8632 14.8855C20.6787 14.9831 20.5035 15.0951 20.3377 15.2215C20.1721 15.3476 20.0158 15.4836 19.8689 15.6294L16.7999 13.3448L11.8499 17.075V25.05H16.3028V25.0147V26.2416H10.6582ZM18.129 26.2416V24.7165C18.129 24.4592 18.1901 24.2276 18.3124 24.0215C18.4346 23.8152 18.595 23.6486 18.7936 23.5216C19.4177 23.1302 20.0723 22.8435 20.7573 22.6613C21.4426 22.4792 22.1401 22.3882 22.8499 22.3882C23.6208 22.3882 24.3488 22.4792 25.0341 22.6613C25.7191 22.8435 26.3431 23.1302 26.9061 23.5216C27.1095 23.6662 27.271 23.8416 27.3908 24.048C27.5107 24.2544 27.5707 24.4773 27.5707 24.7165V26.2416H18.129ZM19.2678 25.05H26.432V24.6656C25.9113 24.3308 25.3502 24.0661 24.7485 23.8716C24.1467 23.6769 23.5138 23.5796 22.8499 23.5796C22.2165 23.5796 21.595 23.6731 20.9856 23.8601C20.3763 24.047 19.8037 24.3078 19.2678 24.6427V25.05ZM22.851 21.3356C22.151 21.3356 21.5557 21.0906 21.0651 20.6007C20.5744 20.1107 20.329 19.5158 20.329 18.8159C20.329 18.1159 20.574 17.5206 21.064 17.03C21.5539 16.5393 22.1489 16.294 22.8487 16.294C23.5488 16.294 24.1441 16.5389 24.6346 17.0289C25.1253 17.5188 25.3707 18.1138 25.3707 18.8139C25.3707 19.5137 25.1257 20.109 24.6358 20.5998C24.1458 21.0903 23.5509 21.3356 22.851 21.3356ZM22.8499 20.144C23.2204 20.144 23.5345 20.0151 23.7922 19.7573C24.0501 19.4995 24.179 19.1853 24.179 18.8148C24.179 18.4445 24.0501 18.1303 23.7922 17.8725C23.5345 17.6146 23.2204 17.4856 22.8499 17.4856C22.4794 17.4856 22.1653 17.6146 21.9075 17.8725C21.6496 18.1303 21.5207 18.4445 21.5207 18.8148C21.5207 19.1853 21.6496 19.4995 21.9075 19.7573C22.1653 20.0151 22.4794 20.144 22.8499 20.144Z" fill="#0019C4"/>
</g>
</g>
</g>
<defs>
<clipPath id="clip0_372_720">
<rect width="38" height="38" rx="19" fill="white"/>
</clipPath>
<clipPath id="clip1_372_720">
<rect width="38" height="38" fill="white"/>
</clipPath>
<clipPath id="clip2_372_720">
<rect width="38" height="38" fill="white"/>
</clipPath>
</defs>
</svg>
