<svg width="60" height="60" viewBox="0 0 60 60" fill="none" xmlns="http://www.w3.org/2000/svg">
<path style="mix-blend-mode:multiply" opacity="0.8" d="M29.68 59.36C46.0718 59.36 59.36 46.0718 59.36 29.68C59.36 13.2882 46.0718 0 29.68 0C13.2882 0 0 13.2882 0 29.68C0 46.0718 13.2882 59.36 29.68 59.36Z" fill="url(#paint0_radial_3288_1953)"/>
<path d="M29.7099 50.1092C42.8708 50.1092 53.5399 39.4402 53.5399 26.2792C53.5399 13.1183 42.8708 2.44922 29.7099 2.44922C16.5489 2.44922 5.87988 13.1183 5.87988 26.2792C5.87988 39.4402 16.5489 50.1092 29.7099 50.1092Z" fill="url(#paint1_linear_3288_1953)"/>
<path d="M36.2798 18.2988C35.4798 18.2988 34.8298 18.9488 34.8298 19.7488C34.8298 20.5488 35.4798 21.1988 36.2798 21.1988C37.0798 21.1988 37.7298 20.5488 37.7298 19.7488C37.7298 18.9488 37.0798 18.2988 36.2798 18.2988Z" fill="white"/>
<path d="M29.8097 20.168C26.4397 20.168 23.6997 22.908 23.6997 26.278C23.6997 29.648 26.4397 32.388 29.8097 32.388C33.1797 32.388 35.9197 29.648 35.9197 26.278C35.9197 22.908 33.1797 20.168 29.8097 20.168ZM29.8097 30.188C27.6497 30.188 25.8997 28.428 25.8997 26.278C25.8997 24.128 27.6597 22.368 29.8097 22.368C31.9597 22.368 33.7197 24.128 33.7197 26.278C33.7197 28.428 31.9597 30.188 29.8097 30.188Z" fill="white"/>
<path d="M34.6598 38.6789H24.7598C20.6498 38.6789 17.3098 35.3389 17.3098 31.2289V21.3289C17.3098 17.2189 20.6498 13.8789 24.7598 13.8789H34.6598C38.7698 13.8789 42.1098 17.2189 42.1098 21.3289V31.2289C42.1098 35.3389 38.7698 38.6789 34.6598 38.6789ZM24.7598 16.2089C21.9398 16.2089 19.6398 18.5089 19.6398 21.3289V31.2289C19.6398 34.0489 21.9398 36.3489 24.7598 36.3489H34.6598C37.4798 36.3489 39.7798 34.0489 39.7798 31.2289V21.3289C39.7798 18.5089 37.4798 16.2089 34.6598 16.2089H24.7598Z" fill="white"/>
<defs>
<radialGradient id="paint0_radial_3288_1953" cx="0" cy="0" r="1" gradientUnits="userSpaceOnUse" gradientTransform="translate(29.68 29.68) scale(0.5)">
<stop stop-color="#000057"/>
<stop offset="0.39" stop-color="#7474A4" stop-opacity="0.54"/>
<stop offset="0.79" stop-color="#D8D8E5" stop-opacity="0.15"/>
<stop offset="1" stop-color="white" stop-opacity="0"/>
</radialGradient>
<linearGradient id="paint1_linear_3288_1953" x1="12.8599" y1="9.41922" x2="46.5599" y2="43.1292" gradientUnits="userSpaceOnUse">
<stop stop-color="#FFE185"/>
<stop offset="0.21" stop-color="#FFBB36"/>
<stop offset="0.38" stop-color="#FF5176"/>
<stop offset="0.52" stop-color="#F63395"/>
<stop offset="0.74" stop-color="#A436D2"/>
<stop offset="1" stop-color="#5F4EED"/>
</linearGradient>
</defs>
</svg>
