<svg width="152" height="152" viewBox="0 0 152 152" fill="none" xmlns="http://www.w3.org/2000/svg">
<path d="M76 151C117.421 151 151 117.421 151 76C151 34.5786 117.421 1 76 1C34.5786 1 1 34.5786 1 76C1 117.421 34.5786 151 76 151Z" stroke="#175DAA" stroke-width="1.57641" stroke-miterlimit="10"/>
<path d="M77.1661 132.984C108.682 132.984 134.23 107.435 134.23 75.9196C134.23 44.4038 108.682 18.8552 77.1661 18.8552C45.6504 18.8552 20.1018 44.4038 20.1018 75.9196C20.1018 107.435 45.6504 132.984 77.1661 132.984Z" fill="#175DAA"/>
<path d="M97.5148 53.8419C105.236 52.9169 112.394 55.37 114.807 63.2923C118.708 76.1207 106.724 86.3754 94.4183 81.4692C81.7105 76.362 83.8419 55.4907 97.5148 53.8419ZM96.6703 79.5791C99.3647 81.992 103.788 81.2681 105.799 78.2923C109.619 72.622 109.7 52.2333 98.9625 55.2494C91.6837 57.3003 91.925 75.3566 96.6703 79.5389V79.5791ZM107.287 77.6891C107.126 77.488 106.322 78.2521 106.282 78.2923C106.201 78.614 107.247 79.0966 107.046 79.9009C106.362 79.6596 105.115 79.6596 105.075 80.6649C106.08 80.3432 107.89 81.1877 107.81 79.8204C107.729 78.4531 107.367 79.6998 107.287 79.4987C107.166 78.9759 107.367 78.2521 107.287 77.6891Z" fill="#FAFCFC"/>
<path d="M61.2413 71.9384C61.4424 71.9384 61.925 71.8982 61.9652 71.9384C62.0858 72.059 62.6488 74.6327 62.9706 75.3164C64.2574 78.1716 66.9116 80.6649 70.1287 81.1073C73.1448 81.5094 76.5631 79.5389 75.8392 76.1207C74.8338 71.2145 62.5684 70.1287 61.3218 63.2521C60.0751 56.3754 65.3834 52.7963 71.496 53.5604C73.185 53.7614 75.1958 55.2896 76.4826 55.2896C77.7695 55.2896 77.5684 53.8821 78.2119 53.5202C78.8553 53.1582 78.8151 54.3244 78.8151 54.4049V62.7293C77.6891 63.0108 77.8097 61.362 77.4478 60.4773C76.0805 57.2601 73.1448 54.7668 69.4853 55.0081C65.8258 55.2494 64.2172 58.8687 66.992 61.4826C69.7668 64.0966 79.6998 66.2279 80.5443 72.5818C81.3888 78.9759 76.0403 83.118 70.0081 82.6354C68.118 82.4746 65.0617 80.7856 63.8151 80.9062C62.4076 81.0671 62.3673 82.7159 61.1609 82.6354V71.9384H61.2413Z" fill="#FAFCFC"/>
<path d="M56.2545 54.0027V54.7668C54.8068 54.7668 52.5548 54.8472 52.2733 56.6568C52.7961 63.815 51.5494 72.0188 52.2733 79.0563C52.4744 81.1475 54.5253 81.2681 56.2545 81.1475V81.9115H41.5763V81.1475C44.4315 81.1072 45.3564 81.067 45.5575 78.0509C46.0401 71.2949 45.1956 63.9357 45.5575 57.1394C45.1151 54.0429 41.898 55.2895 41.6165 55.008C41.335 54.7265 41.5763 54.0027 41.6165 54.0027H56.2948H56.2545Z" fill="#FAFCFC"/>
<path d="M94.0964 51.7508C94.0159 51.7105 93.6942 50.665 93.453 50.303C92.528 48.8955 91.5226 47.5685 90.4771 46.2816C88.7881 46.925 87.2197 48.051 85.4101 48.2923C85.209 48.4934 87.0991 51.8312 85.5307 51.7508C83.9623 51.6703 84.4449 48.7749 84.284 48.7749C83.0374 49.1368 81.7505 49.4585 80.5039 49.6998C79.2572 49.9411 77.7291 49.8205 76.8846 50.0215C76.0401 50.2226 76.7237 50.665 76.0803 50.7856C75.0347 50.9867 75.6781 50.0618 75.3162 50.0215C74.713 49.9009 73.7881 50.102 73.1044 50.0215C71.1339 49.8205 69.284 49.7803 67.2331 49.0162C67.2331 49.539 67.1929 49.9009 67.1125 50.1824C67.032 50.4639 67.032 51.8312 66.3886 51.7105C64.9007 51.429 66.469 49.4183 66.469 48.4934C65.343 48.4934 62.3269 46.4827 61.6031 46.4827C60.4771 46.4827 58.1849 51.4693 57.4208 51.429C56.6567 51.3888 56.7773 51.228 56.7371 51.228C56.2948 50.665 59.7532 46.4022 60.4771 45.8794C60.4771 45.6784 57.8229 43.9894 57.3806 43.9894C56.6567 43.9894 53.9623 46.4022 53.2787 47.1261C52.595 47.85 50.1017 51.429 49.78 51.6301C49.4583 51.8312 48.9355 51.6301 48.7747 51.3486C48.5736 50.303 53.6004 45.1556 54.646 44.2709C67.1527 33.1315 86.335 33.2923 98.3189 45.1556C99.284 46.1207 102.34 49.5792 102.823 50.6248C103.305 51.6703 102.541 51.9518 102.059 51.6301C101.576 51.3084 99.3645 47.9706 98.721 47.2467C98.0776 46.5229 95.3028 43.7883 94.7398 43.7481C94.1768 43.7079 92.2063 45.236 91.6031 45.6382C91.5227 45.9197 94.78 49.6596 95.0213 50.665C95.2626 51.6703 94.6192 52.0725 94.0964 51.7105V51.7508ZM68.721 38.0778C72.1393 40.5711 77.7291 40.9331 81.5897 39.1234C85.4503 37.3138 83.2787 38.1583 81.6701 37.7159C80.0615 37.2735 74.7532 37.1127 72.3403 37.3942C69.9275 37.6757 69.8873 37.8768 68.6808 38.1181L68.721 38.0778ZM68.721 39.3245C68.158 39.3647 67.6755 38.7213 67.2733 38.6006C66.469 38.3996 61.2411 40.8526 60.276 41.4559C59.3109 42.0591 58.024 42.9438 58.2653 43.3057C58.5066 43.6677 61.1607 45.0752 61.3216 45.0349C61.6433 44.9947 63.8149 42.5014 64.4985 42.2199L68.721 39.3245ZM93.8551 43.0644C91.7237 41.4961 89.0294 39.8875 86.5361 39.0832C84.0428 38.2789 85.0079 38.6408 83.4395 39.3245C85.1688 40.6516 87.0991 41.6971 88.7881 43.0644C90.4771 44.4317 90.276 44.7132 90.5575 44.7534C91.2411 44.8741 93.091 43.1851 93.8953 43.0644H93.8551ZM71.6969 40.5711C71.0937 40.6516 70.4101 40.0886 69.8873 40.1288C68.9221 40.2092 63.3725 44.2307 62.7693 45.1556C62.1661 46.0805 62.4074 45.3969 62.528 45.7588L67.2733 47.488C67.8363 44.7132 69.9275 42.5416 71.7371 40.5309L71.6969 40.5711ZM89.5924 45.5577C89.7532 45.3567 87.1393 43.2253 86.8176 42.984C85.9328 42.3004 82.6755 40.0081 81.7505 40.0886C80.8256 40.169 80.8658 40.5711 80.343 40.6113C80.1017 40.9331 82.1929 42.7829 82.5548 43.2655C83.0776 43.9492 84.646 47.0859 84.847 47.2065C85.5709 47.6489 88.6272 45.7186 89.5924 45.5577ZM75.4369 41.3352C74.3913 41.5363 73.5066 40.7722 72.5414 41.3352C71.4556 41.9786 68.2385 46.4827 68.1983 47.6891C68.158 48.8955 68.2385 48.413 68.5602 48.4532C70.3698 48.8151 73.024 48.8151 75.3966 49.0564V41.3352H75.4369ZM83.8819 47.8097C82.595 44.9947 80.4637 40.5309 76.6835 41.3754C76.4422 42.5014 76.2814 48.413 76.6433 48.976C77.0052 49.539 78.0106 49.0966 78.7747 49.0966C79.5387 49.0966 80.3028 48.8955 80.705 48.7749C82.4744 48.3727 82.595 48.3727 83.8819 47.85V47.8097Z" fill="#FAFCFC"/>
<path d="M59.6327 88.9893C59.1501 88.4262 56.2948 85.2895 56.7372 84.6461C57.1796 84.0026 57.3404 84.445 57.4209 84.445C58.0241 84.445 59.4316 87.3002 59.8739 87.8632C60.3163 88.4262 61.3217 89.3914 61.5629 89.3914C62.3672 89.3914 65.2225 87.3405 66.4289 87.3807C66.3485 86.3753 64.7399 84.2037 66.5093 84.1233C68.2788 84.0429 67.1528 86.8177 67.5549 86.8981C68.6407 86.8177 69.7265 86.2949 70.7721 86.1742C71.9785 86.0134 74.3511 86.134 75.1554 85.8927C75.9597 85.6514 75.3565 85.1287 75.9597 85.1287C76.5629 85.1287 76.6032 85.7319 77.0053 85.8525C78.0509 86.1742 80.3431 86.2547 81.5898 86.4959C82.8364 86.7372 83.2788 86.9383 84.1233 87.1796C84.9276 86.2145 84.445 84.0026 86.0134 84.445C86.1742 85.6112 85.4503 86.5764 85.2493 87.6622C86.4959 87.5415 89.1903 89.512 90.075 89.4316C91.6032 89.2707 93.7747 84.2037 94.0965 84.1635C94.4182 84.1233 95.3431 84.3244 95.1822 84.7667C94.4584 86.6568 92.4879 88.5067 91.4825 90.2761C91.5227 90.437 94.4182 92.1662 94.579 92.1662C95.0616 92.1662 98.2788 89.0295 98.8016 88.4262C99.4048 87.7426 101.617 84.4852 101.898 84.2842C102.18 84.0831 102.863 84.4048 102.903 84.445C103.306 85.008 99.7667 89.0697 99.1635 89.7131C87.1796 102.461 67.5951 103.225 54.4852 91.6434C53.4798 90.7587 48.453 85.571 48.6139 84.5657C48.7747 84.3244 49.378 84.1233 49.6192 84.2842C49.9812 84.5254 52.7962 88.4665 53.6005 89.311C54.4048 90.1555 56.3351 91.7238 56.5764 91.8043C57.823 92.2064 59.0696 90.5978 60.1957 90.1555C60.3163 89.9946 59.6326 89.2305 59.4718 88.9893H59.6327ZM75.4369 86.8981C73.0643 86.8981 70.6514 87.3405 68.3592 87.9035C66.067 88.4665 67.8766 87.7828 67.957 88.2654C68.1581 89.3512 68.7211 90.1957 68.7211 90.1957C69.6058 91.4021 71.8579 94.8606 73.3056 94.8606C74.7533 94.8606 75.4369 94.6997 75.4369 94.5791V86.8579V86.8981ZM76.4423 94.6193C77.4879 94.4986 78.3324 95.2225 79.3377 94.6193C80.3431 94.0161 84.0831 89.0697 83.9222 88.2654C81.7104 87.2198 78.9356 86.9383 76.4423 86.8981V94.6193ZM71.697 95.3431C70.7721 94.2171 69.7265 93.252 68.9222 92.0455C68.1179 90.8391 67.2734 89.6729 66.9919 88.5067C66.7104 87.3405 63.3726 89.9946 62.5281 90.1555C62.2466 90.5576 64.4986 92.327 64.9007 92.6488C65.705 93.2922 69.3243 95.8659 70.0884 95.8257C70.8525 95.7855 71.1742 95.3029 71.7372 95.3834L71.697 95.3431ZM89.5924 90.3968C88.6273 90.2359 85.571 88.3056 84.8471 88.748C84.1233 89.1903 83.0777 92.0053 82.5549 92.689C82.0321 93.3726 81.1474 94.0965 80.504 94.8606C79.8605 95.6246 81.268 95.7453 81.7908 95.8257C82.3136 95.9061 85.3297 93.9758 86.0536 93.453C86.7774 92.9303 89.7131 90.5978 89.5522 90.3565L89.5924 90.3968ZM68.4396 96.1072C65.7453 94.9812 63.4128 92.89 61.3217 90.8793C60.9195 91.1608 58.3458 92.4477 58.2654 92.6086C57.9436 93.0509 59.9544 94.1367 60.3565 94.378C61.5227 95.0616 65.504 97.1126 66.6702 97.2734C67.8364 97.4343 68.8418 96.5496 68.4798 96.067L68.4396 96.1072ZM83.6407 96.1072C83.3994 96.5496 84.5254 97.1528 84.8873 97.2332C86.0536 97.4745 93.5737 93.6139 93.6139 92.9705C93.1715 92.4879 91.0402 91.0402 90.5576 91.1608C90.075 91.2815 87.26 94.0563 86.4959 94.5791C85.7318 95.1018 84.5656 95.504 83.6809 96.1474L83.6407 96.1072ZM68.7211 97.8364C72.26 98.6005 75.9195 99.0027 79.4986 98.5603C79.9812 98.4799 82.8766 98.0777 82.8766 97.7158C78.9356 94.7801 72.6219 94.9812 68.6809 97.8364H68.7211Z" fill="#FAFCFC"/>
<path d="M96.6704 79.5792C91.9251 75.3567 91.6838 57.3406 98.9626 55.2897C109.7 52.2736 109.619 72.6221 105.799 78.3326C103.788 81.3085 99.3648 81.9921 96.6704 79.6195V79.5792Z" fill="#175DAA"/>
<path d="M107.287 77.6888C107.367 78.2519 107.166 78.9757 107.287 79.4985C107.408 80.0213 107.77 79.6594 107.81 79.8202C107.85 81.1875 106.081 80.343 105.075 80.6647C105.075 79.6594 106.362 79.6594 107.046 79.9006C107.247 79.0964 106.241 78.6138 106.282 78.2921C106.322 77.9703 107.126 77.4878 107.287 77.6888Z" fill="#FCFDFD"/>
<path d="M75.4371 41.3351V49.0563C73.1851 48.9357 70.7321 48.7346 68.6007 48.051C66.4693 47.3673 68.1985 48.252 68.2388 47.689C68.279 46.4826 71.4961 41.9786 72.5819 41.3351C73.5471 40.7721 74.3916 41.5362 75.4774 41.3351H75.4371Z" fill="#175DAA"/>
<path d="M83.8821 47.8098C82.8365 47.8902 81.6301 48.5739 80.7051 48.7348C79.7802 48.8956 80.0617 48.5739 79.8204 48.6141C79.0966 48.7348 77.488 49.4988 76.6435 48.9358C75.799 48.3728 76.4424 42.5015 76.6837 41.3353C80.4236 40.4908 82.5952 44.9546 83.8821 47.7696V47.8098Z" fill="#175DAA"/>
<path d="M68.7212 38.0777C69.9276 37.8364 71.1341 37.5147 72.3807 37.3538C74.7534 37.0723 79.4182 36.9919 81.7105 37.6756C84.0027 38.3592 82.756 38.5603 81.63 39.0831C77.7695 40.9329 72.1796 40.5308 68.7614 38.0375L68.7212 38.0777Z" fill="#175DAA"/>
<path d="M89.5925 45.5577C88.6274 45.7185 85.5711 47.6488 84.8472 47.2065C84.1233 46.7641 83.118 43.9491 82.555 43.2654C81.992 42.5818 80.1019 40.933 80.3432 40.6113C80.8258 40.6113 81.2681 40.1689 81.7507 40.0885C82.6354 40.0081 85.8928 42.3003 86.8177 42.9839C87.7426 43.6676 89.7534 45.3566 89.5925 45.5577Z" fill="#175DAA"/>
<path d="M71.6971 40.5709C69.8472 42.6219 67.7561 44.7532 67.2333 47.528L62.488 45.7988C62.3673 45.4369 62.6086 45.3967 62.7292 45.1956C63.3727 44.2707 68.8821 40.2492 69.8472 40.1688C70.8124 40.0884 71.0536 40.6916 71.6569 40.6111L71.6971 40.5709Z" fill="#175DAA"/>
<path d="M68.721 39.3244L64.4985 42.2199C63.8149 42.5014 61.6433 44.9947 61.3216 45.0349C60.9999 45.0751 58.3457 43.4665 58.2653 43.3056C58.024 42.9437 59.8738 41.6971 60.276 41.4558C61.2411 40.8526 66.469 38.3995 67.2733 38.6005C68.0776 38.8016 68.1178 39.3646 68.721 39.3244Z" fill="#175DAA"/>
<path d="M93.8552 43.0645C93.0509 43.1851 91.201 44.9143 90.5174 44.7535C89.8337 44.5926 89.1501 43.3862 88.7479 43.0645C87.0589 41.6972 85.1286 40.6516 83.3994 39.3245C84.9678 38.6409 84.9276 38.5604 86.4959 39.0832C89.0294 39.8875 91.7238 41.4961 93.815 43.0645H93.8552Z" fill="#175DAA"/>
<path d="M75.4368 86.8982V94.6194C75.4368 94.74 73.4261 94.9009 73.3054 94.9009C71.8577 94.9009 69.9274 91.0805 68.721 90.236C68.4797 89.5926 67.9971 89.0296 67.9569 88.3057C67.9167 87.5818 67.9971 88.0242 68.3591 87.9438C70.6513 87.3808 73.0642 86.9384 75.4368 86.9384V86.8982Z" fill="#175DAA"/>
<path d="M76.4424 94.6194V86.8982C78.8955 86.9384 81.7105 87.2199 83.9223 88.2655C84.0831 89.0698 80.1823 94.1368 79.3378 94.6194C78.4933 95.102 77.5282 94.4987 76.4424 94.6194Z" fill="#175DAA"/>
<path d="M68.7212 97.8366C72.6622 94.9814 78.9357 94.7803 82.9169 97.716C82.9169 98.0779 80.0215 98.48 79.5389 98.5605C75.9196 99.043 72.2601 98.6409 68.7614 97.8366H68.7212Z" fill="#175DAA"/>
<path d="M71.6972 95.3431C71.1342 95.2627 70.4908 95.7453 70.0484 95.7855C69.2844 95.7855 65.6651 93.252 64.8608 92.6086C64.0565 91.9651 62.2066 90.5174 62.4881 90.1153C63.3326 89.9946 66.3889 88.1448 66.9519 88.4665C67.5149 88.7882 68.4398 91.3619 68.8822 92.0054C69.6865 93.2118 70.7321 94.2171 71.657 95.3029L71.6972 95.3431Z" fill="#175DAA"/>
<path d="M89.5926 90.3967C89.7534 90.5978 86.4558 93.2117 86.0939 93.4932C85.3701 93.9758 82.4344 95.9061 81.8312 95.8659C81.228 95.8256 80.0617 95.4637 80.5443 94.9007C81.0269 94.3377 81.992 93.5334 82.5953 92.7291C83.1985 91.9248 84.6864 88.9088 84.8875 88.7881C85.6113 88.3458 88.6676 90.276 89.6328 90.4369L89.5926 90.3967Z" fill="#175DAA"/>
<path d="M68.4399 96.1073C68.8018 96.5899 67.1932 97.3942 66.6302 97.3138C65.464 97.1529 61.4828 95.102 60.3166 94.4183C59.1504 93.7347 57.9439 93.051 58.2254 92.6489C58.5069 92.2468 60.8796 91.2012 61.2817 90.9197C63.3729 92.8902 65.7053 94.9813 68.3997 96.1476L68.4399 96.1073Z" fill="#175DAA"/>
<path d="M83.6406 96.1071C84.5253 95.5039 85.5307 95.1822 86.4556 94.5387C87.3805 93.8953 90.276 91.2009 90.5173 91.1205C90.9998 91.0401 93.1714 92.4476 93.5736 92.9301C93.5736 93.5736 86.0132 97.4342 84.847 97.1929C83.6808 96.9516 83.3591 96.5092 83.6004 96.0669L83.6406 96.1071Z" fill="#175DAA"/>
<path d="M62.6086 117.903V117.662C62.6086 117.22 62.6891 116.777 62.8499 116.375C63.0108 115.973 63.2119 115.611 63.4531 115.249C63.7749 114.807 64.0966 114.405 64.4585 114.043C64.8204 113.681 65.1824 113.239 65.5443 112.836C65.9062 112.434 66.1877 111.992 66.3888 111.59C66.5899 111.188 66.7105 110.705 66.7105 110.182C66.7105 109.659 66.7105 109.78 66.5899 109.539C66.5094 109.338 66.3888 109.137 66.2279 109.016C66.0671 108.895 65.7856 108.815 65.4639 108.815C64.9813 108.815 64.6596 108.976 64.4585 109.338C64.2574 109.7 64.177 110.102 64.177 110.625V111.228H62.7293C62.7293 111.027 62.6891 110.826 62.6891 110.625C62.6891 109.901 62.8097 109.298 63.0912 108.855C63.3325 108.413 63.6944 108.091 64.1368 107.85C64.5792 107.649 65.0215 107.528 65.5443 107.528C66.0671 107.528 66.5094 107.609 66.9116 107.81C67.3137 107.97 67.6355 108.292 67.8767 108.654C68.118 109.056 68.2387 109.539 68.2387 110.182C68.2387 110.826 68.1582 111.147 67.9974 111.59C67.8365 112.032 67.5952 112.434 67.3137 112.836C67.0322 113.239 66.7507 113.6 66.3888 113.962C66.0671 114.324 65.7454 114.686 65.4639 115.008C65.1422 115.33 64.9009 115.692 64.6998 115.973C64.6194 116.054 64.5792 116.134 64.5389 116.214C64.4987 116.295 64.4585 116.375 64.4183 116.456H68.3191V117.823H62.6891L62.6086 117.903Z" fill="white"/>
<path d="M70.4906 117.903C70.4906 117.059 70.571 116.214 70.7721 115.37C70.9732 114.525 71.1743 113.761 71.496 112.997C71.7775 112.233 72.0992 111.509 72.4611 110.866C72.8231 110.222 73.185 109.619 73.5067 109.096H69.2842V107.729H75.1555V108.654C74.7936 109.177 74.4718 109.74 74.1099 110.383C73.748 111.027 73.4263 111.71 73.1046 112.474C72.7828 113.198 72.5415 113.962 72.3405 114.767C72.1394 115.571 72.059 116.375 72.059 117.179V117.541C72.059 117.622 72.059 117.783 72.059 117.943H70.4906V117.903Z" fill="white"/>
<path d="M78.9758 118.105C78.5335 118.105 78.1313 118.024 77.7694 117.863C77.4075 117.702 77.126 117.421 76.8847 117.019C76.6434 116.617 76.4423 116.094 76.3217 115.41C76.201 114.727 76.1206 113.882 76.1206 112.836C76.1206 111.791 76.201 110.946 76.3217 110.263C76.4423 109.579 76.6434 109.056 76.8847 108.654C77.126 108.252 77.4477 107.971 77.7694 107.81C78.1313 107.649 78.5335 107.568 78.9758 107.568C79.4182 107.568 79.8203 107.649 80.1823 107.81C80.5442 107.971 80.8257 108.252 81.067 108.654C81.3083 109.056 81.5093 109.579 81.63 110.263C81.7506 110.946 81.8311 111.791 81.8311 112.836C81.8311 113.882 81.7506 114.727 81.63 115.41C81.5093 116.094 81.3083 116.617 81.067 117.019C80.8257 117.421 80.504 117.702 80.1823 117.863C79.8203 118.024 79.4584 118.105 78.9758 118.105ZM78.9758 116.858C79.3378 116.858 79.6595 116.697 79.8203 116.416C80.0214 116.134 80.1421 115.732 80.2225 115.209C80.3029 114.686 80.3431 114.043 80.3431 113.319V112.273C80.3431 111.55 80.3431 110.906 80.2225 110.383C80.1421 109.861 80.0214 109.458 79.8203 109.177C79.6193 108.895 79.3378 108.735 78.9758 108.735C78.6139 108.735 78.2922 108.895 78.1313 109.177C77.9705 109.458 77.8096 109.861 77.7292 110.383C77.6488 110.906 77.6085 111.55 77.6085 112.273V113.319C77.6085 114.043 77.6085 114.686 77.7292 115.209C77.8096 115.732 77.9303 116.134 78.1313 116.416C78.3324 116.697 78.6139 116.858 78.9758 116.858Z" fill="white"/>
<path d="M85.7721 118.105C84.8472 118.105 84.1233 117.823 83.6005 117.26C83.1179 116.697 82.8364 115.973 82.8364 115.048V114.887H84.2841V115.089C84.2841 115.692 84.4048 116.134 84.6461 116.416C84.8874 116.737 85.2493 116.858 85.6917 116.858C86.134 116.858 86.496 116.697 86.7775 116.416C87.059 116.134 87.1796 115.692 87.1796 115.048C87.1796 114.405 87.0992 114.204 86.9785 113.962C86.8177 113.721 86.6568 113.52 86.4155 113.44C86.1742 113.359 85.9329 113.279 85.6514 113.279H84.9276V112.072H85.6917C86.0536 112.072 86.3753 111.912 86.6166 111.63C86.8579 111.349 87.0187 110.906 87.0187 110.343C87.0187 109.78 86.8981 109.338 86.6568 109.097C86.4155 108.855 86.134 108.694 85.7721 108.694C85.4102 108.694 85.0884 108.815 84.8471 109.097C84.6059 109.378 84.4852 109.82 84.4852 110.383V110.544H83.0375V110.223C83.0375 109.66 83.1582 109.177 83.3994 108.735C83.6407 108.332 83.9624 107.971 84.3646 107.769C84.7667 107.528 85.2493 107.448 85.7721 107.448C86.5764 107.448 87.2198 107.689 87.7426 108.172C88.2252 108.654 88.4665 109.338 88.4665 110.263C88.4665 111.188 88.3458 111.349 88.1045 111.71C87.8632 112.072 87.5415 112.354 87.1796 112.555C87.622 112.756 87.9839 113.078 88.2654 113.48C88.5469 113.882 88.7077 114.445 88.7077 115.129C88.7077 115.812 88.5871 116.255 88.3458 116.697C88.1045 117.139 87.7828 117.461 87.3405 117.702C86.8981 117.944 86.4155 118.064 85.8525 118.064L85.7721 118.105Z" fill="white"/>
<path d="M93.2519 117.903V115.45H89.3914V114.244C89.7533 113.6 90.075 112.917 90.3967 112.153C90.7184 111.429 91.0401 110.625 91.2814 109.861C91.5629 109.056 91.8042 108.292 92.0053 107.528H93.4128C93.2922 108.212 93.0911 108.895 92.8498 109.579C92.6085 110.263 92.327 110.946 92.0455 111.59C91.764 112.233 91.4825 112.756 91.2412 113.239C90.9999 113.721 90.7989 114.043 90.6782 114.244H93.2519V111.308C93.3324 111.067 93.453 110.826 93.5334 110.584C93.6139 110.343 93.6943 110.102 93.7747 109.82C93.8552 109.579 93.9356 109.298 93.9758 109.056H94.6595V114.244H95.705V115.45H94.6595V117.903H93.2519Z" fill="white"/>
<path d="M38.118 28.7479C37.0322 29.5522 35.9062 29.9141 34.6194 29.8739C33.3325 29.8337 32.1663 29.3109 31.1609 28.3056C30.1556 27.3002 29.7132 26.2144 29.8741 24.9678C30.0751 23.7211 30.799 22.5951 32.0054 21.6702C33.1314 20.8257 34.2172 20.4235 35.2628 20.3833C36.3084 20.3833 37.1529 20.705 37.7963 21.4289C37.0725 21.9115 36.7105 22.1527 36.0269 22.6353C35.6649 22.3136 35.2226 22.1527 34.6998 22.193C34.177 22.193 33.6542 22.4342 33.1314 22.8364C32.3674 23.3994 31.9652 24.0428 31.925 24.8069C31.8848 25.5308 32.2065 26.2546 32.8097 26.898C33.4532 27.5817 34.177 27.9838 34.9411 28.1045C35.7052 28.2251 36.429 28.0241 37.1127 27.5013C37.5952 27.1393 37.917 26.7372 38.0376 26.2948C38.1582 25.8525 38.118 25.4101 37.8767 25.008C38.5604 24.5254 38.8821 24.3243 39.5658 23.882C40.0885 24.7265 40.2092 25.571 39.9277 26.4155C39.6462 27.26 39.043 28.0643 38.0778 28.7881L38.118 28.7479Z" fill="#175DAA"/>
<path d="M45.075 19.6596C45.5174 20.4237 45.7587 20.8258 46.201 21.5899C48.0911 20.6247 49.0563 20.1824 51.0268 19.3379C51.3083 19.9009 51.4289 20.1824 51.6702 20.7052C49.0161 21.791 47.689 22.4344 45.1555 23.8419C43.2654 20.9062 42.3002 19.4183 40.4102 16.4424C43.2654 14.8741 44.7533 14.1502 47.7292 12.9036C48.0107 13.4666 48.1313 13.7481 48.4128 14.2709C46.3217 15.1556 45.2761 15.6381 43.2654 16.6837C43.6675 17.3272 43.8284 17.6489 44.2305 18.2923C46 17.3674 46.8847 16.9652 48.7346 16.2012C49.0161 16.7642 49.1367 17.0457 49.4182 17.6087C47.6488 18.3727 46.764 18.7749 45.0348 19.6596H45.075Z" fill="#175DAA"/>
<path d="M60.3968 13.5068C60.9196 13.5068 61.3217 13.5068 61.6032 13.7079C61.8848 13.8687 62.0858 14.1502 62.2467 14.5122C62.689 15.5577 62.8901 16.0403 63.2923 17.0859C62.488 17.2467 62.0858 17.3674 61.2815 17.5282C60.9598 16.6837 60.799 16.2816 60.437 15.4371C60.2762 15.0752 60.0751 14.8339 59.7936 14.7132C59.5121 14.5926 59.11 14.5926 58.6274 14.7132C57.9035 14.9143 57.5416 14.9947 56.8177 15.236C57.2601 16.5229 57.5014 17.1261 57.9437 18.413C57.1797 18.6543 56.7775 18.7749 56.0134 19.0162C54.7668 15.7588 54.1234 14.1502 52.8767 10.8929C54.8472 10.2494 55.8526 9.92771 57.8231 9.40492C59.0295 9.08321 59.9545 9.12342 60.5979 9.40492C61.2413 9.72664 61.6435 10.2092 61.8043 10.8929C62.0858 11.9786 61.563 12.7829 60.3968 13.3862V13.5068ZM55.5711 11.6971C55.8928 12.5819 56.0134 13.0242 56.3352 13.9089C57.1394 13.6677 57.5416 13.547 58.3459 13.3459C58.9089 13.1851 59.311 12.984 59.5523 12.7025C59.7936 12.421 59.8338 12.0993 59.7534 11.7374C59.673 11.4156 59.4719 11.1744 59.1502 11.0537C58.8284 10.9331 58.4263 10.9331 57.9437 11.0537C56.9786 11.295 56.496 11.4559 55.5711 11.7374V11.6971Z" fill="#175DAA"/>
<path d="M65.6245 7.91677C69.1634 7.35377 70.973 7.19291 74.5119 7.07227C74.5119 7.7157 74.5119 8.03741 74.5923 8.68084C73.3055 8.72106 72.662 8.76127 71.3752 8.88192C71.6165 11.6969 71.7371 13.1044 72.0186 15.8792C71.2143 15.9597 70.8122 15.9999 70.0079 16.0803C69.646 13.2653 69.4851 11.898 69.1232 9.08299C67.8363 9.24385 67.1929 9.32428 65.906 9.52535C65.7854 8.88192 65.7452 8.5602 65.6245 7.95698V7.91677Z" fill="#175DAA"/>
<path d="M81.1875 15.7588C80.3832 15.7186 79.981 15.6783 79.1768 15.6783C79.2974 12.2199 79.3376 10.4907 79.4583 7.03223C80.3832 7.03223 80.8256 7.07244 81.7505 7.11265C81.5092 10.5711 81.3886 12.3003 81.1875 15.7588Z" fill="#175DAA"/>
<path d="M95.102 9.00279C94.9411 9.64622 94.8607 9.92772 94.6596 10.5712C92.5685 10.0886 91.4827 9.88751 89.3513 9.52558C89.2307 10.2494 89.1502 10.6114 88.9894 11.3754C90.799 11.6569 91.6837 11.8178 93.4934 12.2199C93.3325 12.8634 93.2521 13.1449 93.0912 13.7883C91.362 13.3862 90.4773 13.2253 88.7079 12.9438C88.4264 14.3513 88.3057 15.0752 88.0242 16.4827C87.2199 16.362 86.8178 16.2816 86.0537 16.2012C86.5765 12.7829 86.858 11.0537 87.3808 7.6355C90.4773 8.03764 92.0457 8.31914 95.102 9.00279Z" fill="#175DAA"/>
<path d="M98.681 19.0967C97.917 18.8554 97.5148 18.7348 96.7507 18.4935C97.917 15.1959 98.48 13.5471 99.6462 10.2495C100.531 10.531 100.973 10.6517 101.858 10.9332C100.571 14.1905 99.9277 15.8393 98.681 19.0967Z" fill="#175DAA"/>
<path d="M106.965 18.2923C106.523 19.0966 106.322 19.4987 105.919 20.2628C107.85 21.1475 108.815 21.6301 110.665 22.6757C110.343 23.1985 110.142 23.48 109.82 24.0028C107.287 22.5953 106 21.9518 103.346 20.8258C104.914 17.6489 105.678 16.0805 107.206 12.9036C110.222 14.1502 111.67 14.8741 114.525 16.4424C114.204 16.9652 114.003 17.2467 113.681 17.7695C111.67 16.6435 110.665 16.1609 108.614 15.1958C108.252 15.8794 108.091 16.2012 107.729 16.8848C109.539 17.7293 110.423 18.1717 112.193 19.0966C111.871 19.6194 111.67 19.9009 111.348 20.4237C109.659 19.4987 108.775 19.0564 107.005 18.2521L106.965 18.2923Z" fill="#175DAA"/>
<path d="M119.231 19.3379C120.638 20.2628 121.322 20.7454 122.649 21.7508C125.544 23.9223 125.786 26.2146 123.654 28.3459C122.609 29.3513 121.523 29.8741 120.397 29.9545C119.271 30.0349 118.145 29.5926 116.979 28.7481C115.732 27.7829 115.089 27.3406 113.802 26.4961C115.973 23.6408 117.059 22.2333 119.231 19.3781V19.3379ZM116.456 26.3754C116.979 26.7374 117.26 26.9384 117.783 27.3406C118.587 27.9438 119.271 28.1851 119.914 28.1046C120.558 28.0242 121.241 27.6221 121.965 26.858C122.689 26.0939 123.051 25.3701 123.011 24.7266C122.971 24.0832 122.408 23.3996 121.443 22.6757C120.96 22.3138 120.719 22.1529 120.236 21.791C118.748 23.6006 117.984 24.5256 116.496 26.3352L116.456 26.3754Z" fill="#175DAA"/>
<path d="M35.7051 134.271C34.4182 133.507 33.6542 132.461 33.3727 131.174C33.0912 129.927 33.3726 128.681 34.2172 127.515C35.0617 126.348 36.067 125.665 37.2735 125.423C38.4799 125.182 39.6059 125.423 40.7319 126.107C41.7373 126.71 42.3807 127.434 42.7426 128.279C43.1046 129.123 43.1046 130.008 42.7426 130.933C42.059 130.571 41.697 130.37 41.0134 129.968C41.1743 129.485 41.1743 129.043 41.0134 128.6C40.8525 128.198 40.4906 127.836 40.008 127.515C39.2842 127.072 38.6005 126.992 37.9169 127.193C37.193 127.394 36.5898 127.917 36.067 128.721C35.504 129.565 35.3029 130.33 35.4236 131.094C35.5442 131.858 35.9866 132.461 36.7507 132.944C37.3137 133.265 37.8365 133.426 38.319 133.346C38.8016 133.265 39.2038 133.064 39.5255 132.662C40.2493 133.064 40.6113 133.265 41.3351 133.627C40.7721 134.472 40.008 134.994 39.0429 135.115C38.0375 135.236 36.9517 134.954 35.8257 134.23L35.7051 134.271Z" fill="#175DAA"/>
<path d="M52.2735 140.424C51.067 140.987 49.7802 141.027 48.4129 140.504C47.0456 139.981 46.1207 139.097 45.5979 137.89C45.0751 136.684 45.1555 135.437 45.7587 134.11C46.362 132.823 47.2467 131.938 48.3727 131.456C49.4987 131.013 50.6247 131.013 51.8311 131.456C53.0376 131.898 53.8821 132.662 54.4451 133.748C55.0081 134.834 55.0885 136.08 54.6864 137.448C54.244 138.855 53.4799 139.861 52.3137 140.383L52.2735 140.424ZM47.4075 137.408C47.6488 138.131 48.1716 138.654 48.9357 138.976C49.74 139.298 50.504 139.217 51.1475 138.855C51.8311 138.453 52.3137 137.81 52.5952 136.885C52.8767 136 52.9169 135.196 52.6354 134.512C52.3941 133.828 51.8713 133.346 51.1475 133.064C50.4236 132.783 49.74 132.823 49.0965 133.185C48.4531 133.547 47.9303 134.15 47.5684 134.995C47.2065 135.879 47.126 136.724 47.3673 137.448L47.4075 137.408Z" fill="#175DAA"/>
<path d="M64.2172 140.504C65.1421 138.493 65.5845 137.448 66.4692 135.397C67.555 135.558 68.118 135.598 69.2038 135.718C68.882 139.378 68.681 141.188 68.3593 144.847C67.555 144.767 67.1528 144.726 66.3485 144.646C66.5094 143.279 66.5898 142.595 66.7507 141.228C67.0724 139.458 67.193 138.574 67.5148 136.804C67.1126 137.89 66.9115 138.413 66.5094 139.458C65.6649 141.429 65.2627 142.394 64.3378 144.365C63.4531 144.244 63.0107 144.163 62.126 144.003C61.8847 141.831 61.7641 140.745 61.6032 138.574C61.563 137.448 61.5228 136.925 61.4826 135.799C61.2011 137.568 61.0804 138.453 60.7989 140.222C60.5174 141.55 60.3968 142.233 60.1153 143.6C59.311 143.44 58.9089 143.359 58.1448 143.158C58.9893 139.579 59.3914 137.81 60.1957 134.23C61.2413 134.472 61.8043 134.592 62.8499 134.793C63.0107 137.005 63.1314 138.131 63.3727 140.343C63.4129 141.107 63.4531 141.469 63.4933 142.193C63.7748 141.509 63.9357 141.147 64.2172 140.464V140.504Z" fill="#175DAA"/>
<path d="M73.9088 136C75.3968 136 76.1206 136 77.6086 136C78.6139 136 79.4182 136.201 80.0214 136.684C80.6247 137.166 80.9866 137.85 81.067 138.775C81.1474 139.74 80.9062 140.504 80.3029 141.067C79.6997 141.63 78.815 141.952 77.6086 141.992C76.9249 141.992 76.563 141.992 75.8793 141.992C75.8793 143.279 75.8793 143.922 75.8793 145.209C74.9946 145.209 74.5523 145.209 73.7078 145.209C73.7882 141.55 73.8284 139.7 73.9088 136.04V136ZM75.8391 140.383C76.4423 140.383 76.7641 140.383 77.3673 140.383C77.9705 140.383 78.4129 140.223 78.6944 139.981C78.9759 139.74 79.1367 139.378 79.0965 138.936C79.0965 138.493 78.9356 138.172 78.6139 137.971C78.3324 137.729 77.9303 137.649 77.4477 137.649C76.8043 137.649 76.4423 137.649 75.7989 137.649C75.7989 138.735 75.7989 139.298 75.7989 140.424L75.8391 140.383Z" fill="#175DAA"/>
<path d="M94.4184 142.836C93.4935 143.078 93.0511 143.158 92.1262 143.399C91.6838 142.716 91.4426 142.354 91.0404 141.67C89.5927 141.992 88.8286 142.113 87.3809 142.354C87.22 143.158 87.1396 143.56 86.9788 144.365C86.0538 144.485 85.6115 144.566 84.6865 144.686C85.7321 140.866 86.1343 138.936 86.8179 135.075C87.7026 134.914 88.145 134.834 89.0297 134.673C91.0404 138.011 92.1262 139.659 94.4586 142.877L94.4184 142.836ZM87.9037 139.499C87.8233 139.981 87.783 140.222 87.7026 140.705C88.708 140.544 89.1905 140.464 90.1959 140.222C89.9546 139.82 89.834 139.619 89.5525 139.177C89.0297 138.212 88.7482 137.729 88.2254 136.724C88.1048 137.81 88.0243 138.373 87.8635 139.499H87.9037Z" fill="#175DAA"/>
<path d="M103.788 136.241C102.863 134.07 102.421 132.944 101.496 130.772C102.22 130.45 102.582 130.33 103.306 129.968C104.834 133.346 105.598 135.035 107.126 138.373C106.322 138.735 105.919 138.895 105.115 139.257C102.622 137.729 101.456 136.925 99.1634 135.196C99.9677 137.448 100.37 138.533 101.174 140.785C100.33 141.067 99.9275 141.228 99.083 141.509C97.957 138.011 97.3538 136.241 96.2278 132.743C96.9516 132.501 97.3136 132.381 98.0374 132.139C100.249 133.869 101.375 134.713 103.788 136.241Z" fill="#175DAA"/>
<path d="M112.676 128.198C112.595 126.911 112.555 126.228 112.394 124.941C113.118 124.458 113.48 124.217 114.164 123.734C114.405 126.348 114.485 127.635 114.525 130.289C115.29 131.496 115.692 132.099 116.456 133.305C115.692 133.788 115.29 134.029 114.525 134.472C113.802 133.225 113.44 132.622 112.676 131.375C110.343 130.128 109.217 129.445 107.005 128.037C107.769 127.635 108.172 127.434 108.936 126.992C110.021 127.716 110.544 128.037 111.67 128.721C112.113 129.043 112.354 129.204 112.796 129.525C112.716 128.962 112.676 128.681 112.595 128.118L112.676 128.198Z" fill="#175DAA"/>
</svg>
