<svg width="152" height="152" viewBox="0 0 152 152" fill="none" xmlns="http://www.w3.org/2000/svg">
<path d="M76 151C117.421 151 151 117.421 151 76C151 34.5786 117.421 1 76 1C34.5786 1 1 34.5786 1 76C1 117.421 34.5786 151 76 151Z" stroke="#175DAA" stroke-width="1.58" stroke-miterlimit="10"/>
<path d="M76.0001 132.984C107.516 132.984 133.064 107.435 133.064 75.9196C133.064 44.4038 107.516 18.8552 76.0001 18.8552C44.4844 18.8552 18.9358 44.4038 18.9358 75.9196C18.9358 107.435 44.4844 132.984 76.0001 132.984Z" fill="#175DAA"/>
<path d="M96.3083 53.8419C104.029 52.9169 111.188 55.37 113.6 63.2923C117.501 76.1207 105.517 86.3754 93.2117 81.4692C80.504 76.362 82.6353 55.4907 96.3083 53.8419ZM95.4638 79.5791C98.1581 81.992 102.582 81.2681 104.592 78.2923C108.413 72.622 108.493 52.2333 97.756 55.2494C90.4771 57.3003 90.7184 75.3566 95.4638 79.5389V79.5791ZM106.08 77.6891C105.92 77.488 105.115 78.2521 105.075 78.2923C104.995 78.614 106.04 79.0966 105.839 79.9009C105.155 79.6596 103.909 79.6596 103.869 80.6649C104.874 80.3432 106.684 81.1877 106.603 79.8204C106.523 78.4531 106.161 79.6998 106.08 79.4987C105.96 78.9759 106.161 78.2521 106.08 77.6891Z" fill="#FAFCFC"/>
<path d="M60.035 71.9384C60.236 71.9384 60.7186 71.8982 60.7588 71.9384C60.8795 72.059 61.4425 74.6327 61.7642 75.3164C63.0511 78.1716 65.7052 80.6649 68.9224 81.1073C72.1395 81.5496 75.3567 79.5389 74.6328 76.1207C73.6275 71.2145 61.362 70.1287 60.1154 63.2521C58.9492 56.7775 64.1771 52.7963 70.2897 53.5604C76.4023 54.3244 73.9894 55.2896 75.2762 55.2896C76.5631 55.2896 76.362 53.8821 77.0055 53.5202C77.6489 53.1582 77.6087 54.3244 77.6087 54.4049V62.7293C76.4827 63.0108 76.6033 61.362 76.2414 60.4773C74.8741 57.2601 71.9384 54.7668 68.2789 55.0081C64.6194 55.2494 63.0108 58.8687 65.7856 61.4826C68.5604 64.0966 78.4934 66.2279 79.3379 72.5818C80.1824 78.9759 74.8339 83.118 68.8017 82.6354C66.9116 82.4746 63.8553 80.7856 62.6087 80.9062C61.2012 81.0671 61.161 82.7159 59.9545 82.6354V71.9384H60.035Z" fill="#FAFCFC"/>
<path d="M55.0482 54.0027V54.7668C53.6005 54.7668 51.3485 54.8472 51.067 56.6568C51.5898 63.815 50.3431 72.0188 51.067 79.0563C51.2681 81.1475 53.319 81.2681 55.0482 81.1475V81.9115H40.37V81.1475C43.2252 81.1072 44.1501 81.067 44.3512 78.0509C44.8338 71.2949 43.9893 63.9357 44.3512 57.1394C43.9088 54.0429 40.6917 55.2895 40.4102 55.008C40.1287 54.7265 40.37 54.0027 40.4102 54.0027H55.0885H55.0482Z" fill="#FAFCFC"/>
<path d="M92.8901 51.7508C92.8097 51.7105 92.4879 50.665 92.2467 50.303C91.3217 48.8955 90.3164 47.5685 89.2708 46.2816C87.5818 46.925 86.0134 48.051 84.2038 48.2923C84.0027 48.4934 85.8928 51.8312 84.3244 51.7508C82.756 51.6703 83.2386 48.7749 83.0777 48.7749C81.8311 49.1368 80.5442 49.4585 79.2976 49.6998C78.0509 49.9411 76.5228 49.8205 75.6783 50.0215C74.8338 50.2226 75.5174 50.665 74.874 50.7856C73.8284 50.9867 74.4719 50.0618 74.1099 50.0215C73.5067 49.9009 72.5818 50.102 71.8981 50.0215C69.9276 49.8205 68.0777 49.7803 66.0268 49.0162C66.0268 49.539 65.9866 49.9009 65.9062 50.1824C65.8257 50.4639 65.8257 51.8312 65.1823 51.7105C63.6944 51.429 65.2627 49.4183 65.2627 48.4934C64.1367 48.4934 61.1206 46.4827 60.3968 46.4827C59.2708 46.4827 56.9786 51.4693 56.2145 51.429C55.4504 51.3888 55.571 51.228 55.5308 51.228C55.0885 50.665 58.5469 46.4022 59.2708 45.8794C59.2708 45.6784 56.6166 43.9894 56.1743 43.9894C55.4504 43.9894 52.756 46.4022 52.0724 47.1261C51.3887 47.85 48.8954 51.429 48.5737 51.6301C48.252 51.8312 47.7292 51.6301 47.5684 51.3486C47.3673 50.303 52.3941 45.1556 53.4397 44.2709C65.9464 33.1315 85.1287 33.2923 97.1126 45.1556C98.0778 46.1207 101.134 49.5792 101.617 50.6248C102.099 51.6703 101.335 51.9518 100.853 51.6301C100.37 51.3084 98.1582 47.9706 97.5148 47.2467C96.8713 46.5229 94.0965 43.7883 93.5335 43.7481C92.9705 43.7079 91 45.236 90.3968 45.6382C90.3164 45.9197 93.5737 49.6596 93.815 50.665C94.0563 51.6703 93.4129 52.0725 92.8901 51.7105V51.7508ZM67.5148 38.0778C70.933 40.5711 76.5228 40.9331 80.3834 39.1234C84.244 37.3138 82.0724 38.1583 80.4638 37.7159C78.8552 37.2735 73.5469 37.1127 71.1341 37.3942C68.7212 37.6757 68.681 37.8768 67.4745 38.1181L67.5148 38.0778ZM67.5148 39.3245C66.9517 39.3647 66.4692 38.7213 66.067 38.6006C65.2627 38.3996 60.0349 40.8526 59.0697 41.4559C58.1046 42.0591 56.8177 42.9438 57.059 43.3057C57.3003 43.6676 59.9544 45.0752 60.1153 45.0349C60.437 44.9947 62.6086 42.5014 63.2922 42.2199L67.5148 39.3245ZM92.6488 43.0644C90.5174 41.4961 87.8231 39.8875 85.3298 39.0832C82.8365 38.2789 83.8016 38.6408 82.2332 39.3245C83.9625 40.6516 85.8928 41.6971 87.5818 43.0644C87.9839 43.3861 89.0697 44.7132 89.3512 44.7534C90.0349 44.8741 91.8847 43.1851 92.689 43.0644H92.6488ZM70.4906 40.5711C69.8874 40.6516 69.2038 40.0886 68.681 40.1288C67.7158 40.2092 62.1662 44.2307 61.563 45.1556C60.9598 46.0805 61.2011 45.3969 61.3217 45.7588L66.067 47.488C66.63 44.7132 68.7212 42.5416 70.5308 40.5309L70.4906 40.5711ZM88.4263 45.5577C88.5871 45.3567 85.9732 43.2253 85.6515 42.984C84.7668 42.3004 81.5094 40.0081 80.5845 40.0886C79.6595 40.169 79.6997 40.5711 79.1769 40.6113C78.9357 40.9331 81.0268 42.7829 81.3887 43.2655C81.9115 43.9492 83.4799 47.0859 83.681 47.2065C84.4048 47.6489 87.4611 45.7186 88.4263 45.5577ZM74.2306 41.3352C73.185 41.5363 72.3003 40.7722 71.3351 41.3352C70.2493 41.9786 67.0322 46.4827 66.992 47.6891C66.9517 48.8955 67.0322 48.413 67.3539 48.4532C69.1635 48.8151 71.8177 48.8151 74.1903 49.0564V41.3352H74.2306ZM82.6756 47.8097C81.3887 44.9947 79.2574 40.5309 75.4772 41.3754C75.2359 42.5014 75.0751 48.413 75.437 48.976C75.7989 49.539 76.8043 49.0966 77.5684 49.0966C78.3324 49.0966 79.0965 48.8955 79.4987 48.7749C81.2681 48.3727 81.3887 48.3727 82.6756 47.85V47.8097Z" fill="#FAFCFC"/>
<path d="M58.4666 88.9893C57.9841 88.4262 55.1288 85.2895 55.5712 84.6461C56.0136 84.0027 56.1744 84.445 56.2548 84.445C56.8581 84.445 58.2656 87.3002 58.7079 87.8633C59.1503 88.4263 60.1556 89.3914 60.3969 89.3914C61.2012 89.3914 64.0564 87.3405 65.2629 87.3807C65.1825 86.3753 63.5739 84.2037 65.3433 84.1233C67.1127 84.0429 65.9867 86.8177 66.3889 86.8981C67.4747 86.8177 68.5605 86.2949 69.606 86.1742C70.8125 86.0134 73.1851 86.134 73.9894 85.8927C74.7937 85.6514 74.1905 85.1287 74.7937 85.1287C75.3969 85.1287 75.4371 85.7319 75.8393 85.8525C76.8849 86.1742 79.1771 86.2547 80.4237 86.4959C81.6704 86.7372 82.1127 86.9383 82.9573 87.1796C83.7615 86.2145 83.279 84.0027 84.8473 84.445C85.0082 85.6112 84.2843 86.5764 84.0833 87.6622C85.3299 87.5415 88.0243 89.512 88.909 89.4316C90.4371 89.2708 92.6087 84.2037 92.9304 84.1635C93.2522 84.1233 94.1771 84.3244 94.0162 84.7667C93.2924 86.6568 91.3219 88.5067 90.3165 90.2761C90.3567 90.437 93.2522 92.1662 93.413 92.1662C93.8956 92.1662 97.1127 89.0295 97.6355 88.4263C98.2388 87.7426 100.451 84.4852 100.732 84.2842C101.014 84.0831 101.697 84.4048 101.737 84.445C102.14 85.008 98.6007 89.0697 97.9975 89.7131C86.0136 102.461 66.4291 103.225 53.3192 91.6434C52.3138 90.7587 47.287 85.571 47.4479 84.5657C47.6087 84.3244 48.2119 84.1233 48.4532 84.2842C48.8152 84.5254 51.6302 88.4665 52.4345 89.311C53.2388 90.1555 55.169 91.7238 55.4103 91.8043C56.657 92.2064 57.9036 90.5978 59.0296 90.1555C59.1503 89.9946 58.4666 89.2305 58.3058 88.9893H58.4666ZM74.2307 86.8981C71.8581 86.8981 69.4452 87.3405 67.153 87.9035C64.8607 88.4665 66.6704 87.7828 66.7508 88.2654C66.9519 89.3512 67.5149 90.1957 67.5149 90.1957C68.3996 91.4021 70.6516 94.8606 72.0993 94.8606C73.5471 94.8606 74.2307 94.6997 74.2307 94.5791V86.8579V86.8981ZM75.2361 94.6193C76.2817 94.4986 77.1262 95.2225 78.1315 94.6193C79.1369 94.0161 82.8768 89.0697 82.716 88.2654C80.5042 87.2198 77.7294 86.9383 75.2361 86.8981V94.6193ZM70.4908 95.3431C69.5658 94.2171 68.5203 93.252 67.716 92.0456C66.9117 90.8391 66.0672 89.6729 65.7857 88.5067C65.5042 87.3405 62.1664 89.9946 61.3219 90.1555C61.0404 90.5576 63.2924 92.3271 63.6945 92.6488C64.4988 93.2922 68.1181 95.8659 68.8822 95.8257C69.6463 95.7855 69.968 95.3029 70.531 95.3834L70.4908 95.3431ZM88.4264 90.3968C87.4613 90.2359 84.405 88.3056 83.6811 88.748C82.9573 89.1903 81.9117 92.0053 81.3889 92.689C80.8661 93.3726 79.9814 94.0965 79.3379 94.8606C78.6945 95.6246 80.102 95.7453 80.6248 95.8257C81.1476 95.9061 84.1637 93.9758 84.8875 93.4531C85.6114 92.9303 88.5471 90.5978 88.3862 90.3565L88.4264 90.3968ZM67.2736 96.1072C64.5792 94.9812 62.2468 92.8901 60.1556 90.8793C59.7535 91.1608 57.1798 92.4477 57.0993 92.6086C56.7776 93.0509 58.7883 94.1367 59.1905 94.378C60.3567 95.0616 64.338 97.1126 65.5042 97.2734C66.6704 97.4343 67.6758 96.5496 67.3138 96.067L67.2736 96.1072ZM82.4345 96.1072C82.1932 96.5496 83.3192 97.1528 83.6811 97.2332C84.8473 97.4745 92.3674 93.6139 92.4077 92.9705C91.9653 92.4879 89.8339 91.0402 89.3514 91.1608C88.8688 91.2815 86.0538 94.0563 85.2897 94.5791C84.5256 95.1018 83.3594 95.504 82.4747 96.1474L82.4345 96.1072ZM67.5149 97.8364C71.0538 98.6005 74.7133 99.0027 78.2924 98.5603C78.7749 98.4799 81.6704 98.0777 81.6704 97.7158C77.7294 94.7801 71.4157 94.9812 67.4747 97.8364H67.5149Z" fill="#FAFCFC"/>
<path d="M95.4638 79.5792C90.7185 75.3567 90.4772 57.3406 97.7561 55.2897C108.493 52.2736 108.413 72.6221 104.593 78.3326C102.582 81.3085 98.1582 81.9921 95.4638 79.6195V79.5792Z" fill="#175DAA"/>
<path d="M106.08 77.6891C106.161 78.2521 105.96 78.976 106.08 79.4987C106.201 80.0215 106.563 79.6596 106.603 79.8205C106.643 81.1878 104.874 80.3433 103.869 80.665C103.869 79.6596 105.156 79.6596 105.839 79.9009C106.04 79.0966 105.035 78.614 105.075 78.2923C105.115 77.9706 105.92 77.488 106.08 77.6891Z" fill="#FCFDFD"/>
<path d="M74.2306 41.3351V49.0563C71.9786 48.9357 69.5255 48.7346 67.3941 48.051C65.2628 47.3673 66.992 48.252 67.0322 47.689C67.0724 46.4826 70.2896 41.9786 71.3754 41.3351C72.3405 40.7721 73.185 41.5362 74.2708 41.3351H74.2306Z" fill="#175DAA"/>
<path d="M82.6755 47.8096C81.63 47.89 80.4235 48.5736 79.4986 48.7345C78.5737 48.8954 78.8552 48.5737 78.6139 48.6139C77.89 48.7345 76.2814 49.4986 75.4369 48.9356C74.5924 48.3726 75.2359 42.5013 75.4772 41.335C79.2171 40.4905 81.3887 44.9543 82.6755 47.7694V47.8096Z" fill="#175DAA"/>
<path d="M67.5146 38.0777C68.7211 37.8364 69.9275 37.5147 71.1742 37.3538C73.5468 37.0723 78.2117 36.9919 80.5039 37.6756C82.7961 38.3592 81.5495 38.5603 80.4235 39.0831C76.5629 40.9329 70.9731 40.5308 67.5549 38.0375L67.5146 38.0777Z" fill="#175DAA"/>
<path d="M88.4263 45.5577C87.4611 45.7185 84.4048 47.6488 83.6809 47.2065C82.9571 46.7641 81.9517 43.9491 81.3887 43.2654C80.8257 42.5818 78.9356 40.933 79.1769 40.6113C79.6595 40.6113 80.1019 40.1689 80.5844 40.0885C81.4691 40.0081 84.7265 42.3003 85.6515 42.9839C86.5764 43.6676 88.5871 45.3566 88.4263 45.5577Z" fill="#175DAA"/>
<path d="M70.4908 40.5709C68.6409 42.6219 66.5498 44.7532 66.027 47.528L61.2817 45.7988C61.161 45.4369 61.4023 45.3967 61.5229 45.1956C62.1664 44.2707 67.6758 40.2492 68.6409 40.1688C69.6061 40.0884 69.8473 40.6916 70.4506 40.6111L70.4908 40.5709Z" fill="#175DAA"/>
<path d="M67.5147 39.3244L63.2922 42.2199C62.6086 42.5014 60.437 44.9947 60.1153 45.0349C59.7935 45.0751 57.1394 43.4665 57.059 43.3056C56.8177 42.9437 58.6675 41.6971 59.0697 41.4558C60.0348 40.8526 65.2627 38.3995 66.067 38.6005C66.8713 38.8016 66.9115 39.3646 67.5147 39.3244Z" fill="#175DAA"/>
<path d="M92.6486 43.0645C91.8443 43.1851 89.9945 44.9143 89.3108 44.7535C88.6272 44.5926 87.9435 43.3862 87.5414 43.0645C85.8524 41.6972 83.9221 40.6516 82.1929 39.3245C83.7612 38.6409 83.721 38.5604 85.2894 39.0832C87.8229 39.8875 90.5173 41.4961 92.6084 43.0645H92.6486Z" fill="#175DAA"/>
<path d="M74.2305 86.8982V94.6194C74.2305 94.74 72.2198 94.9009 72.0991 94.9009C70.6514 94.9009 68.7211 91.0805 67.5147 90.236C67.2734 89.5926 66.7908 89.0296 66.7506 88.3057C66.7104 87.5818 66.7908 88.0242 67.1528 87.9438C69.445 87.3808 71.8579 86.9384 74.2305 86.9384V86.8982Z" fill="#175DAA"/>
<path d="M75.2361 94.6194V86.8982C77.6892 86.9384 80.5042 87.2199 82.716 88.2655C82.8768 89.0698 78.976 94.1368 78.1315 94.6194C77.287 95.102 76.3219 94.4987 75.2361 94.6194Z" fill="#175DAA"/>
<path d="M67.5146 97.8364C71.4557 94.9811 77.7291 94.7801 81.7104 97.7157C81.7104 98.0777 78.8149 98.4798 78.3323 98.5602C74.713 99.0428 71.0535 98.6406 67.5549 97.8364H67.5146Z" fill="#175DAA"/>
<path d="M70.4907 95.3431C69.9277 95.2627 69.2842 95.7453 68.8419 95.7855C68.0778 95.7855 64.4585 93.252 63.6542 92.6086C62.8499 91.9651 61.0001 90.5174 61.2816 90.1153C62.1261 89.9946 65.1824 88.1448 65.7454 88.4665C66.3084 88.7882 67.2333 91.3619 67.6757 92.0053C68.4799 93.2118 69.5255 94.2171 70.4505 95.3029L70.4907 95.3431Z" fill="#175DAA"/>
<path d="M88.4263 90.3969C88.5872 90.598 85.2896 93.212 84.9277 93.4935C84.2038 93.976 81.2681 95.9063 80.6649 95.8661C80.0617 95.8259 78.8955 95.464 79.3781 94.901C79.8606 94.338 80.8258 93.5337 81.429 92.7294C82.0322 91.9251 83.5201 88.909 83.7212 88.7884C84.4451 88.346 87.5014 90.2763 88.4665 90.4372L88.4263 90.3969Z" fill="#175DAA"/>
<path d="M67.2734 96.1074C67.6353 96.5899 66.0267 97.3942 65.4637 97.3138C64.2975 97.1529 60.3163 95.102 59.1501 94.4183C57.9839 93.7347 56.7774 93.0511 57.0589 92.6489C57.3404 92.2468 59.7131 91.2012 60.1152 90.9197C62.2064 92.8902 64.5388 94.9813 67.2332 96.1476L67.2734 96.1074Z" fill="#175DAA"/>
<path d="M82.4343 96.1073C83.319 95.5041 84.3244 95.1824 85.2493 94.539C86.1742 93.8955 89.0697 91.2012 89.311 91.1207C89.7935 91.0403 91.9651 92.4478 92.3673 92.9304C92.3673 93.5738 84.8069 97.4344 83.6407 97.1931C82.4745 96.9518 82.1528 96.5095 82.3941 96.0671L82.4343 96.1073Z" fill="#175DAA"/>
<path d="M49.6595 103.145C50.7051 102.18 52.7158 102.823 53.0375 104.271C53.3592 105.718 53.5201 110.584 51.6702 111.027C47.89 111.871 48.5335 104.23 49.6595 103.185V103.145Z" fill="#175DAA"/>
<path d="M41.5763 102.622C44.2707 102.26 45.839 107.649 41.6165 107.206C38.8819 106.925 39.0428 102.944 41.5763 102.622Z" fill="#175DAA"/>
<path d="M92.4478 110.745C91.3218 109.82 91.362 104.432 92.2467 103.346C93.1315 102.26 95.0617 102.823 95.5443 103.788C96.0269 104.753 96.1475 110.062 94.9411 110.786C93.7347 111.51 93.0108 111.228 92.4076 110.745H92.4478Z" fill="#175DAA"/>
<path d="M61.4825 110.745C60.3565 111.831 58.3458 110.826 58.0643 109.177C57.7828 107.448 57.5817 102.863 59.9544 102.662C62.327 102.461 62.6487 109.619 61.4423 110.745H61.4825Z" fill="#175DAA"/>
<path d="M36.9115 28.7479C35.8257 29.5522 34.6997 29.9141 33.4128 29.8739C32.126 29.8337 30.9597 29.3109 29.9544 28.3056C28.949 27.3002 28.5067 26.2144 28.6675 24.9678C28.8686 23.7211 29.5925 22.5951 30.7989 21.6702C31.9249 20.8257 33.0107 20.4235 34.0563 20.3833C35.1018 20.3833 35.9463 20.705 36.5898 21.4289C35.8659 21.9115 35.504 22.1527 34.8203 22.6353C34.4584 22.3136 34.016 22.1527 33.4933 22.193C32.9705 22.193 32.4477 22.4342 31.9249 22.8364C31.1608 23.3994 30.7587 24.0428 30.7185 24.8069C30.6782 25.5308 31 26.2546 31.6032 26.898C32.2466 27.5817 32.9705 27.9838 33.7345 28.1045C34.4986 28.2251 35.2225 28.0241 35.9061 27.5013C36.3887 27.1393 36.7104 26.7372 36.8311 26.2948C36.9517 25.8525 36.9115 25.4101 36.6702 25.008C37.3538 24.5254 37.6756 24.3243 38.3592 23.882C38.882 24.7265 39.0026 25.571 38.7211 26.4155C38.4396 27.26 37.8364 28.0643 36.8713 28.7881L36.9115 28.7479Z" fill="#175DAA"/>
<path d="M43.8687 19.6596C44.3111 20.4237 44.5524 20.8258 44.9947 21.5899C46.8848 20.6247 47.85 20.1824 49.8205 19.3379C50.102 19.9009 50.2226 20.1824 50.4639 20.7052C47.8098 21.791 46.4827 22.4344 43.9492 23.8419C42.0591 20.9062 41.0939 19.4183 39.2039 16.4424C42.0591 14.8741 43.547 14.1502 46.5229 12.9036C46.8044 13.4666 46.925 13.7481 47.2065 14.2709C45.1154 15.1556 44.0698 15.6381 42.0591 16.6837C42.4612 17.3272 42.6221 17.6489 43.0242 18.2923C44.7937 17.3674 45.6784 16.9652 47.5283 16.2012C47.8098 16.7642 47.9304 17.0457 48.2119 17.6087C46.4425 18.3727 45.5577 18.7749 43.8285 19.6596H43.8687Z" fill="#175DAA"/>
<path d="M59.1903 13.5068C59.7131 13.5068 60.1152 13.5068 60.3967 13.7079C60.6782 13.8687 60.8793 14.1502 61.0401 14.5122C61.4825 15.5577 61.6836 16.0403 62.0857 17.0859C61.2814 17.2467 60.8793 17.3674 60.075 17.5283C59.7533 16.6837 59.5924 16.2816 59.2305 15.4371C59.0696 15.0752 58.8686 14.8339 58.5871 14.7132C58.3056 14.5926 57.9034 14.5926 57.4208 14.7132C56.697 14.9143 56.335 14.9947 55.6112 15.236C56.0535 16.5229 56.2948 17.1261 56.7372 18.413C55.9731 18.6543 55.571 18.7749 54.8069 19.0162C53.5602 15.7588 52.9168 14.1502 51.6702 10.8929C53.6407 10.2494 54.646 9.92771 56.6165 9.40492C57.823 9.08321 58.7479 9.12342 59.3913 9.40492C60.0348 9.72664 60.4369 10.2092 60.5978 10.8929C60.8793 11.9787 60.3565 12.7829 59.1903 13.3862V13.5068ZM54.4048 11.6972C54.7265 12.5819 54.8471 13.0242 55.1688 13.9089C55.9731 13.6677 56.3753 13.547 57.1795 13.3459C57.7426 13.1851 58.1447 12.984 58.386 12.7025C58.6273 12.421 58.6675 12.0993 58.5871 11.7374C58.5066 11.4156 58.3056 11.1744 57.9838 11.0537C57.6621 10.9331 57.26 10.9331 56.7774 11.0537C55.8123 11.295 55.3297 11.4559 54.4048 11.7374V11.6972Z" fill="#175DAA"/>
<path d="M64.4182 7.91701C67.9571 7.35401 69.7667 7.19315 73.3056 7.07251C73.3056 7.71594 73.3056 8.03766 73.386 8.68109C72.0992 8.7213 71.4557 8.76152 70.1689 8.88216C70.4102 11.6972 70.5308 13.1047 70.8123 15.8795C70.008 15.9599 69.6059 16.0001 68.8016 16.0805C68.4397 13.2655 68.2788 11.8982 67.9169 9.08323C66.63 9.24409 65.9866 9.32452 64.6997 9.52559C64.5791 8.88216 64.5389 8.56044 64.4182 7.95723V7.91701Z" fill="#175DAA"/>
<path d="M79.9812 15.7588C79.1769 15.7186 78.7747 15.6783 77.9705 15.6783C78.0911 12.2199 78.1313 10.4907 78.252 7.03223C79.1769 7.03223 79.6193 7.07244 80.5442 7.11266C80.3029 10.5711 80.1823 12.3003 79.9812 15.7588Z" fill="#175DAA"/>
<path d="M93.8954 9.00279C93.7346 9.64622 93.6541 9.92772 93.4531 10.5712C91.3619 10.0886 90.2761 9.88751 88.1448 9.52558C88.0241 10.2494 87.9437 10.6114 87.7828 11.3754C89.5925 11.6569 90.4772 11.8178 92.2869 12.2199C92.126 12.8634 92.0456 13.1449 91.8847 13.7883C90.1555 13.3862 89.2708 13.2253 87.5013 12.9438C87.2198 14.3513 87.0992 15.0752 86.8177 16.4827C86.0134 16.362 85.6112 16.2816 84.8472 16.2012C85.37 12.783 85.6515 11.0537 86.1742 7.6355C89.2708 8.03764 90.8391 8.31914 93.8954 9.00279Z" fill="#175DAA"/>
<path d="M97.4745 19.0965C96.7104 18.8552 96.3083 18.7345 95.5442 18.4932C96.7104 15.1956 97.2734 13.5469 98.4396 10.2493C99.3244 10.5308 99.7667 10.6514 100.651 10.9329C99.3646 14.1903 98.7211 15.8391 97.4745 19.0965Z" fill="#175DAA"/>
<path d="M105.759 18.2923C105.316 19.0966 105.115 19.4987 104.713 20.2628C106.643 21.1475 107.609 21.6301 109.458 22.6757C109.137 23.1985 108.936 23.48 108.614 24.0028C106.08 22.5953 104.794 21.9518 102.139 20.8258C103.708 17.6489 104.472 16.0805 106 12.9036C109.016 14.1502 110.464 14.8741 113.319 16.4424C112.997 16.9652 112.796 17.2467 112.475 17.7695C110.464 16.6435 109.458 16.1609 107.407 15.1958C107.046 15.8794 106.885 16.2011 106.523 16.8848C108.332 17.7293 109.217 18.1717 110.987 19.0966C110.665 19.6194 110.464 19.9009 110.142 20.4237C108.453 19.4987 107.568 19.0564 105.799 18.2521L105.759 18.2923Z" fill="#175DAA"/>
<path d="M118.024 19.3379C119.432 20.2628 120.115 20.7454 121.442 21.7508C124.338 23.9223 124.579 26.2146 122.448 28.3459C121.402 29.3513 120.316 29.8741 119.19 29.9545C118.064 30.0349 116.938 29.5926 115.772 28.7481C114.526 27.7829 113.882 27.3406 112.595 26.4961C114.767 23.6408 115.853 22.2333 118.024 19.3781V19.3379ZM115.29 26.3754C115.812 26.7374 116.094 26.9384 116.617 27.3406C117.421 27.9438 118.105 28.1851 118.748 28.1046C119.391 28.0242 120.075 27.6221 120.799 26.858C121.523 26.0939 121.885 25.3701 121.845 24.7266C121.804 24.0832 121.241 23.3996 120.276 22.6757C119.794 22.3138 119.552 22.1529 119.07 21.791C117.582 23.6006 116.818 24.5256 115.33 26.3352L115.29 26.3754Z" fill="#175DAA"/>
<path d="M36.4988 134.271C35.2119 133.507 34.4479 132.461 34.1664 131.174C33.8849 129.928 34.1664 128.681 35.0109 127.515C35.8554 126.349 36.8607 125.665 38.0672 125.424C39.2736 125.182 40.3996 125.424 41.5256 126.107C42.531 126.71 43.1744 127.434 43.5363 128.279C43.8983 129.123 43.8983 130.008 43.5363 130.933C42.8527 130.571 42.4908 130.37 41.8071 129.968C41.968 129.485 41.968 129.043 41.8071 128.601C41.6462 128.198 41.2843 127.837 40.8017 127.515C40.0779 127.072 39.3942 126.992 38.7106 127.193C37.9867 127.394 37.3835 127.917 36.8607 128.721C36.2977 129.566 36.0967 130.33 36.2173 131.094C36.3379 131.858 36.7803 132.461 37.5444 132.944C38.1074 133.265 38.6302 133.426 39.1127 133.346C39.5953 133.265 39.9975 133.064 40.3192 132.662C41.043 133.064 41.405 133.265 42.1288 133.627C41.5658 134.472 40.8017 134.995 39.8366 135.115C38.8312 135.236 37.7454 134.954 36.6194 134.231L36.4988 134.271Z" fill="#175DAA"/>
<path d="M53.0672 140.424C51.8607 140.987 50.5739 141.027 49.2066 140.504C47.8393 139.981 46.9144 139.097 46.3916 137.89C45.8688 136.684 45.9492 135.437 46.5524 134.11C47.1557 132.823 48.0404 131.938 49.1664 131.456C50.2924 131.013 51.4184 131.013 52.6248 131.456C53.8313 131.898 54.6758 132.662 55.2388 133.748C55.8018 134.834 55.8822 136.08 55.48 137.448C55.0377 138.855 54.2736 139.861 53.1074 140.383L53.0672 140.424ZM48.2414 137.408C48.4827 138.131 49.0055 138.654 49.7696 138.976C50.5739 139.298 51.338 139.217 51.9814 138.855C52.665 138.453 53.1476 137.81 53.4291 136.885C53.7106 136 53.7508 135.196 53.4693 134.512C53.228 133.828 52.7053 133.346 51.9814 133.064C51.2575 132.783 50.5739 132.823 49.9305 133.185C49.287 133.547 48.7642 134.15 48.4023 134.995C48.0404 135.879 47.9599 136.724 48.2012 137.448L48.2414 137.408Z" fill="#175DAA"/>
<path d="M65.0109 140.504C65.9358 138.493 66.3782 137.448 67.2629 135.397C68.3487 135.558 68.9117 135.598 69.9975 135.718C69.6757 139.378 69.4747 141.188 69.153 144.847C68.3487 144.767 67.9465 144.726 67.1422 144.646C67.3031 143.279 67.3835 142.595 67.5444 141.228C67.8661 139.458 67.9867 138.574 68.3085 136.804C67.9063 137.89 67.7052 138.413 67.3031 139.458C66.4586 141.429 66.0564 142.394 65.1315 144.365C64.2468 144.244 63.8044 144.163 62.9197 144.003C62.6784 141.831 62.5578 140.745 62.3969 138.574C62.3567 137.448 62.3165 136.925 62.2763 135.799C61.9948 137.568 61.8741 138.453 61.5926 140.222C61.3111 141.55 61.1905 142.233 60.909 143.6C60.1047 143.44 59.7026 143.359 58.9385 143.158C59.783 139.579 60.1851 137.81 60.9894 134.23C62.035 134.472 62.598 134.592 63.6436 134.793C63.8044 137.005 63.9251 138.131 64.1664 140.343C64.2066 141.107 64.2468 141.469 64.287 142.193C64.5685 141.509 64.7294 141.147 65.0109 140.464V140.504Z" fill="#175DAA"/>
<path d="M74.7025 136C76.1905 136 76.9143 136 78.4023 136C79.4076 136 80.2119 136.201 80.8151 136.684C81.4184 137.166 81.7803 137.85 81.8607 138.775C81.9411 139.74 81.6999 140.504 81.0966 141.067C80.4934 141.63 79.6087 141.952 78.4023 141.992C77.7186 141.992 77.3567 141.992 76.673 141.992C76.673 143.279 76.673 143.922 76.673 145.209C75.7883 145.209 75.346 145.209 74.5015 145.209C74.5819 141.55 74.6221 139.7 74.7025 136.04V136ZM76.6328 140.383C77.2361 140.383 77.5578 140.383 78.161 140.383C78.7642 140.383 79.2066 140.223 79.4881 139.981C79.7696 139.74 79.9304 139.378 79.8902 138.936C79.8902 138.493 79.7293 138.172 79.4076 137.971C79.1261 137.729 78.724 137.649 78.2414 137.649C77.598 137.649 77.236 137.649 76.5926 137.649C76.5926 138.735 76.5926 139.298 76.5926 140.424L76.6328 140.383Z" fill="#175DAA"/>
<path d="M95.2119 142.836C94.287 143.078 93.8446 143.158 92.9197 143.399C92.4773 142.716 92.236 142.354 91.8339 141.67C90.3861 141.992 89.6221 142.113 88.1743 142.354C88.0135 143.158 87.9331 143.56 87.7722 144.365C86.8473 144.485 86.4049 144.566 85.48 144.686C86.5256 140.866 86.9277 138.936 87.6113 135.075C88.4961 134.914 88.9384 134.834 89.8231 134.673C91.8339 138.011 92.9197 139.659 95.2521 142.877L95.2119 142.836ZM88.6971 139.499C88.6167 139.981 88.5765 140.222 88.4961 140.705C89.5014 140.544 89.984 140.464 90.9894 140.222C90.7481 139.82 90.6274 139.619 90.3459 139.177C89.8231 138.212 89.5416 137.729 89.0189 136.724C88.8982 137.81 88.8178 138.373 88.6569 139.499H88.6971Z" fill="#175DAA"/>
<path d="M104.582 136.241C103.657 134.07 103.215 132.944 102.29 130.772C103.013 130.45 103.375 130.33 104.099 129.968C105.627 133.346 106.391 135.035 107.92 138.373C107.115 138.735 106.713 138.895 105.909 139.257C103.416 137.729 102.249 136.925 99.9571 135.196C100.761 137.448 101.164 138.533 101.968 140.785C101.123 141.067 100.721 141.228 99.8767 141.509C98.7507 138.011 98.1475 136.241 97.0215 132.743C97.7453 132.501 98.1073 132.381 98.8311 132.139C101.043 133.869 102.169 134.713 104.582 136.241Z" fill="#175DAA"/>
<path d="M113.469 128.198C113.389 126.912 113.349 126.228 113.188 124.941C113.912 124.458 114.274 124.217 114.957 123.735C115.199 126.349 115.279 127.635 115.319 130.29C116.083 131.496 116.485 132.099 117.249 133.306C116.485 133.788 116.083 134.03 115.319 134.472C114.595 133.225 114.233 132.622 113.469 131.375C111.137 130.129 110.011 129.445 107.799 128.038C108.563 127.635 108.965 127.434 109.729 126.992C110.815 127.716 111.338 128.038 112.464 128.721C112.906 129.043 113.148 129.204 113.59 129.526C113.51 128.962 113.469 128.681 113.389 128.118L113.469 128.198Z" fill="#175DAA"/>
<path d="M43.1045 117.139V116.898C43.1045 116.416 43.1849 115.973 43.3458 115.571C43.5066 115.169 43.7077 114.767 43.9892 114.405C44.3109 113.962 44.6729 113.52 45.075 113.118C45.4771 112.716 45.8391 112.314 46.201 111.871C46.5629 111.429 46.8444 111.027 47.0857 110.544C47.327 110.102 47.4477 109.619 47.4477 109.096C47.4477 108.574 47.4477 108.654 47.327 108.453C47.2466 108.212 47.1259 108.051 46.9249 107.89C46.7238 107.729 46.4825 107.689 46.1206 107.689C45.638 107.689 45.2761 107.89 45.075 108.252C44.8739 108.614 44.7533 109.056 44.7533 109.579V110.222H43.2654C43.2654 109.981 43.2251 109.78 43.2251 109.619C43.2251 108.855 43.3458 108.252 43.6273 107.769C43.9088 107.287 44.2707 106.965 44.7131 106.724C45.1554 106.483 45.638 106.402 46.1608 106.402C46.6836 106.402 47.1662 106.483 47.5683 106.684C48.0107 106.885 48.3324 107.166 48.5737 107.568C48.815 107.97 48.9356 108.493 48.9356 109.137C48.9356 109.78 48.8552 110.142 48.6541 110.625C48.4932 111.067 48.2519 111.509 47.9302 111.952C47.6487 112.354 47.327 112.756 46.9651 113.118C46.6434 113.48 46.2814 113.842 45.9999 114.204C45.6782 114.566 45.3967 114.887 45.1956 115.209C45.1152 115.29 45.075 115.41 45.0348 115.491C44.9946 115.571 44.9544 115.651 44.9141 115.732H48.9758V117.18H43.1045V117.139Z" fill="white"/>
<path d="M51.3486 117.139C51.3486 116.255 51.429 115.37 51.6301 114.525C51.8311 113.681 52.0724 112.836 52.3539 112.032C52.6756 111.228 52.9974 110.504 53.3593 109.82C53.7212 109.137 54.0831 108.533 54.4451 107.97H50.0215V106.523H56.1743V107.488C55.8124 108.011 55.4504 108.614 55.0483 109.298C54.6461 109.981 54.3244 110.705 54.0027 111.469C53.681 112.233 53.4397 113.037 53.2386 113.842C53.0376 114.646 52.9169 115.491 52.9169 116.335V116.697C52.9169 116.777 52.9169 116.938 52.9169 117.139H51.3083H51.3486Z" fill="white"/>
<path d="M60.1957 117.341C59.7131 117.341 59.3109 117.26 58.949 117.099C58.5871 116.938 58.2654 116.657 58.0241 116.215C57.7828 115.812 57.5817 115.249 57.4611 114.526C57.3404 113.802 57.26 112.917 57.26 111.831C57.26 110.745 57.3404 109.861 57.4611 109.137C57.5817 108.413 57.7828 107.85 58.0241 107.448C58.2654 107.046 58.5871 106.724 58.949 106.563C59.3109 106.402 59.7131 106.322 60.1957 106.322C60.6782 106.322 61.0804 106.402 61.4423 106.563C61.8042 106.724 62.126 107.046 62.3672 107.448C62.6085 107.85 62.8096 108.413 62.9705 109.137C63.0911 109.861 63.1715 110.745 63.1715 111.831C63.1715 112.917 63.0911 113.802 62.9705 114.526C62.8498 115.249 62.6487 115.812 62.3672 116.215C62.126 116.617 61.8042 116.938 61.4423 117.099C61.0804 117.26 60.6782 117.341 60.1957 117.341ZM60.1957 116.094C60.5978 116.094 60.8793 115.933 61.0804 115.652C61.2815 115.37 61.4423 114.928 61.5227 114.365C61.6032 113.802 61.6434 113.158 61.6434 112.394V111.308C61.6434 110.544 61.6032 109.901 61.5227 109.338C61.4423 108.775 61.2815 108.373 61.0804 108.051C60.8793 107.769 60.5576 107.609 60.1957 107.609C59.8337 107.609 59.512 107.769 59.3109 108.051C59.1099 108.332 58.949 108.775 58.8686 109.338C58.7882 109.901 58.7479 110.544 58.7479 111.308V112.394C58.7479 113.158 58.7882 113.802 58.8686 114.365C58.949 114.928 59.1099 115.33 59.3109 115.652C59.512 115.933 59.8337 116.094 60.1957 116.094Z" fill="white"/>
<path d="M67.2333 117.341C66.7507 117.341 66.3485 117.26 65.9866 117.099C65.6247 116.938 65.303 116.657 65.0617 116.215C64.8204 115.812 64.6193 115.249 64.4987 114.526C64.378 113.802 64.2976 112.917 64.2976 111.831C64.2976 110.745 64.378 109.861 64.4987 109.137C64.6193 108.413 64.8204 107.85 65.0617 107.448C65.303 107.046 65.6247 106.724 65.9866 106.563C66.3485 106.402 66.7507 106.322 67.2333 106.322C67.7158 106.322 68.118 106.402 68.4799 106.563C68.8418 106.724 69.1636 107.046 69.4048 107.448C69.6461 107.85 69.8472 108.413 70.0081 109.137C70.1287 109.861 70.2091 110.745 70.2091 111.831C70.2091 112.917 70.1287 113.802 70.0081 114.526C69.8874 115.249 69.6863 115.812 69.4048 116.215C69.1636 116.617 68.8418 116.938 68.4799 117.099C68.118 117.26 67.7158 117.341 67.2333 117.341ZM67.2333 116.094C67.6354 116.094 67.9169 115.933 68.118 115.652C68.3191 115.37 68.4799 114.928 68.5603 114.365C68.6408 113.802 68.681 113.158 68.681 112.394V111.308C68.681 110.544 68.6408 109.901 68.5603 109.338C68.4799 108.775 68.3191 108.373 68.118 108.051C67.9169 107.769 67.5952 107.609 67.2333 107.609C66.8713 107.609 66.5496 107.769 66.3485 108.051C66.1475 108.332 65.9866 108.775 65.9062 109.338C65.8258 109.901 65.7855 110.544 65.7855 111.308V112.394C65.7855 113.158 65.8258 113.802 65.9062 114.365C65.9866 114.928 66.1475 115.33 66.3485 115.652C66.5496 115.933 66.8713 116.094 67.2333 116.094Z" fill="white"/>
<path d="M71.4961 117.139V115.852H73.9894V108.574H71.4961V107.608C71.7776 107.608 72.1395 107.528 72.5015 107.407C72.8634 107.287 73.3057 107.166 73.7079 107.005C74.11 106.844 74.472 106.643 74.7937 106.482H75.4371V115.852H77.7293V117.139H71.5363H71.4961Z" fill="white"/>
<path d="M78.7747 110.826V109.016H80.5039V110.826H78.7747ZM78.7747 117.139V115.33H80.5039V117.139H78.7747Z" fill="white"/>
<path d="M82.1528 117.139V116.898C82.1528 116.416 82.2333 115.973 82.3941 115.571C82.555 115.169 82.756 114.767 83.0375 114.405C83.3593 113.962 83.7212 113.52 84.1233 113.118C84.5255 112.716 84.8874 112.314 85.2493 111.871C85.6113 111.429 85.8928 111.027 86.1341 110.544C86.3753 110.102 86.496 109.619 86.496 109.096C86.496 108.574 86.496 108.654 86.3754 108.453C86.2949 108.212 86.1743 108.051 85.9732 107.89C85.7721 107.729 85.5308 107.689 85.1689 107.689C84.6863 107.689 84.3244 107.89 84.1233 108.252C83.9223 108.614 83.8016 109.056 83.8016 109.579V110.222H82.3137C82.3137 109.981 82.2735 109.78 82.2735 109.619C82.2735 108.855 82.3941 108.252 82.6756 107.769C82.9571 107.287 83.3191 106.965 83.7614 106.724C84.2038 106.483 84.6863 106.402 85.2091 106.402C85.7319 106.402 86.2145 106.483 86.6166 106.684C87.059 106.885 87.3807 107.166 87.622 107.568C87.8633 107.97 87.9839 108.493 87.9839 109.137C87.9839 109.78 87.9035 110.142 87.7024 110.625C87.5014 111.107 87.3003 111.509 86.9786 111.952C86.6971 112.354 86.3754 112.756 86.0536 113.118C85.7319 113.48 85.37 113.842 85.0885 114.204C84.807 114.566 84.4853 114.887 84.2842 115.209C84.2038 115.29 84.1636 115.41 84.1233 115.491C84.0831 115.571 84.0429 115.651 84.0027 115.732H88.0644V117.18H82.193L82.1528 117.139Z" fill="white"/>
<path d="M92.2064 117.341C91.7238 117.341 91.3217 117.26 90.9598 117.099C90.5978 116.938 90.2761 116.657 90.0348 116.215C89.7935 115.812 89.5925 115.249 89.4718 114.526C89.3512 113.802 89.2708 112.917 89.2708 111.831C89.2708 110.745 89.3512 109.861 89.4718 109.137C89.5925 108.413 89.7935 107.85 90.0348 107.448C90.2761 107.046 90.5978 106.724 90.9598 106.563C91.3217 106.402 91.7238 106.322 92.2064 106.322C92.689 106.322 93.0911 106.402 93.4531 106.563C93.815 106.724 94.1367 107.046 94.378 107.448C94.6193 107.85 94.8203 108.413 94.9812 109.137C95.1019 109.861 95.1823 110.745 95.1823 111.831C95.1823 112.917 95.1019 113.802 94.9812 114.526C94.8606 115.249 94.6595 115.812 94.378 116.215C94.1367 116.617 93.815 116.938 93.4531 117.099C93.0911 117.26 92.689 117.341 92.2064 117.341ZM92.2064 116.094C92.6086 116.094 92.8901 115.933 93.0911 115.652C93.2922 115.37 93.4531 114.928 93.5335 114.365C93.6139 113.802 93.6541 113.158 93.6541 112.394V111.308C93.6541 110.544 93.6139 109.901 93.5335 109.338C93.4531 108.775 93.2922 108.373 93.0911 108.051C92.8901 107.729 92.5683 107.609 92.2064 107.609C91.8445 107.609 91.5228 107.769 91.3217 108.051C91.1206 108.332 90.9598 108.775 90.8793 109.338C90.7989 109.901 90.7587 110.544 90.7587 111.308V112.394C90.7587 113.158 90.7989 113.802 90.8793 114.365C90.9598 114.928 91.1206 115.33 91.3217 115.652C91.5228 115.933 91.8445 116.094 92.2064 116.094Z" fill="white"/>
<path d="M96.3083 117.139V116.898C96.3083 116.416 96.3888 115.973 96.5496 115.571C96.7105 115.169 96.9116 114.767 97.1931 114.405C97.5148 113.962 97.8767 113.52 98.2789 113.118C98.681 112.716 99.0429 112.314 99.4049 111.871C99.7668 111.429 100.048 111.027 100.29 110.544C100.531 110.102 100.652 109.619 100.652 109.096C100.652 108.574 100.652 108.654 100.531 108.453C100.45 108.212 100.33 108.051 100.129 107.89C99.9277 107.729 99.6864 107.689 99.3244 107.689C98.8419 107.689 98.4799 107.89 98.2789 108.252C98.0778 108.614 97.9571 109.056 97.9571 109.579V110.222H96.4692C96.4692 109.981 96.429 109.78 96.429 109.619C96.429 108.855 96.5496 108.252 96.8311 107.769C97.1126 107.287 97.4746 106.965 97.9169 106.724C98.3593 106.483 98.8419 106.402 99.3646 106.402C99.8874 106.402 100.37 106.483 100.772 106.684C101.215 106.885 101.536 107.166 101.778 107.568C102.019 107.97 102.139 108.493 102.139 109.137C102.139 109.78 102.059 110.142 101.858 110.625C101.657 111.107 101.456 111.509 101.134 111.952C100.853 112.354 100.531 112.756 100.209 113.118C99.8874 113.48 99.5255 113.842 99.244 114.204C98.9625 114.566 98.6408 114.887 98.4397 115.209C98.3593 115.29 98.3191 115.41 98.2789 115.491C98.2386 115.571 98.1984 115.651 98.1582 115.732H102.22V117.18H96.3486L96.3083 117.139Z" fill="white"/>
<path d="M103.346 117.139V116.898C103.346 116.416 103.426 115.973 103.587 115.571C103.748 115.169 103.949 114.767 104.231 114.405C104.552 113.962 104.914 113.52 105.316 113.118C105.719 112.716 106.081 112.314 106.442 111.871C106.804 111.429 107.086 111.027 107.327 110.544C107.568 110.102 107.689 109.619 107.689 109.096C107.689 108.574 107.689 108.654 107.568 108.453C107.488 108.212 107.367 108.051 107.166 107.89C106.965 107.729 106.724 107.689 106.362 107.689C105.879 107.689 105.518 107.89 105.316 108.252C105.115 108.614 104.995 109.056 104.995 109.579V110.222H103.507C103.507 109.981 103.467 109.78 103.467 109.619C103.467 108.855 103.587 108.252 103.869 107.769C104.15 107.287 104.512 106.965 104.955 106.724C105.397 106.483 105.879 106.402 106.402 106.402C106.925 106.402 107.408 106.483 107.81 106.684C108.252 106.885 108.574 107.166 108.815 107.568C109.056 107.97 109.177 108.493 109.177 109.137C109.177 109.78 109.097 110.142 108.896 110.625C108.694 111.107 108.493 111.509 108.172 111.952C107.89 112.354 107.568 112.756 107.247 113.118C106.925 113.48 106.563 113.842 106.282 114.204C106 114.566 105.678 114.887 105.477 115.209C105.397 115.29 105.357 115.41 105.316 115.491C105.276 115.571 105.236 115.651 105.196 115.732H109.257V117.18H103.386L103.346 117.139Z" fill="white"/>
</svg>
