<svg id="SvgjsSvg1110" width="288" height="288" xmlns="http://www.w3.org/2000/svg" version="1.1" xmlns:xlink="http://www.w3.org/1999/xlink" xmlns:svgjs="http://svgjs.com/svgjs"><defs id="SvgjsDefs1111"></defs><g id="SvgjsG1112"><svg xmlns="http://www.w3.org/2000/svg" fill="none" viewBox="0 0 55 44" width="288" height="288"><path fill="#6334fa" d="M15.7978 24.8205C15.535 24.8205 15.2936 24.6748 15.1702 24.4426C15.0468 24.2105 15.0575 23.9298 15.2024 23.7085L17.5412 20.1026C17.6753 19.8974 17.8953 19.7787 18.1366 19.7787H23.1415C23.5331 19.7787 23.855 20.1026 23.855 20.4966C23.855 20.8907 23.5331 21.2146 23.1415 21.2146H18.5229L17.1174 23.3846H37.8933L36.4879 21.2146H31.8692C31.4776 21.2146 31.1558 20.8907 31.1558 20.4966C31.1558 20.1026 31.4776 19.7787 31.8692 19.7787H36.8741C37.1155 19.7787 37.3408 19.9028 37.4695 20.1026L39.8084 23.7085C39.9532 23.9298 39.9639 24.2105 39.8405 24.4426C39.7172 24.6748 39.4758 24.8205 39.2129 24.8205H15.7978Z" class="colorE4AE01 svgShape"></path><path fill="#6334fa" d="M18.4531 36.6586C18.0615 36.6586 17.7397 36.3347 17.7397 35.9406V24.0972C17.7397 23.7031 18.0615 23.3792 18.4531 23.3792 18.8447 23.3792 19.1666 23.7031 19.1666 24.0972V35.9406C19.1666 36.3347 18.8447 36.6586 18.4531 36.6586zM20.7115 36.6586C20.3199 36.6586 19.998 36.3347 19.998 35.9406V24.0972C19.998 23.7031 20.3199 23.3792 20.7115 23.3792 21.1031 23.3792 21.4249 23.7031 21.4249 24.0972V35.9406C21.4249 36.3347 21.1031 36.6586 20.7115 36.6586zM22.9752 36.6586C22.5836 36.6586 22.2618 36.3347 22.2618 35.9406V24.0972C22.2618 23.7031 22.5836 23.3792 22.9752 23.3792 23.3668 23.3792 23.6887 23.7031 23.6887 24.0972V35.9406C23.6887 36.3347 23.3668 36.6586 22.9752 36.6586zM36.5576 36.6586C36.166 36.6586 35.8441 36.3347 35.8441 35.9406V24.0972C35.8441 23.7031 36.166 23.3792 36.5576 23.3792 36.9492 23.3792 37.271 23.7031 37.271 24.0972V35.9406C37.271 36.3347 36.9492 36.6586 36.5576 36.6586zM34.2939 36.6586C33.9023 36.6586 33.5804 36.3347 33.5804 35.9406V24.0972C33.5804 23.7031 33.9023 23.3792 34.2939 23.3792 34.6855 23.3792 35.0073 23.7031 35.0073 24.0972V35.9406C35.0073 36.3347 34.6855 36.6586 34.2939 36.6586zM32.0301 36.6586C31.6385 36.6586 31.3167 36.3347 31.3167 35.9406V24.0972C31.3167 23.7031 31.6385 23.3792 32.0301 23.3792 32.4217 23.3792 32.7436 23.7031 32.7436 24.0972V35.9406C32.7436 36.3347 32.4217 36.6586 32.0301 36.6586z" class="colorE4AE01 svgShape"></path><path fill="#6334fa" d="M42.4047 44H12.6061C12.3325 44 12.0804 43.8435 11.9623 43.5951C11.8443 43.3468 11.8765 43.0499 12.0482 42.834L17.8952 35.498C18.0293 35.3306 18.2332 35.2281 18.4531 35.2281H36.5576C36.7722 35.2281 36.9814 35.3252 37.1155 35.498L42.9625 42.834C43.1342 43.0499 43.1664 43.3468 43.0484 43.5951C42.9304 43.8435 42.6782 44 42.4047 44ZM14.092 42.5641H40.9188L36.2143 36.664H18.7964L14.092 42.5641Z" class="colorE4AE01 svgShape"></path><path fill="#6334fa" d="M29.407 36.6586H25.5983C25.2068 36.6586 24.8849 36.3347 24.8849 35.9406V32.108C24.8849 31.7139 25.2068 31.39 25.5983 31.39H29.407C29.7986 31.39 30.1205 31.7139 30.1205 32.108V35.9406C30.1205 36.3347 29.7986 36.6586 29.407 36.6586zM26.3118 35.2227H28.6935V32.8259H26.3118V35.2227zM29.407 30.7368H25.5983C25.2068 30.7368 24.8849 30.413 24.8849 30.0189V26.1862C24.8849 25.7922 25.2068 25.4683 25.5983 25.4683H29.407C29.7986 25.4683 30.1205 25.7922 30.1205 26.1862V30.0189C30.1205 30.413 29.7986 30.7368 29.407 30.7368zM26.3118 29.3009H28.6935V26.9042H26.3118V29.3009zM31.8638 21.2146C31.4723 21.2146 31.1504 20.8907 31.1504 20.4966V15.973H23.8603V20.4966C23.8603 20.8907 23.5385 21.2146 23.1469 21.2146 22.7553 21.2146 22.4334 20.8907 22.4334 20.4966V15.2551C22.4334 14.861 22.7553 14.5371 23.1469 14.5371H31.8638C32.2554 14.5371 32.5773 14.861 32.5773 15.2551V20.4966C32.5773 20.8907 32.2554 21.2146 31.8638 21.2146z" class="colorE4AE01 svgShape"></path><path fill="#6334fa" d="M29.5197 15.9784C29.1924 15.9784 28.8974 15.7517 28.8223 15.417L27.7763 10.7368H27.2184L26.1723 15.417C26.0865 15.8057 25.7003 16.0486 25.3194 15.9622C24.9332 15.8758 24.6918 15.4926 24.7776 15.1039L25.947 9.86234C26.0221 9.53306 26.3118 9.30094 26.6444 9.30094H28.3449C28.6775 9.30094 28.9671 9.53306 29.0422 9.86234L30.2116 15.1039C30.2975 15.4926 30.0561 15.8758 29.6699 15.9622C29.6162 15.973 29.5626 15.9784 29.5143 15.9784H29.5197Z" class="colorE4AE01 svgShape"></path><path fill="#6334fa" d="M31.5581 15.973C31.4347 15.973 31.3113 15.9406 31.1933 15.8704C30.8554 15.6707 30.7427 15.2281 30.9412 14.888C31.7887 13.4467 32.3144 11.7247 32.3144 10.3914C32.3144 7.7193 30.1526 5.54385 27.4973 5.54385C24.842 5.54385 22.6909 7.7193 22.6909 10.3914C22.6909 11.7193 23.2166 13.4413 24.0642 14.888C24.2626 15.2281 24.15 15.6707 23.812 15.8704C23.4741 16.0702 23.0342 15.9568 22.8357 15.6167C21.8648 13.9649 21.264 11.9622 21.264 10.3914C21.264 6.92577 24.0588 4.10796 27.4973 4.10796C30.9358 4.10796 33.7413 6.92577 33.7413 10.3914C33.7413 11.9622 33.1405 13.9649 32.1696 15.6167C32.0355 15.8434 31.7995 15.9676 31.5527 15.9676L31.5581 15.973Z" class="colorE4AE01 svgShape"></path><path fill="#6334fa" d="M27.4973 5.54926C27.1057 5.54926 26.7839 5.22537 26.7839 4.83131V.71795C26.7839.323888 27.1057 0 27.4973 0 27.8889 0 28.2108.323888 28.2108.71795V4.83131C28.2108 5.22537 27.8889 5.54926 27.4973 5.54926zM27.4973 22.4723C25.77 22.4723 24.3592 21.058 24.3592 19.3144 24.3592 17.5708 25.7646 16.1565 27.4973 16.1565 29.23 16.1565 30.6354 17.5708 30.6354 19.3144 30.6354 21.058 29.23 22.4723 27.4973 22.4723zM27.4973 17.5978C26.5532 17.5978 25.7861 18.3698 25.7861 19.3198 25.7861 20.2699 26.5532 21.0418 27.4973 21.0418 28.4414 21.0418 29.2085 20.2699 29.2085 19.3198 29.2085 18.3698 28.4414 17.5978 27.4973 17.5978zM12.9494 44C12.5578 44 12.2359 43.6761 12.2359 43.282V13.7058C12.2359 13.3117 12.5578 12.9879 12.9494 12.9879H19.5528C19.9444 12.9879 20.2663 13.3117 20.2663 13.7058V20.4966C20.2663 20.8907 19.9444 21.2146 19.5528 21.2146 19.1612 21.2146 18.8394 20.8907 18.8394 20.4966V14.4238H13.6628V43.282C13.6628 43.6761 13.341 44 12.9494 44z" class="colorE4AE01 svgShape"></path><path fill="#6334fa" d="M20.7222 14.4238H11.78C11.5278 14.4238 11.2918 14.2888 11.1631 14.0729C11.0343 13.8569 11.029 13.5816 11.1523 13.3603L12.3217 11.2281C12.4451 11.0014 12.6865 10.8556 12.944 10.8556H19.5474C19.8049 10.8556 20.0463 10.996 20.1697 11.2281L21.3391 13.3603C21.4625 13.5816 21.4571 13.8515 21.3284 14.0729C21.1996 14.2942 20.969 14.4238 20.7115 14.4238H20.7222ZM12.9869 12.9879H19.5099L19.129 12.2915H13.3678L12.9869 12.9879Z" class="colorE4AE01 svgShape"></path><path fill="#6334fa" d="M19.5528 12.2861C19.1612 12.2861 18.8394 11.9622 18.8394 11.5681C18.8394 10.1322 17.6807 8.96086 16.2484 8.96086C14.8161 8.96086 13.6575 10.1269 13.6575 11.5681C13.6575 11.9622 13.3356 12.2861 12.944 12.2861C12.5524 12.2861 12.2306 11.9622 12.2306 11.5681C12.2306 9.33873 14.033 7.53036 16.243 7.53036C18.4531 7.53036 20.2555 9.34413 20.2555 11.5681C20.2555 11.9622 19.9337 12.2861 19.5421 12.2861H19.5528Z" class="colorE4AE01 svgShape"></path><path fill="#6334fa" d="M16.2484 8.96086C15.8568 8.96086 15.535 8.63697 15.535 8.24291V4.96626C15.535 4.5722 15.8568 4.24831 16.2484 4.24831 16.64 4.24831 16.9619 4.5722 16.9619 4.96626V8.24291C16.9619 8.63697 16.64 8.96086 16.2484 8.96086zM12.9494 44H.713443C.32185 44 0 43.6761 0 43.282V20.4966C0 20.1026.32185 19.7787.713443 19.7787H12.9494C13.341 19.7787 13.6628 20.1026 13.6628 20.4966 13.6628 20.8907 13.341 21.2146 12.9494 21.2146H1.42689V42.5641H12.9494C13.341 42.5641 13.6628 42.888 13.6628 43.282 13.6628 43.6761 13.341 44 12.9494 44z" class="colorE4AE01 svgShape"></path><path fill="#6334fa" d="M5.65931 28.1188H2.94499C2.55339 28.1188 2.23153 27.7949 2.23153 27.4008V24.8151C2.23153 23.6653 3.15956 22.7314 4.30215 22.7314 5.44474 22.7314 6.37276 23.6653 6.37276 24.8151V27.4008C6.37276 27.7949 6.05091 28.1188 5.65931 28.1188zM3.65843 26.6829H4.94585V24.8151C4.94585 24.4588 4.65619 24.1673 4.30215 24.1673 3.94811 24.1673 3.65843 24.4588 3.65843 24.8151V26.6829zM10.7339 28.1188H8.01959C7.628 28.1188 7.30615 27.7949 7.30615 27.4008V24.8151C7.30615 23.6653 8.23417 22.7314 9.37676 22.7314 10.5194 22.7314 11.4474 23.6653 11.4474 24.8151V27.4008C11.4474 27.7949 11.1255 28.1188 10.7339 28.1188zM8.73305 26.6829H10.0205V24.8151C10.0205 24.4588 9.7308 24.1673 9.37676 24.1673 9.02271 24.1673 8.73305 24.4588 8.73305 24.8151V26.6829zM5.65931 34.1107H2.94499C2.55339 34.1107 2.23153 33.7868 2.23153 33.3927V30.807C2.23153 29.6572 3.15956 28.7233 4.30215 28.7233 5.44474 28.7233 6.37276 29.6572 6.37276 30.807V33.3927C6.37276 33.7868 6.05091 34.1107 5.65931 34.1107zM3.65843 32.6748H4.94585V30.807C4.94585 30.4507 4.65619 30.1592 4.30215 30.1592 3.94811 30.1592 3.65843 30.4507 3.65843 30.807V32.6748zM10.7339 34.1107H8.01959C7.628 34.1107 7.30615 33.7868 7.30615 33.3927V30.807C7.30615 29.6572 8.23417 28.7233 9.37676 28.7233 10.5194 28.7233 11.4474 29.6572 11.4474 30.807V33.3927C11.4474 33.7868 11.1255 34.1107 10.7339 34.1107zM8.73305 32.6748H10.0205V30.807C10.0205 30.4507 9.7308 30.1592 9.37676 30.1592 9.02271 30.1592 8.73305 30.4507 8.73305 30.807V32.6748zM5.65931 40.1026H2.94499C2.55339 40.1026 2.23153 39.7787 2.23153 39.3846V36.7989C2.23153 35.6491 3.15956 34.7152 4.30215 34.7152 5.44474 34.7152 6.37276 35.6491 6.37276 36.7989V39.3846C6.37276 39.7787 6.05091 40.1026 5.65931 40.1026zM3.65843 38.6667H4.94585V36.7989C4.94585 36.4426 4.65619 36.1511 4.30215 36.1511 3.94811 36.1511 3.65843 36.4426 3.65843 36.7989V38.6667zM10.7339 40.1026H8.01959C7.628 40.1026 7.30615 39.7787 7.30615 39.3846V36.7989C7.30615 35.6491 8.23417 34.7152 9.37676 34.7152 10.5194 34.7152 11.4474 35.6491 11.4474 36.7989V39.3846C11.4474 39.7787 11.1255 40.1026 10.7339 40.1026zM8.73305 38.6667H10.0205V36.7989C10.0205 36.4426 9.7308 36.1511 9.37676 36.1511 9.02271 36.1511 8.73305 36.4426 8.73305 36.7989V38.6667zM.713443 21.2146C.32185 21.2146 0 20.8907 0 20.4966V18.0783C0 17.6842.32185 17.3603.713443 17.3603H12.9494C13.341 17.3603 13.6628 17.6842 13.6628 18.0783 13.6628 18.4723 13.341 18.7962 12.9494 18.7962H1.42689V20.4966C1.42689 20.8907 1.10504 21.2146.713443 21.2146zM18.4531 29.2092H12.9494C12.5578 29.2092 12.2359 28.8853 12.2359 28.4912 12.2359 28.0972 12.5578 27.7733 12.9494 27.7733H18.4531C18.8447 27.7733 19.1666 28.0972 19.1666 28.4912 19.1666 28.8853 18.8447 29.2092 18.4531 29.2092zM42.0506 44C41.659 44 41.3372 43.6761 41.3372 43.282V14.4238H36.1606V20.4966C36.1606 20.8907 35.8388 21.2146 35.4472 21.2146 35.0556 21.2146 34.7337 20.8907 34.7337 20.4966V13.7058C34.7337 13.3117 35.0556 12.9879 35.4472 12.9879H42.0506C42.4422 12.9879 42.7641 13.3117 42.7641 13.7058V43.282C42.7641 43.6761 42.4422 44 42.0506 44z" class="colorE4AE01 svgShape"></path><path fill="#6334fa" d="M43.22 14.4238H34.2778C34.0257 14.4238 33.7896 14.2888 33.6609 14.0729C33.5321 13.8515 33.5268 13.5816 33.6501 13.3603L34.8196 11.2281C34.9429 11.0014 35.1843 10.8556 35.4418 10.8556H42.0452C42.3027 10.8556 42.5441 10.996 42.6675 11.2281L43.8369 13.3603C43.9603 13.5816 43.9549 13.8515 43.8262 14.0729C43.6974 14.2942 43.4668 14.4238 43.2093 14.4238H43.22ZM35.4847 12.9879H42.0077L41.6268 12.2915H35.8656L35.4847 12.9879Z" class="colorE4AE01 svgShape"></path><path fill="#6334fa" d="M42.0506 12.2861C41.659 12.2861 41.3372 11.9622 41.3372 11.5681C41.3372 10.1322 40.1785 8.96086 38.7462 8.96086C37.3139 8.96086 36.1606 10.1269 36.1606 11.5681C36.1606 11.9622 35.8388 12.2861 35.4472 12.2861C35.0556 12.2861 34.7337 11.9622 34.7337 11.5681C34.7337 9.33873 36.5361 7.53036 38.7462 7.53036C40.9563 7.53036 42.7587 9.34413 42.7587 11.5681C42.7587 11.9622 42.4368 12.2861 42.0452 12.2861H42.0506Z" class="colorE4AE01 svgShape"></path><path fill="#6334fa" d="M38.7516 8.96086C38.36 8.96086 38.0381 8.63697 38.0381 8.24291V4.96626C38.0381 4.5722 38.36 4.24831 38.7516 4.24831 39.1432 4.24831 39.465 4.5722 39.465 4.96626V8.24291C39.465 8.63697 39.1432 8.96086 38.7516 8.96086zM54.2865 44H42.0506C41.659 44 41.3372 43.6761 41.3372 43.282 41.3372 42.888 41.659 42.5641 42.0506 42.5641H53.5731V21.2146H42.0506C41.659 21.2146 41.3372 20.8907 41.3372 20.4966 41.3372 20.1026 41.659 19.7787 42.0506 19.7787H54.2865C54.6781 19.7787 55 20.1026 55 20.4966V43.282C55 43.6761 54.6781 44 54.2865 44z" class="colorE4AE01 svgShape"></path><path fill="#6334fa" d="M52.055 28.1188H49.3407C48.9491 28.1188 48.6272 27.7949 48.6272 27.4008V24.8151C48.6272 23.6653 49.5552 22.7314 50.6978 22.7314 51.8404 22.7314 52.7685 23.6653 52.7685 24.8151V27.4008C52.7685 27.7949 52.4466 28.1188 52.055 28.1188zM50.0541 26.6829H51.3416V24.8151C51.3416 24.4588 51.0519 24.1673 50.6978 24.1673 50.3438 24.1673 50.0541 24.4588 50.0541 24.8151V26.6829zM46.9804 28.1188H44.2661C43.8745 28.1188 43.5526 27.7949 43.5526 27.4008V24.8151C43.5526 23.6653 44.4806 22.7314 45.6232 22.7314 46.7658 22.7314 47.6938 23.6653 47.6938 24.8151V27.4008C47.6938 27.7949 47.372 28.1188 46.9804 28.1188zM44.9795 26.6829H46.2669V24.8151C46.2669 24.4588 45.9773 24.1673 45.6232 24.1673 45.2692 24.1673 44.9795 24.4588 44.9795 24.8151V26.6829zM52.055 34.1107H49.3407C48.9491 34.1107 48.6272 33.7868 48.6272 33.3927V30.807C48.6272 29.6572 49.5552 28.7233 50.6978 28.7233 51.8404 28.7233 52.7685 29.6572 52.7685 30.807V33.3927C52.7685 33.7868 52.4466 34.1107 52.055 34.1107zM50.0541 32.6748H51.3416V30.807C51.3416 30.4507 51.0519 30.1592 50.6978 30.1592 50.3438 30.1592 50.0541 30.4507 50.0541 30.807V32.6748zM46.9804 34.1107H44.2661C43.8745 34.1107 43.5526 33.7868 43.5526 33.3927V30.807C43.5526 29.6572 44.4806 28.7233 45.6232 28.7233 46.7658 28.7233 47.6938 29.6572 47.6938 30.807V33.3927C47.6938 33.7868 47.372 34.1107 46.9804 34.1107zM44.9795 32.6748H46.2669V30.807C46.2669 30.4507 45.9773 30.1592 45.6232 30.1592 45.2692 30.1592 44.9795 30.4507 44.9795 30.807V32.6748zM52.055 40.1026H49.3407C48.9491 40.1026 48.6272 39.7787 48.6272 39.3846V36.7989C48.6272 35.6491 49.5552 34.7152 50.6978 34.7152 51.8404 34.7152 52.7685 35.6491 52.7685 36.7989V39.3846C52.7685 39.7787 52.4466 40.1026 52.055 40.1026zM50.0541 38.6667H51.3416V36.7989C51.3416 36.4426 51.0519 36.1511 50.6978 36.1511 50.3438 36.1511 50.0541 36.4426 50.0541 36.7989V38.6667zM46.9804 40.1026H44.2661C43.8745 40.1026 43.5526 39.7787 43.5526 39.3846V36.7989C43.5526 35.6491 44.4806 34.7152 45.6232 34.7152 46.7658 34.7152 47.6938 35.6491 47.6938 36.7989V39.3846C47.6938 39.7787 47.372 40.1026 46.9804 40.1026zM44.9795 38.6667H46.2669V36.7989C46.2669 36.4426 45.9773 36.1511 45.6232 36.1511 45.2692 36.1511 44.9795 36.4426 44.9795 36.7989V38.6667zM54.2865 21.2146C53.8949 21.2146 53.5731 20.8907 53.5731 20.4966V18.7962H42.0506C41.659 18.7962 41.3372 18.4723 41.3372 18.0783 41.3372 17.6842 41.659 17.3603 42.0506 17.3603H54.2865C54.6781 17.3603 55 17.6842 55 18.0783V20.4966C55 20.8907 54.6781 21.2146 54.2865 21.2146zM42.0506 29.2092H36.5469C36.1553 29.2092 35.8334 28.8853 35.8334 28.4912 35.8334 28.0972 36.1553 27.7733 36.5469 27.7733H42.0506C42.4422 27.7733 42.7641 28.0972 42.7641 28.4912 42.7641 28.8853 42.4422 29.2092 42.0506 29.2092z" class="colorE4AE01 svgShape"></path></svg></g></svg>