<svg id="SvgjsSvg1026" width="288" height="288" xmlns="http://www.w3.org/2000/svg" version="1.1" xmlns:xlink="http://www.w3.org/1999/xlink" xmlns:svgjs="http://svgjs.com/svgjs"><defs id="SvgjsDefs1027"></defs><g id="SvgjsG1028"><svg xmlns="http://www.w3.org/2000/svg" fill="none" viewBox="0 0 59 44" width="288" height="288"><path fill="#6334fa" d="M28.796 44H10.5202C5.75341 44 5.78936 44 1.02257 44C0.35917 44 0.00574016 43.7582 0 43.304C-0.00574016 42.8296 0.378851 42.5422 1.02339 42.5422C3.4277 42.5422 1.02927 42.5329 3.43357 42.5506C3.8485 42.554 3.98955 42.4242 3.96741 41.9979C3.93625 41.4097 3.95593 40.819 3.96085 40.23C3.96659 39.6149 4.20439 39.3629 4.80957 39.346C5.2737 39.3334 5.73866 39.3326 6.20279 39.3486C6.43978 39.357 6.51358 39.2635 6.51276 39.0317C6.50866 36.8282 6.5062 34.6247 6.51358 32.4203C6.5144 32.0959 6.36679 32.0243 6.08635 32.0142C5.64189 31.9981 5.19006 32.1043 4.75381 31.897C4.09287 31.5836 3.79684 30.9322 4.04449 30.2319C4.67345 28.4573 5.2901 26.6768 5.95022 24.9148C6.6415 23.0677 7.27292 21.1987 7.94124 19.3441C8.71616 17.1919 9.49928 15.0432 10.2783 12.8927C10.7818 11.5032 11.3 10.1187 11.7781 8.71911C11.9183 8.30958 11.7748 7.85033 11.8314 7.42142C11.9921 6.19537 11.4239 5.16059 11.0319 4.08032C10.7654 3.34637 10.4579 2.62843 10.1922 1.89448C10.0331 1.45546 9.98883 1.00296 10.3898 0.657476C10.7867 0.31536 11.2172 0.288395 11.6756 0.556357C12.6498 1.1243 13.6863 1.54479 14.7433 1.92145C15.0516 2.03099 15.1115 1.93156 15.1074 1.6577C15.105 1.48917 15.1033 1.32064 15.1107 1.15211C15.1295 0.746796 15.3993 0.435018 15.7544 0.400469C16.0496 0.371819 16.4178 0.666745 16.4711 1.03414C16.5195 1.36446 16.5096 1.70489 16.5129 2.04111C16.5154 2.28379 16.6015 2.47254 16.8467 2.49024C17.5675 2.54164 18.2645 2.76073 18.991 2.77927C19.3215 2.78769 19.4708 2.69922 19.4486 2.33688C19.4256 1.95937 19.4363 1.57933 19.447 1.20014C19.4609 0.729101 19.7012 0.459454 20.103 0.442601C20.5187 0.424906 20.8172 0.692025 20.8492 1.16054C20.8779 1.57933 20.8689 2.00235 20.8582 2.42283C20.8508 2.71438 20.9353 2.86606 21.251 2.85932C21.9472 2.845 22.6442 2.84752 23.3404 2.85932C23.6184 2.86353 23.7406 2.75652 23.7324 2.4658C23.7217 2.07313 23.7144 1.67877 23.7381 1.28694C23.7791 0.6204 24.2687 0.261431 24.7755 0.499901C25.0461 0.627141 25.1502 0.847071 25.1486 1.14116C25.1461 1.59029 25.1592 2.03942 25.1461 2.48855C25.1387 2.76326 25.2478 2.86185 25.5086 2.85932C26.2597 2.85005 27.0109 2.84752 27.762 2.86016C28.0539 2.86522 28.1458 2.73545 28.1367 2.45485C28.1244 2.06217 28.1318 1.66866 28.1367 1.27598C28.1441 0.657476 28.3442 0.461982 28.9174 0.315361C29.5841 0.144303 30.2688 0.153571 30.9396 0.0297011C31.4357 -0.0621477 31.5218 0.0440276 31.5095 0.560572C31.4947 1.16307 31.471 1.76556 31.4242 2.36553C31.3898 2.80876 31.6128 2.86775 31.9695 2.86522C32.3098 2.86353 32.5206 2.81466 32.4829 2.38575C32.4501 2.00993 32.473 1.62821 32.4771 1.24986C32.4829 0.727416 32.7272 0.441759 33.1586 0.442601C33.5628 0.443444 33.8671 0.767021 33.8859 1.24565C33.9015 1.6518 33.8999 2.05964 33.8892 2.46664C33.881 2.7582 34.0032 2.86353 34.2812 2.85932C34.9774 2.84837 35.6744 2.84584 36.3706 2.85932C36.6847 2.86606 36.7749 2.71775 36.7658 2.42451C36.7544 2.04616 36.7412 1.66444 36.774 1.28862C36.806 0.917854 36.9077 0.561413 37.3407 0.464509C37.8089 0.36002 38.1558 0.626297 38.173 1.12262C38.1878 1.5431 38.1886 1.96527 38.1746 2.38575C38.1656 2.67478 38.2673 2.77927 38.5551 2.77927C39.3243 2.77927 40.0607 2.53658 40.8217 2.47676C41.0472 2.45906 41.1776 2.29896 41.1677 2.03858C41.1562 1.7445 41.1595 1.44872 41.1694 1.15464C41.1841 0.734157 41.4096 0.479676 41.7803 0.44597C42.137 0.413949 42.4363 0.637252 42.5298 1.01813C42.556 1.12599 42.5642 1.23975 42.5691 1.35098C42.5946 1.98212 42.6003 2.00235 43.1612 1.80432C44.0886 1.47738 44.9948 1.09228 45.8574 0.608603C46.552 0.219299 46.9054 0.250475 47.3204 0.719831C47.6459 1.08807 47.5918 1.51614 47.4327 1.90544C46.9325 3.13149 46.4011 4.34407 45.8697 5.55664C45.7107 5.91982 45.6377 6.28722 45.5991 6.68579C45.4605 8.10566 45.8829 9.38564 46.3921 10.6707C47.0333 12.2903 47.5992 13.941 48.2027 15.5766C48.912 17.4987 49.6328 19.4174 50.338 21.3412C51.0482 23.2784 51.7436 25.2216 52.4504 27.1605C52.794 28.1043 53.1384 29.048 53.5033 29.9825C53.9388 31.099 53.3582 32.0108 52.1913 32.0175C51.2761 32.0226 51.3508 31.929 51.3499 32.8762C51.3483 34.8834 51.359 36.8906 51.3409 38.8978C51.3377 39.2576 51.4483 39.3604 51.7764 39.3427C52.1437 39.3225 52.5144 39.3284 52.8826 39.3469C53.4476 39.3755 53.6624 39.6115 53.6673 40.1946C53.6731 40.8123 53.6911 41.4308 53.6616 42.0467C53.6427 42.4478 53.7944 42.5473 54.1593 42.5456C56.5497 42.5338 55.5099 42.5397 57.9002 42.5397C58.0372 42.5397 58.1741 42.5321 58.3094 42.5473C58.7047 42.5919 59.0049 42.9358 58.9999 43.3125C58.9942 43.7026 58.7006 43.9722 58.2684 43.9941C58.1184 44.0017 57.9683 43.9966 57.8174 43.9966C46.9997 43.9966 39.6121 43.9966 28.7944 43.9966L28.796 44ZM39.3399 32.0209C39.3366 32.0352 39.3333 32.0495 39.3309 32.0647C40.2149 32.3419 41.0997 32.6192 41.9828 32.8973C42.4642 33.0489 42.6019 33.2352 42.6093 33.745C42.6126 33.9834 42.6216 34.2227 42.6077 34.4604C42.5913 34.7384 42.6774 34.8632 42.9734 34.8707C43.4605 34.8842 43.7385 35.1556 43.7442 35.5583C43.7492 35.9704 43.4556 36.2813 42.9718 36.3091C42.6774 36.326 42.6036 36.4541 42.6077 36.7288C42.6192 37.4442 42.6208 38.1596 42.6077 38.875C42.6019 39.159 42.7176 39.2567 42.9783 39.3132C43.5015 39.4244 44.0189 39.2972 44.5413 39.3174C46.2043 39.3831 47.8714 39.3385 49.5369 39.3469C49.8378 39.3486 49.9411 39.2298 49.9395 38.9222C49.9313 36.7616 49.9313 34.6011 49.9395 32.4405C49.9403 32.1338 49.8411 32.0175 49.5377 32.0184C46.1387 32.0251 42.7397 32.0226 39.3407 32.0226L39.3399 32.0209ZM18.303 32.0689C18.3014 32.0529 18.2989 32.0361 18.2973 32.0201C17.0476 32.0201 15.7987 32.0201 14.549 32.0201C12.5014 32.0201 10.4546 32.0226 8.40701 32.0201C8.14542 32.0201 7.92319 32.0133 7.92565 32.4001C7.93632 34.6163 7.93221 36.8324 7.92811 39.0486C7.92811 39.255 7.98142 39.3494 8.2061 39.3486C10.3628 39.3401 12.5186 39.3385 14.6753 39.3452C14.9869 39.3461 15.0656 39.2222 15.0549 38.9155C15.032 38.2152 15.0303 37.5124 15.0525 36.8122C15.0631 36.4794 15.0221 36.3058 14.6334 36.2914C14.2415 36.2771 13.9602 35.9215 13.9594 35.5752C13.9594 35.2171 14.2283 34.8674 14.5974 34.8825C15.0443 34.9002 15.0927 34.6795 15.0476 34.3239C15.0336 34.2135 15.0434 34.0997 15.0467 33.9876C15.0656 33.2621 15.2255 33.0616 15.8987 32.8509C16.7024 32.599 17.5019 32.3301 18.303 32.0689ZM42.8316 26.7695C45.3293 26.7695 47.8279 26.7703 50.3257 26.7695C50.7685 26.7695 50.8095 26.7122 50.6578 26.2841C50.4807 25.7844 50.2675 25.2974 50.1125 24.791C49.9846 24.373 49.7542 24.255 49.3327 24.2567C44.5962 24.2727 39.859 24.2668 35.1225 24.2668C34.9725 24.2668 34.8224 24.266 34.6723 24.2635C34.519 24.2609 34.4714 24.3562 34.5124 24.4826C34.6731 24.9806 34.6756 25.503 34.7601 26.0128C34.8855 26.7746 34.9044 26.7712 35.6654 26.7712C38.0541 26.7712 40.4428 26.7712 42.8324 26.7712L42.8316 26.7695ZM14.713 26.7695C15.3132 26.7695 15.9143 26.7695 16.5146 26.7695C18.4121 26.7695 20.3088 26.7695 22.2063 26.7695C22.4097 26.7695 22.6155 26.8032 22.6639 26.4923C22.7533 25.9125 22.864 25.337 22.9788 24.7623C23.0567 24.373 22.9271 24.255 22.5385 24.2584C20.3408 24.2753 18.1431 24.2668 15.9455 24.2668C13.3517 24.2668 10.7588 24.2719 8.1651 24.2609C7.83545 24.2593 7.63045 24.3469 7.51975 24.6898C7.34426 25.2334 7.12531 25.7625 6.93999 26.3027C6.78172 26.7636 6.79156 26.7695 7.25898 26.7695C9.74282 26.7695 12.2275 26.7695 14.7113 26.7695H14.713ZM43.7237 30.5648C46.4142 30.5648 49.1047 30.5648 51.7952 30.564C52.2011 30.564 52.2315 30.5109 52.0855 30.1342C51.9035 29.6665 51.6903 29.2081 51.5574 28.7261C51.4393 28.3006 51.2089 28.2138 50.8128 28.2146C45.8279 28.2273 40.8422 28.2231 35.8573 28.2231C35.7613 28.2231 35.6662 28.2281 35.5703 28.2248C35.3308 28.2146 35.2242 28.3225 35.2291 28.577C35.239 29.0539 35.2308 29.5317 35.2316 30.0086C35.2324 30.5631 35.2332 30.5648 35.7744 30.5656C38.4239 30.5656 41.0734 30.5648 43.7237 30.5648ZM13.8675 30.5648C14.3727 30.5648 14.8778 30.5648 15.3829 30.5648C17.5544 30.5648 19.7258 30.5547 21.8964 30.5732C22.299 30.5766 22.4253 30.4409 22.3966 30.0424C22.3671 29.6379 22.3892 29.2292 22.3892 28.8222C22.3892 28.2248 22.3892 28.2231 21.7996 28.2231C16.8016 28.2231 11.8035 28.2231 6.8055 28.2231C6.73744 28.2231 6.66856 28.2281 6.6005 28.2231C6.36597 28.2045 6.22411 28.2922 6.14457 28.5382C5.97236 29.0683 5.77966 29.5924 5.57957 30.1123C5.40491 30.5656 5.39588 30.564 5.87806 30.5648C8.54067 30.5648 11.2049 30.5648 13.8675 30.5648ZM15.7413 22.8166C15.9594 22.8166 16.1784 22.8166 16.3965 22.8166C18.5392 22.8166 20.6819 22.8116 22.8246 22.8217C23.1781 22.8234 23.3765 22.7517 23.4093 22.3279C23.4495 21.8004 23.5422 21.2721 23.6684 20.7589C23.7718 20.3401 23.6192 20.3022 23.2683 20.303C18.6827 20.3131 14.0971 20.314 9.51158 20.2971C9.18029 20.2963 9.03596 20.4345 8.94002 20.7033C8.7383 21.267 8.56527 21.8425 8.34059 22.3962C8.18314 22.7846 8.31927 22.8242 8.65794 22.8225C11.0188 22.8107 13.3804 22.8166 15.7413 22.8166ZM41.7631 22.8166C44.1247 22.8166 46.4872 22.8175 48.8489 22.8158C49.3023 22.8158 49.3475 22.7627 49.2007 22.3346C48.9973 21.7414 48.7611 21.16 48.5528 20.5684C48.4799 20.362 48.3659 20.303 48.156 20.303C43.5688 20.3106 38.9807 20.3089 34.3935 20.3114C33.9171 20.3114 33.8457 20.4016 33.9236 20.8895C33.9991 21.358 34.1041 21.8223 34.1582 22.2925C34.2033 22.6835 34.3509 22.8301 34.7584 22.8267C37.093 22.8065 39.4285 22.8166 41.7631 22.8166ZM16.7917 18.927C19.0312 18.927 21.2699 18.9202 23.5094 18.9337C23.8398 18.9354 24.0563 18.8343 24.0842 18.4981C24.1326 17.9242 24.249 17.3638 24.372 16.806C24.4565 16.4209 24.304 16.3619 23.9743 16.3645C22.2539 16.3771 20.5327 16.3704 18.8115 16.3704C16.2161 16.3704 13.6215 16.3771 11.027 16.3636C10.6465 16.3619 10.43 16.4555 10.3201 16.8675C10.1807 17.3917 9.96833 17.8972 9.77235 18.4045C9.58784 18.8831 9.6067 18.9261 10.1135 18.9261C12.3398 18.9278 14.5662 18.927 16.7917 18.927ZM40.8217 18.927C43.0595 18.927 45.2982 18.9202 47.536 18.9337C47.8755 18.9354 47.9354 18.852 47.8074 18.5351C47.5844 17.9798 47.3786 17.4161 47.19 16.8473C47.0735 16.4959 46.8931 16.3518 46.5077 16.3594C45.1842 16.3872 43.8607 16.3695 42.5363 16.3695C39.6154 16.3695 36.6953 16.3695 33.7744 16.3695C33.0905 16.3695 33.1832 16.3914 33.2561 16.9223C33.3226 17.4051 33.4554 17.8821 33.489 18.3658C33.5194 18.8056 33.6998 18.9345 34.1073 18.932C36.3444 18.9185 38.5822 18.9253 40.82 18.9261L40.8217 18.927ZM17.8651 14.9168V14.9286C20.021 14.9286 22.1768 14.9235 24.3318 14.9353C24.5918 14.937 24.6615 14.8485 24.732 14.5991C24.8804 14.0708 24.8796 13.5188 25.019 12.993C25.1601 12.4622 25.1371 12.4175 24.5951 12.4175C21.4978 12.4175 18.4006 12.4175 15.3034 12.4175C14.2939 12.4175 13.2837 12.4251 12.2742 12.4133C12.0167 12.4099 11.8913 12.4925 11.8076 12.7562C11.6313 13.3141 11.4181 13.8601 11.2025 14.4028C11.0286 14.8401 11.0639 14.9159 11.5206 14.9159C13.6355 14.9176 15.7503 14.9168 17.8651 14.9168ZM39.7064 14.9168C40.1435 14.9168 40.5806 14.9168 41.0168 14.9168C42.6963 14.9168 44.3757 14.9143 46.0542 14.9193C46.3125 14.9193 46.4831 14.9227 46.3363 14.562C46.1002 13.9823 45.9001 13.3865 45.7016 12.7916C45.6008 12.4891 45.4204 12.4108 45.1178 12.4116C41.3908 12.4217 37.6638 12.4175 33.9368 12.4175C33.5678 12.4175 33.1996 12.4259 32.8314 12.4158C32.5641 12.4091 32.4738 12.5532 32.5444 12.7849C32.6912 13.2711 32.7141 13.775 32.7846 14.273C32.8683 14.8578 32.9486 14.9159 33.5218 14.9159C35.5834 14.9159 37.6449 14.9168 39.7064 14.9168ZM23.8103 35.1016C26.509 32.0327 31.0281 31.79 33.8162 35.0511C33.8162 33.4981 33.8138 31.9737 33.8179 30.4485C33.8179 30.162 33.6678 30.1005 33.4251 30.1005C30.3524 30.1039 27.279 30.1047 24.2064 30.0988C23.935 30.0988 23.8062 30.1848 23.807 30.4822C23.8144 31.9973 23.8103 33.5132 23.8103 35.1016ZM28.7304 42.5414C29.4537 42.5414 30.177 42.5287 30.8994 42.5473C31.2389 42.5557 31.3553 42.4268 31.3488 42.0813C31.3324 41.1982 31.3029 40.3126 31.3529 39.4328C31.4365 37.9801 30.2319 36.4844 28.5205 36.6437C27.4635 36.7414 26.4418 37.6144 26.2745 38.6896C26.0883 39.887 26.2343 41.0962 26.1851 42.2987C26.1744 42.5608 26.3557 42.5414 26.5205 42.5414C27.2569 42.5431 27.9932 42.5414 28.7304 42.5414ZM24.2851 25.4482C25.3774 24.6022 26.4598 23.9584 27.6177 23.4554C27.9621 23.3062 28.1294 23.0821 28.0851 22.6818C28.0564 22.4197 28.0539 22.145 28.1449 21.8906C28.268 21.5476 28.4951 21.3108 28.8723 21.331C29.2093 21.3487 29.5324 21.6816 29.4726 22.0566C29.3282 22.9506 29.7243 23.4099 30.5066 23.6306C30.5189 23.634 30.5296 23.645 30.5419 23.6517C31.4734 24.1101 32.3443 24.6721 33.2037 25.3252C33.2037 25.1449 33.2234 25.0075 33.2004 24.8769C32.9749 23.5716 32.7141 22.2723 32.5263 20.962C32.4591 20.4926 32.2713 20.4024 31.8646 20.4058C29.7907 20.421 27.7169 20.4252 25.6439 20.4024C25.2281 20.3982 25.1068 20.5701 25.0518 20.9476C24.951 21.6369 24.8058 22.3195 24.6886 23.0054C24.5549 23.7865 24.4294 24.5702 24.2851 25.4482ZM33.8195 40.2435C33.7728 39.3317 33.9097 38.302 33.4997 37.2942C32.7723 35.5061 31.0708 34.2539 29.1765 34.1393C28.3114 34.0871 27.4963 34.2649 26.7189 34.6331C25.2109 35.3468 24.2228 36.5308 23.9103 38.2093C23.6652 39.523 23.8439 40.8679 23.8193 42.1984C23.8103 42.6981 24.208 42.5009 24.4565 42.5397C24.7287 42.5827 24.8526 42.4714 24.8476 42.1681C24.8312 41.2285 24.8747 40.2864 24.8239 39.3494C24.6894 36.8585 27.0059 34.7713 29.4857 35.2466C31.4505 35.6232 32.7461 37.3186 32.7584 39.389C32.7633 40.3008 32.7674 41.2125 32.7559 42.1243C32.7518 42.431 32.8609 42.5709 33.1618 42.5431C33.243 42.5355 33.3267 42.5346 33.407 42.5431C33.7137 42.5784 33.8474 42.4807 33.8285 42.1268C33.7974 41.5395 33.8195 40.9488 33.8195 40.2435ZM18.9197 10.9614V10.9631C20.791 10.9631 22.6615 10.9631 24.5327 10.9631C25.0412 10.9631 25.3643 10.7094 25.502 10.2022C25.5127 10.1617 25.5315 10.123 25.5422 10.0825C25.7005 9.49013 25.6267 9.38648 25.0387 9.38648C21.3789 9.38648 17.7184 9.38648 14.0586 9.38648C13.3911 9.38648 12.9283 9.70135 12.6703 10.3311C12.4423 10.8881 12.4858 10.9606 13.0606 10.9606C15.0139 10.9622 16.9664 10.9614 18.9197 10.9614ZM28.5607 4.30109C28.4123 4.30109 28.263 4.30109 28.1146 4.30109C25.8751 4.30109 23.6348 4.28677 21.3953 4.30531C19.5897 4.32047 17.8036 4.17385 16.0414 3.76601C14.6949 3.45507 13.3993 2.98909 12.1422 2.40682C12.0717 2.37395 12.0077 2.29053 11.9249 2.3689C11.879 2.41271 11.9052 2.46833 11.9257 2.52226C12.2406 3.34132 12.5522 4.16206 12.8688 4.98027C12.9598 5.21621 13.1336 5.29879 13.3854 5.29795C17.9061 5.29205 22.4261 5.29374 26.9469 5.29289C27.097 5.29289 27.2421 5.29458 27.3643 5.16902C27.7079 4.81848 28.1253 4.58001 28.5607 4.29941V4.30109ZM38.6125 10.9631C40.4404 10.9631 42.269 10.9631 44.0968 10.9631C44.2879 10.9631 44.479 10.9589 44.67 10.9631C44.8939 10.9681 45.0136 10.9218 44.8923 10.6505C44.7791 10.3977 44.67 10.1339 44.6159 9.86258C44.5372 9.46401 44.324 9.37722 43.9517 9.37806C40.2411 9.39154 36.5305 9.38648 32.8191 9.38648C32.6551 9.38648 32.4911 9.39407 32.3279 9.38648C32.0901 9.37469 32.0007 9.49771 32.0368 9.7227C32.072 9.94263 32.1385 10.1575 32.1713 10.3774C32.2565 10.9555 32.2582 10.9631 32.8412 10.9631C34.765 10.9631 36.6896 10.9631 38.6125 10.9631ZM29.2897 4.30109C29.6973 4.57495 30.0704 4.70641 30.3254 5.00386C30.5353 5.24907 30.7871 5.30048 31.0913 5.29963C35.1758 5.29205 39.2612 5.27351 43.3449 5.31312C44.1378 5.3207 44.7389 5.24992 44.8808 4.31121C44.8865 4.27244 44.9218 4.23874 44.9382 4.19998C45.1998 3.59158 45.4605 2.98235 45.7221 2.37395C45.144 2.60821 44.5807 2.79781 44.0263 3.00931C41.7311 3.88651 39.3514 4.29351 36.9052 4.29941C34.4058 4.30531 31.908 4.30109 29.2897 4.30109ZM19.4585 39.4463C19.4585 38.5489 19.4494 37.6523 19.4634 36.7557C19.4683 36.4271 19.3494 36.3075 19.0329 36.3142C18.3104 36.3285 17.5872 36.3243 16.8647 36.3142C16.6146 36.3108 16.5006 36.3715 16.5023 36.6656C16.5146 38.5118 16.5129 40.3581 16.5031 42.2043C16.5014 42.4647 16.5875 42.549 16.8327 42.5456C17.5552 42.5355 18.2793 42.5262 19.0009 42.549C19.3691 42.5608 19.4716 42.4108 19.4642 42.0535C19.4461 41.1847 19.4585 40.3159 19.4585 39.4463ZM38.3436 39.3991C38.3436 40.3117 38.346 41.2235 38.3419 42.1361C38.3411 42.3762 38.3829 42.5464 38.6724 42.5431C39.4301 42.5346 40.1886 42.5397 40.9463 42.5405C41.139 42.5405 41.2423 42.479 41.244 42.2456C41.2473 41.6734 41.3014 41.0971 41.2883 40.5317C41.2596 39.2685 41.285 38.0062 41.2702 36.7439C41.2661 36.4052 41.1275 36.3083 40.8225 36.315C40.1534 36.3285 39.4834 36.3327 38.8151 36.3117C38.4649 36.3007 38.3272 36.4128 38.3362 36.7894C38.3575 37.6591 38.3427 38.5287 38.3436 39.3991ZM10.2496 40.7238C8.80308 40.7238 7.35738 40.7238 5.91086 40.7238C5.37785 40.7238 5.37703 40.7255 5.37539 41.2909C5.37457 41.515 5.37457 41.7392 5.37539 41.9642C5.37785 42.5397 5.37785 42.5414 5.95186 42.5422C8.73502 42.5422 11.5182 42.5422 14.3013 42.5422C14.7983 42.5422 15.0467 42.2942 15.0467 41.7982C15.0467 41.6296 15.0467 41.4619 15.0467 41.2934C15.0434 40.7271 15.0418 40.7238 14.5063 40.7238C13.0877 40.7229 11.6682 40.7238 10.2496 40.7238ZM30.1934 25.0791C29.8022 24.8761 29.4767 24.7101 29.1536 24.539C28.9641 24.4387 28.7788 24.4758 28.6009 24.5567C27.3257 25.1339 26.0842 25.7743 25.0026 26.6954C24.559 27.0729 24.1465 27.4883 23.9153 28.0419C23.7168 28.5188 23.8103 28.6478 24.3097 28.6486C27.3421 28.6503 30.3746 28.6503 33.407 28.6486C33.8277 28.6486 33.8949 28.5551 33.7695 28.1514C33.7326 28.0335 33.6678 27.9231 33.6038 27.8161C33.2192 27.1681 32.6534 26.7071 32.0852 26.2437C31.7899 26.0027 31.712 26.1459 31.6833 26.4341C31.6374 26.8942 31.5694 27.3526 31.589 27.8178C31.5989 28.0562 31.5062 28.2458 31.2619 28.277C30.4509 28.3798 29.6374 28.4691 28.8247 28.5593C28.5008 28.5955 28.3819 28.4304 28.4049 28.1093C28.4648 27.2709 28.5213 26.4324 28.5689 25.594C28.5837 25.337 28.6903 25.2165 28.9445 25.1996C29.334 25.1744 29.7227 25.1255 30.1934 25.0791ZM47.4015 42.5422C48.8628 42.5422 50.3233 42.5338 51.7846 42.5481C52.1429 42.5515 52.2823 42.4226 52.2561 42.0577C52.2356 41.7788 52.2331 41.4948 52.2561 41.2167C52.2889 40.8266 52.1372 40.7137 51.7624 40.7162C49.5639 40.7322 47.3663 40.7238 45.1678 40.7238C44.4577 40.7238 43.7475 40.733 43.0382 40.7204C42.7208 40.7145 42.5896 40.8417 42.6077 41.1687C42.6241 41.4628 42.6339 41.7602 42.6052 42.0518C42.565 42.4554 42.7381 42.5523 43.1013 42.549C44.5347 42.5329 45.9681 42.5422 47.4015 42.5422ZM19.9152 7.93544C21.9095 7.93544 23.9038 7.93544 25.8973 7.93544C26.5918 7.93544 26.5771 7.93544 26.5853 7.21329C26.5894 6.86949 26.4819 6.73551 26.1392 6.74562C25.484 6.765 24.828 6.75152 24.1728 6.75152C20.7172 6.75152 17.2616 6.75067 13.806 6.75152C13.2443 6.75152 13.2427 6.75573 13.241 7.34474C13.241 7.4012 13.2468 7.45766 13.2402 7.51327C13.2033 7.83011 13.3058 7.94808 13.647 7.94555C15.7364 7.92786 17.8258 7.93544 19.9152 7.93544ZM37.745 7.93544C39.6712 7.93544 41.5966 7.93544 43.5228 7.93544C44.3019 7.93544 44.2904 7.93713 44.2756 7.14335C44.2699 6.85095 44.1665 6.74141 43.8877 6.74899C43.4097 6.76079 42.9316 6.75152 42.4535 6.75152C38.9291 6.75152 35.4054 6.75152 31.881 6.75152C31.4781 6.75152 31.2763 6.9633 31.2758 7.38688C31.2758 7.42901 31.2799 7.47198 31.2758 7.51327C31.2381 7.82927 31.3381 7.94893 31.6801 7.94555C33.7014 7.92702 35.7236 7.93629 37.745 7.93544ZM28.7903 16.3712C27.9719 16.3712 27.1535 16.3864 26.336 16.3645C25.9784 16.3544 25.8292 16.4757 25.7775 16.8473C25.6931 17.4532 25.5586 18.0523 25.4266 18.6497C25.3716 18.8975 25.4323 18.9784 25.68 18.9742C26.3753 18.9632 27.0707 18.9624 27.7661 18.9742C27.999 18.9784 28.0843 18.8899 28.081 18.6573C28.0769 18.3641 28.049 18.0658 28.1367 17.7801C28.2466 17.4237 28.4795 17.2037 28.8543 17.2113C29.1847 17.2172 29.466 17.5408 29.484 17.9149C29.4963 18.1669 29.4931 18.4197 29.4898 18.6716C29.4873 18.873 29.5472 18.9809 29.7719 18.9775C30.5083 18.9666 31.2446 18.9691 31.981 18.9725C32.1401 18.9725 32.1819 18.9514 32.1442 18.7584C32.0179 18.1155 31.9171 17.4667 31.8268 16.8178C31.7826 16.5018 31.662 16.3552 31.3266 16.3636C30.4812 16.3838 29.6357 16.3712 28.7903 16.3712ZM28.7985 12.4183C28.1581 12.4183 27.5168 12.4192 26.8764 12.4183C26.7009 12.4183 26.5828 12.447 26.5139 12.661C26.3081 13.3031 26.3557 13.9907 26.1498 14.6337C26.0785 14.8561 26.2605 14.9159 26.4459 14.9159C26.8551 14.9159 27.2642 14.9084 27.6726 14.9202C27.9391 14.9286 28.0572 14.8258 28.0998 14.5443C28.1704 14.0851 28.5025 13.7548 28.8288 13.7556C29.1552 13.7565 29.4414 14.1036 29.4873 14.5831C29.5054 14.7744 29.548 14.9134 29.7653 14.9134C30.2557 14.9134 30.7469 14.9151 31.2373 14.9117C31.4291 14.9101 31.5243 14.8014 31.4636 14.6118C31.275 14.0244 31.293 13.3992 31.1348 12.8017C31.0486 12.4748 30.9207 12.4082 30.6386 12.4141C30.0253 12.4268 29.4119 12.4183 28.7985 12.4183ZM36.9323 39.4463H36.9307C36.9307 38.8295 36.9307 38.2127 36.9307 37.5959C36.9307 36.1996 36.9307 36.2055 35.5588 36.3134C35.3111 36.3327 35.2299 36.4364 35.2299 36.6791C35.2349 38.5152 35.2349 40.3513 35.2299 42.1883C35.2299 42.4386 35.3251 42.5464 35.5678 42.5414C35.9089 42.5346 36.25 42.5279 36.5904 42.5447C36.8593 42.5582 36.9422 42.4554 36.9372 42.179C36.9216 41.2681 36.9323 40.3581 36.9323 39.4463ZM38.2222 34.8623C39.0824 34.8623 39.9426 34.8648 40.8028 34.8606C40.9988 34.8598 41.2309 34.9154 41.2628 34.5918C41.2899 34.3121 41.1997 34.1579 40.9209 34.0711C39.9844 33.7795 39.0562 33.4585 38.123 33.1543C37.3325 32.8964 36.5412 32.6411 35.7474 32.3933C35.266 32.2434 35.2349 32.2712 35.2332 32.7801C35.2316 33.2992 35.2537 33.82 35.2258 34.3373C35.2045 34.7309 35.3152 34.8859 35.7244 34.8716C36.5567 34.8421 37.3891 34.8632 38.2222 34.8623ZM19.3928 34.8623C20.2662 34.8623 21.1403 34.8547 22.0136 34.8665C22.2957 34.8699 22.404 34.7679 22.3958 34.4747C22.381 33.9 22.3933 33.3245 22.3908 32.7498C22.3892 32.2745 22.3466 32.2501 21.8898 32.4026C20.9066 32.7296 19.9218 33.0506 18.9377 33.3733C18.2251 33.6076 17.515 33.8503 16.7983 34.0719C16.467 34.1739 16.4949 34.4326 16.5113 34.6803C16.5293 34.9483 16.7507 34.8581 16.8942 34.8598C17.7266 34.8682 18.5605 34.8632 19.3928 34.8623ZM20.8697 39.4076C20.8697 40.0935 20.8623 40.7802 20.8713 41.4662C20.8877 42.7107 20.6819 42.5144 21.9398 42.549C22.3064 42.5591 22.4048 42.4183 22.4015 42.0585C22.3859 40.5047 22.4048 38.95 22.3892 37.3953C22.3769 36.1465 22.6237 36.3412 21.2904 36.3134C20.9673 36.3066 20.8615 36.4389 20.8664 36.76C20.8795 37.6422 20.8705 38.5253 20.8697 39.4076ZM28.8428 9.38901C28.4057 9.38901 27.9686 9.3848 27.5324 9.3907C27.3495 9.39322 27.0945 9.3275 27.0576 9.59209C26.9961 10.0269 26.7501 10.439 26.8903 10.899C26.8961 10.9193 26.933 10.9395 26.9567 10.9412C27.2962 10.9766 27.6464 11.0179 27.9727 10.9268C28.1876 10.8662 28.0785 10.5822 28.1367 10.4044C28.2491 10.0623 28.5459 9.81623 28.869 9.85331C29.2036 9.89207 29.4758 10.0842 29.4668 10.4314C29.4529 10.9555 29.7251 11.0027 30.1105 10.9656C30.2327 10.9538 30.3565 10.958 30.4787 10.9639C30.7198 10.9757 30.8117 10.8974 30.7862 10.6193C30.7584 10.3083 30.6354 10.0227 30.6116 9.7168C30.5919 9.464 30.4656 9.38227 30.2352 9.38648C29.7711 9.39491 29.3069 9.38986 28.8428 9.38901ZM28.901 7.93291C29.1191 7.93291 29.3373 7.93628 29.5554 7.93207C29.7005 7.92954 29.8121 7.88825 29.858 7.71467C30.0343 7.04729 29.808 6.3462 29.284 5.94931C29.1437 5.84314 29.0051 5.78416 28.8297 5.84314C28.3819 5.99313 28.0121 6.49367 27.9965 6.97903C27.9752 7.61776 28.2767 7.93516 28.901 7.93291ZM30.942 26.89C30.9306 26.7864 30.9625 26.633 30.7895 26.6128C30.6468 26.5959 30.4976 26.6397 30.4549 26.7923C30.3746 27.0762 30.2581 27.2903 29.9424 27.3619C29.7948 27.3956 29.7793 27.5768 29.8186 27.7192C29.8654 27.886 29.9998 27.8473 30.1228 27.8321C30.6231 27.7706 30.9494 27.4032 30.942 26.89ZM29.2536 26.5951C29.2413 26.7164 29.2602 26.8251 29.3947 26.858C29.5275 26.8908 29.6645 26.8613 29.6899 26.713C29.7448 26.3962 29.9105 26.2268 30.2155 26.1561C30.3483 26.1249 30.3721 25.9724 30.3442 25.8384C30.3106 25.6774 30.1958 25.669 30.0605 25.6766C29.5529 25.7036 29.2643 26.028 29.2536 26.5951ZM30.6977 2.1161C30.6829 1.97369 30.7362 1.76893 30.5132 1.72511C30.3008 1.68298 30.2237 1.83803 30.2065 2.02257C30.1868 2.2366 30.0745 2.34193 29.8752 2.38154C29.7243 2.41187 29.6292 2.51215 29.6571 2.67984C29.6882 2.87027 29.844 2.85005 29.9785 2.85342C30.4164 2.86353 30.6854 2.59389 30.6993 2.11695L30.6977 2.1161Z" class="color758B54 svgShape"></path></svg></g></svg>