<svg width="38" height="38" viewBox="0 0 38 38" fill="none" xmlns="http://www.w3.org/2000/svg">
<g clip-path="url(#clip0_372_677)">
<g clip-path="url(#clip1_372_677)">
<g clip-path="url(#clip2_372_677)">
<path d="M38 19C38 8.50659 29.4934 0 19 0C8.50659 0 0 8.50659 0 19C0 29.4934 8.50659 38 19 38C29.4934 38 38 29.4934 38 19Z" fill="#FFF7F7"/>
<mask id="mask0_372_677" style="mask-type:alpha" maskUnits="userSpaceOnUse" x="8" y="8" width="22" height="22">
<rect x="8" y="8" width="22" height="22" fill="#D9D9D9"/>
</mask>
<g mask="url(#mask0_372_677)">
<path d="M11.8499 23.2061V24.7679C11.8499 24.8384 11.8793 24.9031 11.9381 24.9617C11.9968 25.0206 12.0614 25.05 12.132 25.05H25.8678C25.9383 25.05 26.003 25.0206 26.0616 24.9617C26.1205 24.9031 26.1499 24.8384 26.1499 24.7679V23.2061H11.8499ZM15.0582 13.9583V12.4797C15.0582 12.0658 15.2007 11.7176 15.4856 11.4349C15.7705 11.1523 16.1193 11.011 16.532 11.011H21.4678C21.8804 11.011 22.2292 11.1535 22.5141 11.4384C22.7991 11.7233 22.9415 12.072 22.9415 12.4845V13.9583H25.8678C26.2804 13.9583 26.6292 14.1008 26.9141 14.3857C27.1991 14.6706 27.3415 15.0194 27.3415 15.4321V24.7679C27.3415 25.1805 27.1991 25.5293 26.9141 25.8142C26.6292 26.0992 26.2804 26.2416 25.8678 26.2416H12.132C11.7193 26.2416 11.3705 26.0992 11.0856 25.8142C10.8007 25.5293 10.6582 25.1805 10.6582 24.7679V15.4321C10.6582 15.0194 10.8007 14.6706 11.0856 14.3857C11.3705 14.1008 11.7193 13.9583 12.132 13.9583H15.0582ZM11.8499 20.9584H26.1499V15.4321C26.1499 15.3615 26.1205 15.2969 26.0616 15.2382C26.003 15.1794 25.9383 15.15 25.8678 15.15H22.9415V16.6237H21.7499V15.15H16.2499V16.6237H15.0582V15.15H12.132C12.0614 15.15 11.9968 15.1794 11.9381 15.2382C11.8793 15.2969 11.8499 15.3615 11.8499 15.4321V20.9584ZM16.2499 13.9583H21.7499V12.4845C21.7499 12.4141 21.7205 12.3495 21.6616 12.2907C21.603 12.232 21.5384 12.2027 21.4678 12.2027H16.532C16.4614 12.2027 16.3968 12.232 16.3381 12.2907C16.2793 12.3495 16.2499 12.4141 16.2499 12.4845V13.9583ZM11.8499 24.7679V15.15H12.132C12.0614 15.15 11.9968 15.1794 11.9381 15.2382C11.8793 15.2969 11.8499 15.3615 11.8499 15.4321V24.7679C11.8499 24.8384 11.8793 24.9031 11.9381 24.9617C11.9968 25.0206 12.0614 25.05 12.132 25.05H11.8499V24.7679Z" fill="#802222"/>
</g>
</g>
</g>
</g>
<defs>
<clipPath id="clip0_372_677">
<rect width="38" height="38" rx="19" fill="white"/>
</clipPath>
<clipPath id="clip1_372_677">
<rect width="38" height="38" fill="white"/>
</clipPath>
<clipPath id="clip2_372_677">
<rect width="38" height="38" fill="white"/>
</clipPath>
</defs>
</svg>
