<svg width="60" height="60" viewBox="0 0 60 60" fill="none" xmlns="http://www.w3.org/2000/svg">
<path style="mix-blend-mode:multiply" opacity="0.8" d="M29.68 59.36C46.0718 59.36 59.36 46.0718 59.36 29.68C59.36 13.2882 46.0718 0 29.68 0C13.2882 0 0 13.2882 0 29.68C0 46.0718 13.2882 59.36 29.68 59.36Z" fill="url(#paint0_radial_3288_1954)"/>
<path d="M29.83 52.66C42.9909 52.66 53.66 41.9909 53.66 28.83C53.66 15.6691 42.9909 5 29.83 5C16.6691 5 6 15.6691 6 28.83C6 41.9909 16.6691 52.66 29.83 52.66Z" fill="url(#paint1_linear_3288_1954)"/>
<path d="M20.2799 23.2509H24.38V36.4109H20.2799V23.2509ZM22.3299 16.7109C23.6399 16.7109 24.7 17.7709 24.7 19.0809C24.7 20.3909 23.6399 21.4509 22.3299 21.4509C21.0199 21.4509 19.95 20.3909 19.95 19.0809C19.95 17.7709 21.0099 16.7109 22.3299 16.7109Z" fill="white"/>
<path d="M26.9499 23.2519H30.8699V25.0519H30.9199C31.4699 24.0119 32.7999 22.9219 34.7899 22.9219C38.9299 22.9219 39.6999 25.6419 39.6999 29.1919V36.4119H35.6099V30.0119C35.6099 28.4819 35.5799 26.5219 33.4799 26.5219C31.3799 26.5219 31.0299 28.1819 31.0299 29.9019V36.4119H26.9399V23.2519H26.9499Z" fill="white"/>
<defs>
<radialGradient id="paint0_radial_3288_1954" cx="0" cy="0" r="1" gradientUnits="userSpaceOnUse" gradientTransform="translate(29.68 29.68) scale(29.68)">
<stop stop-color="#000057"/>
<stop offset="0.39" stop-color="#7474A4" stop-opacity="0.54"/>
<stop offset="0.79" stop-color="#D8D8E5" stop-opacity="0.15"/>
<stop offset="1" stop-color="white" stop-opacity="0"/>
</radialGradient>
<linearGradient id="paint1_linear_3288_1954" x1="12.98" y1="11.98" x2="46.68" y2="45.68" gradientUnits="userSpaceOnUse">
<stop stop-color="#007BB8"/>
<stop offset="1" stop-color="#0044E9"/>
</linearGradient>
</defs>
</svg>
