<?xml version="1.0" encoding="UTF-8"?>
<svg id="Layer_1" xmlns="http://www.w3.org/2000/svg" version="1.1" viewBox="0 0 10 10">
  <!-- Generator: Adobe Illustrator 29.1.0, SVG Export Plug-In . SVG Version: 2.1.0 Build 142)  -->
  <defs>
    <style>
      .st0 {
        fill: #96be9c;
      }

      .st1 {
        fill: #fec77b;
      }
    </style>
  </defs>
  <path class="st0" d="M5.2,6.5c-.1,0,0-.3,0-.5,0-.8.2-1.5.3-2.3,1,.4,2.3-.5,3.2-.9-.5.8-1.5,1.5-2.1,2.2s-.9,1.1-1.2,1.5Z"/>
  <path class="st0" d="M5.9,3.3l.3-2.5c1.9,0,1.6,2.8-.3,2.5Z"/>
  <path class="st1" d="M6.1.8l-.3,2.5c-1.4-.2-1.5-2.6.3-2.5Z"/>
  <path class="st1" d="M5.4,3.7c0,.8-.2,1.5-.3,2.3s0,.4,0,.5c-.2.4-.6,1.2-.6,1.6,0,.7.6,1.2,1,1.7-.9-.3-1.3-1.1-1.7-1.8l-2.4,2s0,0,0,0c.8-1.1,1.7-2.2,2.1-3.5.5-2.1,0-4.4.4-6.5l.2,1.4c.1.7.5,2,1.3,2.3Z"/>
</svg>