<svg id="SvgjsSvg1168" width="288" height="288" xmlns="http://www.w3.org/2000/svg" version="1.1" xmlns:xlink="http://www.w3.org/1999/xlink" xmlns:svgjs="http://svgjs.com/svgjs"><defs id="SvgjsDefs1169"></defs><g id="SvgjsG1170"><svg xmlns="http://www.w3.org/2000/svg" fill="none" viewBox="0 0 43 44" width="288" height="288"><path fill="#6334fa" d="M21.495 43.997C17.3642 43.997 13.2333 43.9966 9.1025 43.997C6.33615 43.9974 3.56981 43.9992 0.80383 44C0.273738 44 0.00383167 43.7412 0.00271017 43.2059C-0.00102814 41.0651 -0.000654101 38.9246 0.00233655 36.7838C0.00308421 36.2829 0.289065 36.0063 0.787382 36.0063C2.47598 36.0056 4.1642 36.0063 5.85279 36.0059C6.03198 36.0059 6.1217 35.9178 6.12195 35.7415C6.12195 31.41 6.12494 27.078 6.11672 22.7465C6.11597 22.3891 6.20494 22.0933 6.40531 21.799C7.52793 20.1501 8.63522 18.4905 9.75148 16.8366C9.83297 16.7157 9.86624 16.5948 9.86587 16.4498C9.86176 15.3984 9.86848 14.3467 9.86063 13.2954C9.85839 12.9852 9.95858 12.7408 10.1784 12.5224C12.1675 10.5448 14.1515 8.56149 16.138 6.58082C16.3903 6.32885 16.6449 6.07914 16.9025 5.83246C17.0038 5.73537 17.0498 5.62959 17.0479 5.48415C17.0408 4.82947 17.0416 4.17441 17.0449 3.51973C17.0543 1.80388 18.2079 0.380436 19.8483 0.0604619C20.0434 0.0223069 20.2412 -0.000737522 20.4419 1.80239e-05C21.1399 0.00379575 21.8374 0.000773316 22.5354 0.00152886C24.2793 0.00341773 25.7645 1.36453 25.9249 3.11967C25.9956 3.89184 25.944 4.66703 25.9492 5.44108C25.9503 5.62015 26.0042 5.74368 26.1305 5.86834C27.1193 6.84489 28.1006 7.82899 29.0856 8.80931C30.3103 10.0288 31.5324 11.2512 32.7656 12.4612C33.0266 12.7174 33.1469 12.9962 33.1425 13.3626C33.1301 14.3951 33.1398 15.4279 33.1361 16.4603C33.1357 16.5986 33.1679 16.7142 33.2456 16.8294C34.3993 18.5407 35.5484 20.2555 36.7021 21.9668C36.8228 22.1458 36.8804 22.3313 36.8804 22.5489C36.8778 26.9375 36.8789 31.3257 36.8793 35.7143C36.8793 35.908 36.9726 36.0049 37.1593 36.0052C38.8292 36.0052 40.4987 36.0052 42.1686 36.0052C42.7357 36.0052 43.0004 36.2757 43 36.8514C42.9996 38.948 42.9996 41.0447 43 43.1409C43 43.4568 42.9462 43.7458 42.6381 43.9139C42.532 43.9717 42.4202 44 42.2983 44C38.9338 43.9989 35.5694 43.9989 32.2049 43.9989C28.6348 43.9989 25.0651 43.9989 21.495 43.9989V43.9958V43.997ZM34.0602 37.3878C31.5997 37.3878 29.1391 37.3894 26.6785 37.3844C26.5043 37.3844 26.4412 37.4268 26.4423 37.6145C26.449 39.1944 26.4453 40.7746 26.4456 42.3544C26.4456 42.6189 26.4471 42.6196 26.7163 42.6196C28.4666 42.6196 30.2169 42.6196 31.9675 42.6196C35.101 42.6196 38.234 42.6196 41.3675 42.6196C41.5469 42.6196 41.6368 42.5312 41.637 42.3544C41.637 40.787 41.637 39.2197 41.637 37.6523C41.637 37.4765 41.5472 37.3885 41.3675 37.3882C38.932 37.3882 36.4961 37.3882 34.0606 37.3882L34.0602 37.3878ZM8.93877 42.6196H9.53652C11.7915 42.6196 14.0464 42.6196 16.3014 42.6196C16.5537 42.6196 16.5548 42.6189 16.5548 42.3752C16.5548 40.7889 16.5522 39.2027 16.5589 37.6164C16.5597 37.4309 16.5006 37.3844 16.3245 37.3844C11.4161 37.3886 6.50737 37.389 1.59897 37.3837C1.40495 37.3837 1.36009 37.4445 1.36084 37.6315C1.36757 39.2053 1.36458 40.7787 1.36495 42.3525C1.36495 42.5303 1.45417 42.6194 1.63261 42.6196C4.06812 42.6196 6.50363 42.6196 8.93914 42.6196H8.93877ZM21.5073 23.1458C19.9126 23.1458 18.3178 23.1458 16.723 23.1458C16.5526 23.1458 16.4672 23.2319 16.467 23.4042C16.467 25.5258 16.4666 27.6473 16.4666 29.7689C16.4666 30.4991 16.4674 31.2294 16.4666 31.9596C16.4666 32.0582 16.4602 32.1504 16.6038 32.1496C17.3264 32.1466 18.049 32.1474 18.7716 32.1489C18.8726 32.1489 18.9201 32.1088 18.9223 32.005C18.9275 31.7409 18.9522 31.4764 18.9421 31.2131C18.9029 30.2188 18.9361 29.2242 18.9245 28.2299C18.9223 28.0247 18.972 27.8343 19.0647 27.65C19.4475 26.8865 19.8232 26.1196 20.2049 25.3558C20.3234 25.1185 20.5159 24.9784 20.7829 24.975C21.2625 24.9689 21.7425 24.9682 22.2217 24.9753C22.4785 24.9791 22.6733 25.1049 22.79 25.3395C23.1757 26.1155 23.5582 26.8933 23.9458 27.6681C24.0385 27.8532 24.0782 28.0455 24.0778 28.2503C24.0771 29.4841 24.0808 30.7183 24.0729 31.9521C24.0718 32.1156 24.1212 32.1542 24.2722 32.1527C24.9451 32.1462 25.618 32.1504 26.2905 32.15C26.5342 32.15 26.535 32.1489 26.535 31.8984C26.535 29.0655 26.535 26.2326 26.535 23.3993C26.535 23.2308 26.4479 23.1464 26.2737 23.1462C24.6849 23.1462 23.0965 23.1462 21.5077 23.1462L21.5073 23.1458ZM21.5107 37.3875C20.3892 37.3875 19.2681 37.3901 18.1466 37.3844C17.9825 37.3837 17.9178 37.4215 17.9186 37.6035C17.9253 39.2027 17.9249 40.8018 17.9186 42.4005C17.9178 42.5796 17.978 42.6226 18.1447 42.6223C20.3814 42.6177 22.6176 42.6174 24.8542 42.623C25.04 42.6234 25.0827 42.5592 25.0819 42.3835C25.0763 40.7972 25.0752 39.2106 25.083 37.624C25.0842 37.4275 25.0221 37.3822 24.8374 37.3833C23.7286 37.3912 22.6195 37.3871 21.5107 37.3871V37.3875ZM8.11858 21.7526C8.1698 21.7575 8.19447 21.7616 8.21877 21.7616C10.5735 21.7616 12.9279 21.7613 15.2827 21.7643C15.412 21.7643 15.4872 21.7099 15.5586 21.6109C16.4221 20.4168 17.2883 19.2249 18.1533 18.0323C18.2602 17.8849 18.3642 17.735 18.4827 17.5676C18.418 17.5619 18.3937 17.5582 18.369 17.5582C15.9395 17.5582 13.5103 17.5589 11.0808 17.5559C10.9601 17.5559 10.8883 17.6008 10.8221 17.6994C10.0389 18.8656 9.25054 20.0284 8.46849 21.1954C8.3511 21.3703 8.2154 21.5357 8.11858 21.7529V21.7526ZM34.8856 21.762C34.8632 21.7087 34.8587 21.6899 34.8486 21.6747C33.9533 20.3423 33.0572 19.0103 32.1634 17.6772C32.1043 17.5891 32.0333 17.5563 31.9297 17.5566C29.6505 17.5585 27.3713 17.5582 25.092 17.5589C25.0445 17.5589 24.9813 17.5362 24.9526 17.5835C24.9208 17.6356 24.9802 17.6734 25.0053 17.7127C25.8184 18.9944 26.6348 20.274 27.4445 21.5576C27.5387 21.7072 27.6449 21.7662 27.8225 21.7654C30.1077 21.7597 32.3933 21.7616 34.6785 21.7616H34.8853L34.8856 21.762ZM21.5582 21.762C22.9537 21.762 24.3492 21.762 25.7447 21.7609C25.7978 21.7609 25.8696 21.7892 25.9002 21.7329C25.9313 21.6766 25.8703 21.6302 25.8415 21.5848C25.0232 20.2985 24.2019 19.0141 23.387 17.7251C23.3055 17.5967 23.2139 17.554 23.0673 17.5548C22.1828 17.5608 21.298 17.5623 20.4135 17.5536C20.2419 17.5521 20.1432 17.6152 20.046 17.7504C19.1309 19.0235 18.2094 20.2913 17.2901 21.5614C17.2539 21.6113 17.1832 21.6638 17.206 21.7208C17.2367 21.799 17.3275 21.7601 17.3907 21.7601C18.7799 21.7624 20.169 21.7616 21.5582 21.7616V21.762ZM21.4909 5.28922C21.9769 5.28922 22.4628 5.28922 22.9485 5.28922C23.4344 5.28922 23.9204 5.28922 24.406 5.28922C24.4928 5.28922 24.5922 5.30433 24.5892 5.1672C24.5731 4.48834 24.6445 3.80608 24.5496 3.13062C24.4128 2.15937 23.5537 1.40004 22.5847 1.38531C21.8808 1.37473 21.1769 1.37209 20.4729 1.38418C19.3055 1.4042 18.4161 2.32483 18.4109 3.50424C18.4087 4.0267 18.4169 4.54954 18.406 5.07162C18.4023 5.24993 18.4629 5.29413 18.6315 5.293C19.5844 5.28582 20.5376 5.2896 21.4909 5.2896V5.28922ZM22.695 32.085C22.695 30.8833 22.6935 29.6813 22.6969 28.4796C22.6972 28.3179 22.6673 28.1721 22.5937 28.0274C22.363 27.5744 22.1215 27.1253 21.9227 26.658C21.8113 26.3965 21.6572 26.3164 21.3963 26.3467C21.2845 26.3595 21.2169 26.3878 21.166 26.4936C20.9036 27.0361 20.6352 27.5756 20.3668 28.1154C20.3238 28.2019 20.304 28.2907 20.3029 28.3874C20.292 29.3496 20.3021 30.3121 20.2905 31.2747C20.2827 31.9271 20.2733 32.5807 20.2961 33.2346C20.326 34.0891 20.3088 34.9459 20.298 35.8016C20.2958 35.9784 20.3541 36.0097 20.51 36.0078C21.1451 36.0003 21.7802 36.0048 22.4154 36.0048C22.6018 36.0048 22.6951 35.9128 22.6954 35.7287C22.6954 34.5141 22.6954 33.2996 22.6954 32.0854L22.695 32.085ZM11.2868 36.0044C12.489 36.0044 13.6913 36.0018 14.8935 36.0075C15.058 36.0082 15.1088 35.9557 15.107 35.791C15.0999 35.1114 15.0995 34.4314 15.107 33.7514C15.1088 33.5803 15.0561 33.5217 14.8834 33.5221C12.4917 33.5266 10.0995 33.5266 7.70774 33.5221C7.53316 33.5221 7.48382 33.5829 7.48569 33.7525C7.49316 34.4261 7.49428 35.0997 7.48494 35.7729C7.48232 35.9546 7.53765 36.009 7.71783 36.0078C8.90736 36.0007 10.0973 36.0041 11.2872 36.0041L11.2868 36.0044ZM31.7066 36.0044C32.9025 36.0044 34.0987 36.001 35.2946 36.0082C35.4699 36.0093 35.5178 35.9515 35.5159 35.7812C35.5081 35.1016 35.5084 34.4216 35.5159 33.7416C35.5178 33.5776 35.4669 33.5225 35.3024 33.5228C32.9043 33.527 30.5058 33.5266 28.1077 33.5228C27.9417 33.5228 27.8931 33.5822 27.8946 33.7435C27.901 34.417 27.904 35.0906 27.8935 35.7642C27.8905 35.9565 27.9492 36.0101 28.1376 36.009C29.3275 36.001 30.517 36.0048 31.7069 36.0048L31.7066 36.0044ZM27.8972 29.4248C27.8972 30.2555 27.9017 31.0866 27.8939 31.9173C27.892 32.0983 27.9462 32.1549 28.1271 32.1534C29.0116 32.1455 29.8957 32.1538 30.7802 32.1496C31.295 32.147 31.2056 32.2018 31.2064 31.7224C31.2086 30.1112 31.2064 28.5 31.209 26.8888C31.209 26.7577 31.1929 26.6731 31.0311 26.6742C30.0658 26.6814 29.1006 26.6863 28.1354 26.6806C27.9425 26.6795 27.892 26.7467 27.8939 26.9326C27.9021 27.7633 27.8972 28.594 27.8972 29.4248ZM11.7941 29.4229C11.7941 30.2596 11.7975 31.0964 11.7911 31.9332C11.79 32.0918 11.827 32.1545 11.9982 32.153C12.9631 32.1455 13.9283 32.1462 14.8931 32.1527C15.0576 32.1538 15.1074 32.1002 15.107 31.9358C15.1021 30.2623 15.1017 28.5888 15.1074 26.9152C15.1081 26.7294 15.0423 26.6799 14.8677 26.6814C13.9216 26.6878 12.975 26.6893 12.0289 26.6802C11.8337 26.6784 11.7885 26.7467 11.7903 26.9315C11.7989 27.7618 11.7941 28.5925 11.7941 29.4229ZM11.2991 25.2904C12.507 25.2904 13.7145 25.2881 14.9223 25.2934C15.058 25.2942 15.1085 25.264 15.107 25.1178C15.0999 24.5266 15.0995 23.935 15.107 23.3437C15.1088 23.1817 15.0453 23.1432 14.8973 23.1435C12.4943 23.1469 10.0913 23.1473 7.6883 23.1435C7.53167 23.1435 7.48456 23.1968 7.48606 23.3505C7.49241 23.9357 7.49279 24.5205 7.48569 25.1057C7.48382 25.2549 7.52793 25.2953 7.67634 25.2946C8.88419 25.2881 10.0917 25.2912 11.2995 25.2908L11.2991 25.2904ZM31.7013 25.2904C32.9152 25.2904 34.1294 25.2885 35.3432 25.2934C35.474 25.2938 35.5163 25.2583 35.5148 25.1249C35.5092 24.5273 35.5096 23.9297 35.5144 23.332C35.5155 23.196 35.4733 23.1432 35.3327 23.1435C32.917 23.1466 30.5017 23.1469 28.086 23.1435C27.9357 23.1435 27.8935 23.1998 27.8946 23.343C27.8998 23.9342 27.901 24.5258 27.8939 25.117C27.892 25.2617 27.941 25.2942 28.0778 25.2938C29.2856 25.2885 30.4935 25.2908 31.701 25.2908L31.7013 25.2904ZM10.4322 29.4112C10.4322 28.574 10.4292 27.7365 10.4348 26.8993C10.436 26.7339 10.3788 26.6802 10.2173 26.6814C9.37652 26.687 8.5354 26.6863 7.69466 26.6818C7.54438 26.681 7.48568 26.7286 7.48606 26.8876C7.49017 28.5748 7.49017 30.2619 7.48606 31.9494C7.48568 32.1085 7.54064 32.153 7.69241 32.1519C8.53353 32.1462 9.37428 32.144 10.2154 32.153C10.3948 32.1549 10.4363 32.0888 10.4352 31.9226C10.4292 31.0855 10.4326 30.2479 10.4322 29.4108V29.4112ZM35.5125 29.4316C35.5125 28.5944 35.5084 27.7569 35.5159 26.9197C35.5174 26.7399 35.4624 26.6787 35.2819 26.6802C34.4535 26.6878 33.6247 26.687 32.7963 26.681C32.6311 26.6799 32.5656 26.7271 32.566 26.9054C32.5712 28.5861 32.5709 30.2672 32.5664 31.9479C32.566 32.1058 32.6202 32.1527 32.7727 32.1519C33.6139 32.1462 34.4546 32.1443 35.2957 32.153C35.474 32.1549 35.5167 32.0922 35.5152 31.9245C35.5084 31.0934 35.5122 30.2627 35.5122 29.4316H35.5125ZM12.2576 12.3755C12.2681 12.3917 12.2782 12.4084 12.2887 12.4246C12.3309 12.4272 12.3732 12.4325 12.4158 12.4325C14.178 12.4325 15.9406 12.4314 17.7029 12.4352C17.8348 12.4352 17.9017 12.3891 17.9578 12.2705C18.409 11.3173 18.867 10.3672 19.3223 9.41563C19.403 9.24677 19.3952 9.23543 19.1971 9.23543C18.0016 9.23695 16.8057 9.24035 15.6102 9.23846C15.4827 9.23846 15.3862 9.27359 15.295 9.36463C14.464 10.1969 13.63 11.0265 12.796 11.8557C12.6191 12.0313 12.4375 12.2021 12.2584 12.3751L12.2576 12.3755ZM30.7499 12.4325C30.7103 12.3781 30.6983 12.3562 30.6811 12.3392C29.6752 11.3362 28.6684 10.334 27.6636 9.3295C27.5892 9.25546 27.5066 9.23997 27.4098 9.23997C26.2827 9.2411 25.1552 9.24035 24.0281 9.2411C23.8228 9.2411 23.8165 9.25092 23.895 9.43868C24.2823 10.3657 24.6763 11.2901 25.0542 12.2214C25.1245 12.3944 25.218 12.4359 25.3888 12.4355C27.1013 12.4299 28.8142 12.4322 30.5268 12.4322C30.5881 12.4322 30.6494 12.4322 30.7503 12.4322L30.7499 12.4325ZM21.4838 16.1812C22.2625 16.1812 23.0412 16.18 23.8199 16.1823C23.9458 16.1823 24.0329 16.1713 24.0314 16.0036C24.0247 15.33 24.027 14.6565 24.0303 13.9829C24.0311 13.8635 23.9933 13.814 23.8696 13.8144C22.2935 13.8171 20.7174 13.8171 19.1414 13.814C19.0094 13.814 18.969 13.8635 18.9701 13.992C18.9746 14.6531 18.9776 15.3138 18.9694 15.9749C18.9672 16.1445 19.0255 16.1861 19.1851 16.1846C19.9511 16.1774 20.7174 16.1812 21.4838 16.1812ZM16.8165 7.80556C16.8288 7.81765 16.8412 7.82974 16.8535 7.84183H26.1533C26.1234 7.79839 26.1122 7.77572 26.0954 7.75872C25.7533 7.41948 25.4101 7.08137 25.0688 6.74138C25.0056 6.67829 24.9309 6.66393 24.8471 6.66393C22.6184 6.66469 20.3892 6.66469 18.1604 6.66318C18.061 6.66318 17.9814 6.69038 17.9092 6.76216C17.6573 7.01451 17.4027 7.26422 17.1462 7.51166C17.0404 7.61366 16.9268 7.70734 16.8165 7.80519V7.80556ZM21.5189 12.4329C22.1668 12.4329 22.8146 12.4306 23.4625 12.4348C23.5989 12.4356 23.6621 12.422 23.5933 12.2591C23.1911 11.3105 22.7952 10.3597 22.4015 9.4077C22.3507 9.28455 22.2797 9.23657 22.1481 9.23921C21.7933 9.24601 21.4378 9.24639 21.083 9.23921C20.9582 9.23695 20.8913 9.28719 20.8393 9.39712C20.3885 10.351 19.9358 11.3037 19.4778 12.2538C19.4049 12.4046 19.4445 12.4359 19.5941 12.4348C20.2356 12.4303 20.8774 12.4329 21.5189 12.4329ZM12.7552 16.1815C13.1971 16.1815 13.6393 16.177 14.0812 16.1842C14.2371 16.1868 14.2868 16.1271 14.2853 15.9734C14.2797 15.3191 14.2801 14.6648 14.2853 14.0109C14.2864 13.865 14.2386 13.8125 14.0909 13.8137C13.2008 13.819 12.3107 13.8193 11.4203 13.8137C11.2711 13.8129 11.2277 13.865 11.2292 14.0109C11.2352 14.6652 11.2371 15.3195 11.2285 15.9734C11.2262 16.1457 11.2917 16.1872 11.4479 16.1846C11.8834 16.1766 12.3193 16.1819 12.7552 16.1819V16.1815ZM30.2288 16.1815C30.677 16.1815 31.1253 16.1781 31.5735 16.1834C31.7137 16.1849 31.7735 16.1441 31.772 15.99C31.7653 15.3297 31.7656 14.6689 31.772 14.0082C31.7735 13.8605 31.7256 13.8122 31.5787 13.8129C30.6886 13.8182 29.7982 13.8182 28.9081 13.8129C28.7582 13.8122 28.7144 13.8688 28.7155 14.0124C28.7204 14.6667 28.7212 15.321 28.7155 15.9753C28.7141 16.1309 28.7683 16.1861 28.9219 16.1838C29.3574 16.177 29.7933 16.1815 30.2292 16.1812L30.2288 16.1815ZM24.0726 34.7699C24.0726 34.7699 24.0744 34.7699 24.0752 34.7699C24.0752 35.1163 24.0834 35.4627 24.0714 35.8088C24.0662 35.9587 24.1081 36.0086 24.2572 36.0071C24.9552 36.0014 25.6528 36.0022 26.3507 36.0071C26.4856 36.0078 26.538 35.9674 26.5369 35.8246C26.5313 35.1193 26.5316 34.4144 26.5369 33.7091C26.538 33.5667 26.4838 33.5232 26.3499 33.524C25.652 33.5281 24.9544 33.5278 24.2565 33.5247C24.1234 33.5244 24.067 33.5689 24.0703 33.7125C24.0785 34.0649 24.0729 34.4174 24.0729 34.7703L24.0726 34.7699ZM17.6868 36.0044C18.0356 36.0044 18.3844 36.0007 18.7331 36.0063C18.8658 36.0086 18.926 35.9674 18.9253 35.8246C18.9212 35.1197 18.9215 34.4148 18.9249 33.7102C18.9257 33.5701 18.8666 33.5232 18.7339 33.524C18.0363 33.5274 17.3387 33.527 16.6416 33.524C16.5156 33.5236 16.4644 33.567 16.4651 33.7C16.4692 34.411 16.4696 35.1223 16.4651 35.8333C16.4644 35.9674 16.5148 36.0082 16.6412 36.0063C16.99 36.0007 17.3387 36.0044 17.6875 36.0044H17.6868ZM25.3855 15.0123C25.3713 15.3512 25.4049 15.6901 25.3701 16.0293C25.357 16.1577 25.4303 16.1846 25.5432 16.1834C26.0718 16.1793 26.6008 16.1778 27.1294 16.1834C27.283 16.1853 27.3384 16.129 27.3372 15.9745C27.3324 15.321 27.3327 14.6671 27.3372 14.0131C27.3384 13.8703 27.2942 13.811 27.1443 13.8129C26.6217 13.8197 26.0991 13.8197 25.5769 13.8129C25.427 13.811 25.3813 13.8703 25.384 14.0131C25.3899 14.3459 25.3858 14.6791 25.3858 15.012L25.3855 15.0123ZM17.6161 15.0154C17.6161 14.6818 17.612 14.3482 17.618 14.0146C17.6206 13.8726 17.5765 13.8114 17.4255 13.8133C16.9025 13.8201 16.3791 13.819 15.8561 13.814C15.7234 13.8129 15.6636 13.8537 15.6644 13.9961C15.6685 14.6633 15.6681 15.3304 15.6647 15.9972C15.664 16.1374 15.7234 16.1838 15.8565 16.1831C16.3859 16.1793 16.9152 16.1774 17.4445 16.1846C17.5892 16.1865 17.6232 16.1339 17.6191 15.9968C17.6098 15.6697 17.6161 15.3425 17.6158 15.015L17.6161 15.0154Z" class="color30295C svgShape"></path></svg></g></svg>