<svg id="SvgjsSvg1036" width="288" height="288" xmlns="http://www.w3.org/2000/svg" version="1.1" xmlns:xlink="http://www.w3.org/1999/xlink" xmlns:svgjs="http://svgjs.com/svgjs"><defs id="SvgjsDefs1037"></defs><g id="SvgjsG1038"><svg xmlns="http://www.w3.org/2000/svg" fill="none" viewBox="0 0 59 44" width="288" height="288"><path fill="#6334fa" d="M28.9498 43.9824C17.4881 43.9824 12.6123 44 1.15057 44C0.332931 44 0 43.8047 0 43.3311C0 42.8575 0.337829 42.6671 1.15547 42.6671C3.53985 42.6671 -0.661609 42.6495 1.72277 42.6495C2.27113 42.6495 2.54531 42.368 2.54531 41.8048C2.54531 41.7072 2.54531 41.6095 2.54531 41.5119C2.54531 40.3743 2.62855 40.2669 3.76443 40.2376C4.26873 40.2229 4.33238 39.9739 4.32748 39.5687C4.31769 37.3667 4.32258 35.1599 4.32258 32.9579C4.32258 27.6361 4.32258 22.3093 4.32258 16.9875C4.32258 16.3919 4.43519 15.8255 4.73385 15.3031C5.31648 14.2729 6.50623 13.8139 7.7841 14.1752C8.21985 14.2973 8.37652 14.2094 8.32267 13.7749C8.12193 12.0953 8.95426 11.0798 10.4329 10.4792C10.6973 10.3718 10.7756 10.1912 10.7707 9.93241C10.7707 9.6004 10.756 9.2684 10.7903 8.94128C10.8246 8.56533 11.0596 8.32121 11.4464 8.32609C11.8331 8.32609 12.0584 8.57509 12.0926 8.95592C12.122 9.28304 12.1073 9.61993 12.1122 9.95194C12.1122 10.1716 12.1269 10.3767 12.3815 10.4841C13.2922 10.8649 13.2285 10.9284 13.2236 9.98611C13.2236 9.11216 13.3754 8.96081 14.242 8.95104C14.7708 8.95104 15.2996 8.94128 15.8283 8.95104C16.1808 8.96081 16.3277 8.80457 16.3179 8.4628C16.3081 8.05268 16.3571 7.63767 16.313 7.23731C16.1613 5.9337 16.881 5.15252 17.9043 4.55686C18.1393 4.42016 18.3939 4.29321 18.6533 4.22974C19.0254 4.13209 19.1576 3.91727 19.1479 3.55597C19.1381 3.22396 19.1527 2.89196 19.1968 2.56483C19.2458 2.19377 19.4612 1.94965 19.8627 1.95942C20.2299 1.96918 20.4208 2.20354 20.4992 2.54042C20.4992 2.55995 20.5138 2.57948 20.509 2.59901C20.2593 3.78544 20.9055 4.35668 21.9337 4.67404C22.0414 4.70822 22.154 4.78145 22.2226 4.87422C22.9227 5.84094 23.946 5.58705 24.9007 5.59682C25.1896 5.59682 25.3463 5.46499 25.3267 5.17205C25.2239 3.51202 26.3744 2.83825 27.6621 2.35977C28.23 2.14983 28.4601 1.89594 28.3769 1.31982C28.3475 1.10987 28.3671 0.890165 28.3769 0.675338C28.3965 0.299392 28.5777 0.0259758 28.9742 0.00156371C29.3904 -0.0228484 29.6303 0.240802 29.6744 0.636278C29.7087 0.94387 29.7135 1.26123 29.6989 1.56882C29.6793 1.97406 29.8066 2.20842 30.2374 2.33048C30.9278 2.52578 31.4908 2.94566 32 3.45343C32.4211 3.87332 32.6953 4.34204 32.6365 4.95722C32.5875 5.44546 32.8225 5.63588 33.2926 5.59682C33.4884 5.58217 33.6842 5.57729 33.8801 5.59682C34.5558 5.67005 35.1286 5.52846 35.6084 4.98652C35.9462 4.60569 36.426 4.36645 36.9205 4.24439C37.415 4.12721 37.5276 3.83915 37.4836 3.38996C37.4542 3.1019 37.4689 2.80407 37.5179 2.51601C37.5717 2.17424 37.792 1.94965 38.1592 1.94965C38.5265 1.94965 38.7517 2.16448 38.7957 2.51113C38.8447 2.85778 38.8643 3.20931 38.8545 3.56085C38.8447 3.92703 38.9573 4.15162 39.3392 4.23462C39.7015 4.31762 40.0295 4.50316 40.338 4.7131C41.2242 5.31852 41.8558 6.05088 41.6942 7.23243C41.6403 7.63279 41.6942 8.05267 41.6844 8.45791C41.6746 8.80457 41.8264 8.95104 42.1789 8.94616C42.7273 8.93639 43.2756 8.94128 43.824 8.94616C44.6074 8.95592 44.7738 9.12192 44.7787 9.92264C44.7787 9.9617 44.7689 10.0008 44.7787 10.0398C44.8424 10.2742 44.6074 10.6355 44.9746 10.7282C45.3173 10.8161 45.8705 10.2986 45.8852 9.94705C45.8999 9.61505 45.8754 9.28304 45.9097 8.95592C45.944 8.57998 46.1741 8.33097 46.5609 8.33097C46.9477 8.33097 47.2561 8.58974 47.1974 8.95104C47.026 10.0154 47.545 10.5232 48.4312 10.9919C49.2929 11.4508 49.7874 12.2662 49.6797 13.3257C49.6601 13.5161 49.6797 13.7163 49.6797 13.9116C49.6699 14.2436 49.8119 14.3168 50.1154 14.2094C50.7079 13.9995 51.3052 14.0043 51.8976 14.1996C53.0188 14.5756 53.67 15.5716 53.67 16.9484C53.6749 20.3417 53.67 23.735 53.67 27.1283C53.67 31.2246 53.67 35.3161 53.67 39.4125C53.67 40.2034 53.67 40.2034 54.4778 40.2425C55.2416 40.2766 55.4374 40.4817 55.4521 41.2434C55.4717 42.669 55.4717 42.6642 56.9356 42.6642C59.1291 42.6642 54.7281 42.6642 56.9216 42.6642C57.0978 42.6642 57.2741 42.6642 57.4455 42.6934C57.7686 42.752 57.9791 42.9522 57.9987 43.2842C58.0183 43.6504 57.8127 43.8848 57.4699 43.9531C57.2056 44.0068 56.9265 43.997 56.6523 43.997C45.2298 43.997 40.3919 43.997 28.9693 43.997L28.9498 43.9824ZM28.9987 42.6495C30.8788 42.6495 32.754 42.6495 34.6341 42.6495C40.8766 42.6495 47.1141 42.6495 53.3566 42.6495C53.7679 42.6495 54.1302 42.6837 54.1204 42.0685C54.1106 41.5265 53.7973 41.5412 53.4252 41.5461C48.7298 41.5802 44.0394 41.507 39.3441 41.5949C36.945 41.6437 34.5411 41.5461 32.1371 41.551C26.8591 41.5607 21.5763 41.634 16.2983 41.59C13.3069 41.5656 10.3154 41.5754 7.32387 41.551C6.36424 41.5412 5.40461 41.5607 4.44988 41.5461C4.0533 41.5412 3.90152 41.6681 3.88194 42.0831C3.85746 42.7032 4.24914 42.6495 4.65062 42.6495C12.7683 42.6495 20.8859 42.6495 29.0036 42.6495H28.9987ZM23.3585 18.6866C23.3585 22.2752 23.3585 25.8637 23.3585 29.4474C23.3585 30.7218 23.2703 30.5753 24.4943 30.5802C25.3218 30.5802 25.3267 30.5802 25.3267 29.7453C25.3267 22.5291 25.3267 15.3177 25.3267 8.1015C25.3267 6.75395 25.4931 6.91995 24.1516 6.91019C23.3682 6.90531 23.3682 6.91019 23.3682 7.68649C23.3682 11.3532 23.3682 15.015 23.3682 18.6817L23.3585 18.6866ZM32.6267 18.6866C32.6267 22.2703 32.6267 25.8589 32.6267 29.4426C32.6267 30.7218 32.5484 30.5753 33.7577 30.5802C34.6292 30.5802 34.6292 30.5802 34.6292 29.7111C34.6292 22.5193 34.6292 15.3275 34.6292 8.13568C34.6292 6.74907 34.7712 6.91995 33.415 6.91019C32.6365 6.91019 32.6316 6.91019 32.6316 7.69138C32.6316 11.3532 32.6316 15.0199 32.6316 18.6817L32.6267 18.6866ZM41.6697 20.3759C41.6697 23.5299 41.6697 26.6889 41.6697 29.8429C41.6697 30.0675 41.5718 30.3849 41.8117 30.4923C42.2475 30.6876 42.742 30.6388 43.1924 30.5362C43.5743 30.4532 43.4225 30.048 43.4225 29.7794C43.4323 25.1216 43.4225 20.4687 43.4225 15.8108C43.4225 14.1948 43.4225 12.5787 43.4225 10.9626C43.4225 10.7527 43.496 10.4646 43.2854 10.3669C42.8497 10.1668 42.3552 10.2107 41.9096 10.323C41.5375 10.4158 41.6746 10.8161 41.6746 11.0847C41.6648 14.1801 41.6697 17.2804 41.6697 20.3759ZM16.3179 20.5077C16.3179 17.3537 16.3179 14.1948 16.3179 11.0407C16.3179 10.8112 16.411 10.5036 16.1906 10.3816C15.7647 10.1424 15.2702 10.2254 14.8197 10.3132C14.4281 10.3914 14.57 10.7917 14.57 11.0602C14.5603 14.9564 14.5651 18.8526 14.5651 22.7488C14.5651 25.1265 14.5651 27.5042 14.5651 29.8771C14.5651 30.087 14.4819 30.38 14.6875 30.4776C15.1429 30.6925 15.6521 30.6388 16.1172 30.5216C16.4501 30.4386 16.3179 30.0529 16.3179 29.799C16.3277 26.7035 16.3228 23.6032 16.3228 20.5077H16.3179ZM31.295 27.846C31.295 27.846 31.295 27.846 31.2901 27.846C31.2901 27.1234 31.295 26.4057 31.2901 25.6831C31.2901 25.3657 31.2166 25.0728 30.9914 24.8189C29.9632 23.6471 28.0391 23.6081 26.9669 24.7359C26.7661 24.9458 26.6584 25.1704 26.6584 25.4634C26.6633 26.9818 26.6731 28.5051 26.6584 30.0236C26.6535 30.4728 26.8493 30.5899 27.2606 30.585C28.4161 30.5704 29.5667 30.5655 30.7221 30.585C31.153 30.5899 31.3195 30.4337 31.3048 30.004C31.2852 29.2863 31.2999 28.5637 31.2999 27.846H31.295ZM26.6633 7.14455C26.6633 7.90132 26.6633 8.66298 26.6633 9.41975C26.6633 9.74199 26.7514 9.84941 27.0746 9.6834C28.3084 9.04869 29.552 9.06334 30.7858 9.6834C31.1873 9.88358 31.2656 9.7127 31.2656 9.36605C31.2558 7.91108 31.246 6.45124 31.2411 4.99628C31.2411 4.68869 31.1432 4.42992 30.918 4.21509C29.8702 3.1849 28.186 3.15073 27.0893 4.13209C26.8102 4.3811 26.6535 4.65939 26.6633 5.0451C26.6829 5.74329 26.6682 6.44636 26.6682 7.14455H26.6633ZM26.6633 20.5224C26.6633 21.2596 26.6731 22.0018 26.6633 22.739C26.6584 23.1052 26.7661 23.1833 27.1088 23.0124C28.328 22.407 29.5569 22.4216 30.7711 23.0222C31.2264 23.2468 31.3097 23.0759 31.3048 22.6609C31.295 21.4159 31.2754 20.1708 31.3048 18.9258C31.3292 18.0372 30.8788 17.505 30.1297 17.1633C29.4051 16.8313 28.6364 16.7971 27.9069 17.0998C27.0697 17.4465 26.5556 17.8566 26.6535 18.8868C26.7074 19.4287 26.6633 19.9755 26.6633 20.5175V20.5224ZM52.3236 25.6489C52.3236 24.1891 52.3333 22.7243 52.3236 21.2645C52.3187 20.6249 51.6969 20.122 50.9527 20.122C50.2378 20.122 49.6797 20.5761 49.6748 21.2059C49.665 24.1695 49.6748 27.1283 49.665 30.0919C49.665 30.4337 49.8021 30.5899 50.1546 30.5802C50.6834 30.5655 51.2121 30.5557 51.736 30.5802C52.206 30.6095 52.3431 30.4142 52.3382 29.965C52.3186 28.5247 52.3284 27.0795 52.3284 25.6392L52.3236 25.6489ZM8.32756 25.6636C8.32756 24.1842 8.33736 22.7048 8.32267 21.2206C8.31777 20.6005 7.69597 20.1123 6.98115 20.1171C6.2957 20.1171 5.6788 20.6054 5.6739 21.1962C5.66411 24.1549 5.6739 27.1185 5.6641 30.0773C5.6641 30.463 5.82078 30.5948 6.19288 30.5802C6.6629 30.5606 7.13293 30.546 7.59805 30.5802C8.15131 30.6241 8.35694 30.4386 8.34225 29.8624C8.30798 28.4612 8.33246 27.0599 8.33246 25.6538L8.32756 25.6636ZM17.6546 28.1682C17.6546 28.7688 17.6741 29.3742 17.6497 29.9747C17.6301 30.4288 17.8063 30.5948 18.2617 30.585C19.236 30.5606 20.2103 30.5802 21.1895 30.5802C21.9484 30.5802 22.0071 30.5362 22.0218 29.7502C22.0365 28.759 22.0267 27.7679 22.0267 26.7768C22.0267 25.8149 21.7379 25.3706 20.8321 25.0093C19.8578 24.6187 18.9618 24.7798 18.1393 25.4194C17.8112 25.6782 17.635 25.9858 17.6497 26.4203C17.6741 27.0014 17.6546 27.5872 17.6546 28.1682ZM40.338 28.1585C40.338 27.5775 40.338 26.9916 40.338 26.4106C40.338 26.1713 40.3037 25.9565 40.147 25.7563C39.207 24.5699 37.2975 24.482 36.2596 25.5854C36.1078 25.7466 35.9756 25.9175 35.9756 26.142C35.9756 27.4652 35.9854 28.7834 36.0001 30.1066C36.0001 30.4386 36.1763 30.585 36.524 30.5802C37.6158 30.5704 38.7076 30.5655 39.7994 30.5802C40.2107 30.585 40.3527 30.4142 40.3429 30.0187C40.3282 29.3986 40.3429 28.7737 40.3429 28.1536L40.338 28.1585ZM35.9658 8.8778C35.9658 9.54181 35.9756 10.2009 35.9658 10.8649C35.956 11.2555 36.0197 11.4069 36.4505 11.197C37.5717 10.655 38.7174 10.6648 39.8386 11.2116C40.2303 11.402 40.3527 11.3385 40.3478 10.904C40.3331 9.69805 40.289 8.48721 40.3625 7.28614C40.4114 6.43659 39.9953 5.98741 39.3245 5.64564C38.7615 5.35758 38.1641 5.30387 37.557 5.41617C36.5093 5.61635 35.9903 6.25594 35.9756 7.31055C35.9707 7.83785 35.9756 8.36027 35.9756 8.88757L35.9658 8.8778ZM22.0218 8.8778C22.0218 8.3505 21.9827 7.8232 22.0316 7.30078C22.1246 6.34871 21.5763 5.87512 20.8076 5.54799C19.8431 5.13787 18.717 5.36246 17.9924 6.09482C17.7916 6.295 17.6546 6.51471 17.6546 6.81254C17.6546 8.19427 17.6546 9.57599 17.6546 10.9577C17.6546 11.2751 17.728 11.3874 18.0609 11.2262C19.2409 10.6404 20.4306 10.6648 21.6057 11.2458C21.919 11.402 22.0316 11.3092 22.0267 10.9772C22.0218 10.2791 22.0267 9.57599 22.0267 8.8778H22.0218ZM22.0218 21.6795C22.0218 21.1327 21.9729 20.5858 22.0316 20.0439C22.1149 19.2774 21.7036 18.8379 21.121 18.4913C20.1662 17.92 18.8835 18.0616 18.0658 18.8086C17.8112 19.0381 17.6399 19.3018 17.6448 19.668C17.6546 20.9716 17.6497 22.2752 17.6448 23.5837C17.6448 23.9303 17.7329 24.0524 18.0903 23.8766C19.28 23.3005 20.4698 23.3298 21.635 23.9401C22.0071 24.1354 22.0218 23.9498 22.0218 23.6667C22.0169 23.0026 22.0218 22.3435 22.0218 21.6795ZM40.3331 21.7283C40.3331 21.1815 40.2939 20.6347 40.3429 20.0927C40.4114 19.2627 39.9757 18.7794 39.3098 18.4327C38.3208 17.9152 37.1311 18.0909 36.3232 18.8575C36.1029 19.0674 35.956 19.3018 35.9658 19.624C35.9903 20.9423 36.0099 22.2654 36.0246 23.5837C36.0246 23.9108 36.1372 24.0035 36.4505 23.8522C37.5815 23.32 38.7223 23.3347 39.8386 23.8815C40.2694 24.0914 40.3429 23.9205 40.338 23.5397C40.3282 22.9392 40.338 22.3338 40.338 21.7283H40.3331ZM26.6584 13.8579C26.6584 14.4633 26.6633 15.0638 26.6584 15.6693C26.6535 16.0159 26.7025 16.2014 27.1137 15.9915C28.3328 15.3812 29.5667 15.4056 30.776 16.011C31.2362 16.2405 31.3048 16.0696 31.2999 15.6546C31.2852 14.6635 31.2362 13.6626 31.3146 12.6763C31.3929 11.7291 30.918 11.2262 30.164 10.8552C29.4834 10.5183 28.7735 10.4792 28.0587 10.7038C27.0648 11.0163 26.6633 11.5875 26.6633 12.6324C26.6633 13.0425 26.6633 13.4526 26.6633 13.8579H26.6584ZM40.3282 17.4709C40.3282 16.0745 40.3282 14.7953 40.3282 13.5161C40.3282 13.2622 40.1764 13.0816 40.01 12.9107C39.0405 11.9196 37.3563 11.8805 36.3526 12.8326C36.1812 12.9937 36.0001 13.1646 35.9903 13.4136C35.956 14.6 35.9168 15.7864 36.0148 16.9729C36.0344 17.2267 36.1274 17.3342 36.3869 17.2121C37.6892 16.592 38.9573 16.6897 40.3233 17.4757L40.3282 17.4709ZM21.9582 17.422C21.9582 16.2063 21.9582 15.0443 21.9582 13.8823C21.9582 13.726 21.9582 13.5698 21.9484 13.4136C21.9386 13.228 21.8554 13.0816 21.733 12.9449C20.8615 11.9733 19.1576 11.8658 18.1588 12.7105C17.8112 13.0083 17.6301 13.3501 17.6399 13.8237C17.6643 14.7953 17.6448 15.7718 17.6497 16.7483C17.6497 17.3781 17.6497 17.3683 18.2666 17.1242C18.5016 17.0314 18.7464 16.9582 18.9912 16.8947C20.0389 16.6213 20.9937 16.9289 21.9631 17.4172L21.9582 17.422ZM13.2187 15.2298C13.2187 14.6244 13.2187 14.019 13.2187 13.4185C13.2187 12.5884 12.8564 12.0709 12.0877 11.778C11.0449 11.3874 9.69846 12.0514 9.67398 13.0181C9.63481 14.4389 9.66419 15.8645 9.6593 17.2853C9.6593 17.5978 9.73763 17.7296 10.0706 17.5685C10.9959 17.1291 11.9311 17.1535 12.8417 17.6076C13.204 17.7882 13.2285 17.6271 13.2236 17.3342C13.2138 16.6311 13.2236 15.9329 13.2236 15.2298H13.2187ZM44.7591 15.2396C44.7591 15.9231 44.7738 16.6018 44.7542 17.2853C44.7444 17.6564 44.7983 17.7833 45.1998 17.588C46.0713 17.1535 46.9771 17.1389 47.8583 17.5539C48.2598 17.7443 48.3235 17.5832 48.3235 17.2267C48.3137 15.9036 48.3235 14.5756 48.3186 13.2525C48.3186 12.3492 47.5744 11.6803 46.5805 11.6705C45.5817 11.6608 44.7738 12.3639 44.764 13.2525C44.7591 13.9165 44.764 14.5756 44.764 15.2396H44.7591ZM52.3187 37.2984C52.3187 36.4586 52.3089 35.6237 52.3187 34.7839C52.3187 34.447 52.2061 34.2761 51.8437 34.2859C51.2758 34.3006 50.7127 34.3006 50.1448 34.2859C49.7972 34.2761 49.6503 34.4226 49.6503 34.7693C49.6552 36.4244 49.6552 38.0796 49.6503 39.7347C49.6503 40.0862 49.8217 40.2181 50.1595 40.2181C50.7078 40.2132 51.2513 40.2083 51.7997 40.2181C52.1767 40.2278 52.3236 40.0618 52.3138 39.6908C52.2991 38.8949 52.3138 38.0942 52.3138 37.2935L52.3187 37.2984ZM5.65921 37.2398C5.65921 38.06 5.669 38.8754 5.65921 39.6956C5.65431 40.0618 5.7914 40.2327 6.1733 40.2278C6.72166 40.2181 7.26512 40.2181 7.81348 40.2278C8.19537 40.2327 8.32756 40.0521 8.32756 39.6908C8.32267 38.0551 8.32267 36.4195 8.32756 34.7839C8.32756 34.4373 8.19047 34.2908 7.83796 34.2957C7.2896 34.3103 6.74124 34.3152 6.19778 34.2957C5.78161 34.2762 5.64942 34.4568 5.65921 34.8523C5.67879 35.6481 5.6641 36.4488 5.6641 37.2495L5.65921 37.2398ZM48.3186 28.2512C48.3186 27.7239 48.3186 27.2015 48.3186 26.6742C48.3186 25.8833 47.8339 25.2779 47.0603 25.0728C46.0468 24.8043 44.7934 25.5122 44.7689 26.4057C44.7347 27.6312 44.7689 28.8567 44.7542 30.087C44.7542 30.4776 44.9403 30.5899 45.2977 30.585C46.1398 30.5753 46.9771 30.5704 47.8192 30.585C48.2109 30.5948 48.3333 30.4288 48.3235 30.0577C48.3088 29.4523 48.3235 28.8518 48.3235 28.2464L48.3186 28.2512ZM9.6544 28.222C9.6544 28.8274 9.66908 29.4279 9.6495 30.0333C9.63481 30.4288 9.7719 30.5997 10.1881 30.585C11.0057 30.5655 11.8283 30.5655 12.6459 30.585C13.0865 30.5948 13.2285 30.4142 13.2187 29.9943C13.1991 28.8274 13.2187 27.6605 13.2089 26.4887C13.1992 25.6929 12.3423 25.0093 11.4072 25.0142C10.4525 25.0191 9.66909 25.688 9.6544 26.5229C9.64461 27.0892 9.6544 27.6507 9.6544 28.2171V28.222ZM9.6544 21.7967C9.6544 22.4021 9.66419 23.0026 9.6544 23.6081C9.64461 23.984 9.68867 24.1598 10.1342 23.9547C10.9959 23.5641 11.887 23.5592 12.7389 23.9742C13.1992 24.1988 13.2236 23.9742 13.2187 23.6178C13.2089 22.49 13.2187 21.3573 13.2138 20.2294C13.2089 19.3311 12.357 18.5841 11.368 18.5987C10.4182 18.6085 9.66419 19.3213 9.6544 20.2197C9.6544 20.747 9.6544 21.2694 9.6544 21.7967ZM48.3186 21.8699C48.3186 21.284 48.3284 20.703 48.3186 20.1171C48.3039 19.3115 47.5254 18.6133 46.6245 18.5938C45.709 18.5743 44.7836 19.2676 44.7689 20.0341C44.7444 21.2596 44.764 22.49 44.7591 23.7155C44.7591 24.0231 44.8277 24.1695 45.1655 24.0035C46.086 23.5544 47.0113 23.5641 47.9367 23.9889C48.2304 24.1256 48.3235 24.0426 48.3235 23.7399C48.3186 23.1149 48.3235 22.4949 48.3235 21.8699H48.3186ZM28.9595 40.2229C29.3512 40.2229 29.7429 40.2229 30.1297 40.2229C31.4125 40.2132 31.2999 40.3401 31.2803 39.056C31.2705 38.5239 31.3439 37.9575 30.962 37.4888C30.0024 36.3121 28.1076 36.234 27.0599 37.3277C26.7906 37.606 26.629 37.9184 26.6486 38.3188C26.6682 38.768 26.6682 39.2172 26.6486 39.6615C26.6339 40.0569 26.7955 40.2327 27.197 40.2229C27.7845 40.2083 28.3671 40.2229 28.9547 40.2229H28.9595ZM38.1005 40.2229C38.2768 40.2229 38.453 40.2229 38.6293 40.2229C39.8272 40.2197 40.387 39.6224 40.3086 38.4311C40.245 37.4497 39.8778 36.9761 38.9524 36.6734C37.3122 36.1412 35.9658 37.1031 35.9609 38.8022C35.9609 39.0951 35.9756 39.388 35.9609 39.6761C35.9364 40.0862 36.1274 40.2327 36.5191 40.2181C37.0478 40.2034 37.5717 40.2181 38.1005 40.2181V40.2229ZM19.8235 40.2229C20.3914 40.2229 20.9594 40.2229 21.5224 40.2229C21.7428 40.2229 21.9973 40.2132 21.9973 39.9202C22.0071 39.2025 21.9973 38.4799 21.9729 37.7622C21.9729 37.645 21.8505 37.523 21.7623 37.4253C21.0573 36.6295 19.8382 36.3121 18.8639 36.732C18.0511 37.0835 17.5224 37.5034 17.6399 38.4848C17.679 38.8315 17.679 39.1879 17.6399 39.5345C17.5811 40.096 17.8357 40.2571 18.3547 40.2278C18.8394 40.1985 19.3339 40.2229 19.8186 40.2229H19.8235ZM34.6292 37.2349C34.6292 36.6881 34.6341 36.1461 34.6292 35.5993C34.6096 34.1053 34.825 34.325 33.2632 34.2859C32.7736 34.2713 32.612 34.4519 32.6218 34.9304C32.6414 36.2535 32.6218 37.5767 32.6316 38.8998C32.6414 40.3499 32.4113 40.2181 34.0564 40.2278C34.4921 40.2278 34.6439 40.0472 34.6341 39.6273C34.6194 38.8314 34.6341 38.0307 34.6341 37.2349H34.6292ZM25.3218 37.2788C25.3218 36.5562 25.3218 35.8385 25.3218 35.1159C25.3218 34.3592 25.3218 34.3592 24.5384 34.3543C24.3622 34.3543 24.1859 34.3347 24.0145 34.3152C23.5592 34.2566 23.3389 34.3933 23.3536 34.9157C23.3829 36.2389 23.3536 37.5669 23.3634 38.89C23.3731 40.3499 23.1332 40.2229 24.7783 40.2327C25.1749 40.2327 25.3414 40.0862 25.3316 39.681C25.312 38.8803 25.3267 38.0844 25.3267 37.2837L25.3218 37.2788ZM46.5364 40.2229C46.9477 40.2229 47.3589 40.2132 47.7702 40.2278C48.1619 40.2425 48.348 40.096 48.3284 39.681C48.3088 39.2123 48.3284 38.7436 48.3284 38.2797C48.3284 37.5083 47.9807 36.9957 47.2757 36.6978C46.0762 36.1949 44.7689 37.0396 44.7689 38.3237C44.7689 38.7924 44.7787 39.2611 44.7689 39.7249C44.7591 40.0716 44.906 40.2278 45.2536 40.2229C45.6845 40.2132 46.1153 40.2229 46.5462 40.2229H46.5364ZM11.4366 40.2229C11.8478 40.2229 12.2591 40.2132 12.6704 40.2229C13.0621 40.2376 13.2481 40.0911 13.2285 39.6761C13.2089 39.2074 13.1894 38.7387 13.2285 38.2749C13.2922 37.5327 12.8858 37.0982 12.3081 36.7808C11.0889 36.1071 9.6593 36.942 9.6593 38.3188C9.6593 38.7875 9.66909 39.2562 9.6593 39.7201C9.6495 40.0667 9.79638 40.2229 10.144 40.2132C10.5749 40.2034 11.0057 40.2132 11.4366 40.2132V40.2229ZM41.6746 37.2349C41.6746 37.5669 41.6746 37.894 41.6746 38.226C41.6746 38.558 41.6746 38.8852 41.6746 39.2172C41.6746 39.8974 42.0206 40.2327 42.7126 40.2229C42.7126 40.2229 42.7518 40.2229 42.7713 40.2229C43.2903 40.2815 43.447 40.0325 43.4372 39.5394C43.4127 38.1772 43.4274 36.815 43.4225 35.4577C43.4225 34.1931 43.6135 34.3006 42.2181 34.2908C41.8117 34.2908 41.6599 34.447 41.6697 34.8425C41.6844 35.6384 41.6697 36.4391 41.6697 37.2349H41.6746ZM16.3179 37.2349C16.3179 36.4781 16.2934 35.7165 16.3277 34.9597C16.3473 34.4519 16.1711 34.2322 15.657 34.2957C15.5248 34.3103 15.3828 34.3152 15.2457 34.2957C14.6924 34.2176 14.5407 34.4763 14.5505 34.9988C14.5798 36.361 14.5603 37.7183 14.5603 39.0805C14.5603 40.2913 14.5602 40.2766 15.7451 40.2376C16.1808 40.2229 16.3277 40.0423 16.3179 39.6322C16.3032 38.8363 16.3179 38.0356 16.3179 37.2398V37.2349ZM8.32756 17.7345C8.32756 17.7345 8.32756 17.7345 8.32267 17.7345C8.32267 17.4025 8.33736 17.0705 8.32267 16.7434C8.2786 15.9085 7.7792 15.4105 7.01052 15.4105C6.20757 15.4105 5.72286 15.8645 5.68369 16.719C5.64942 17.3586 5.68369 18.003 5.669 18.6426C5.65921 19.0332 5.81099 19.0577 6.12923 18.9405C6.51602 18.7989 6.92239 18.7647 7.33856 18.8038C7.6568 18.8331 8.02401 19.1699 8.25902 18.9258C8.47934 18.6915 8.31287 18.2569 8.33735 17.9103C8.33735 17.8517 8.33735 17.7931 8.33735 17.7345H8.32756ZM52.3284 17.7296C52.3284 17.7296 52.3089 17.7296 52.2991 17.7296C52.2991 17.3195 52.3431 16.9094 52.2893 16.509C52.1865 15.7669 51.7067 15.4007 50.9429 15.4154C50.2721 15.4251 49.7531 15.8597 49.6993 16.5627C49.6454 17.2805 49.6748 18.003 49.6699 18.7208C49.6699 18.9942 49.7825 19.0674 50.0371 18.9698C50.4239 18.8184 50.8303 18.7891 51.2464 18.8038C51.6038 18.8184 52.0347 19.2237 52.2599 18.9258C52.4509 18.6719 52.3236 18.1788 52.3333 17.7931C52.3333 17.7736 52.3333 17.754 52.3333 17.7345L52.3284 17.7296ZM28.9595 34.2957C28.4699 34.2957 27.9803 34.2957 27.4907 34.2957C26.9358 34.2957 26.66 34.5789 26.6633 35.1452C26.6633 35.2233 26.6633 35.3015 26.6633 35.3796C26.6388 35.7848 26.771 35.8483 27.1382 35.6579C28.2251 35.1013 29.3512 35.0622 30.4822 35.5407C31.3097 35.8922 31.3097 35.8971 31.2999 34.989C31.2999 34.9499 31.2999 34.9109 31.2999 34.8718C31.3439 34.4422 31.1481 34.2762 30.7172 34.2908C30.1297 34.3152 29.5422 34.2957 28.9547 34.2957H28.9595ZM38.1348 34.2957C37.7431 34.2957 37.3514 34.2957 36.9597 34.2957C36.2743 34.2957 35.943 34.6423 35.9658 35.3356C35.9658 35.3356 35.9658 35.3747 35.9658 35.3942C35.9413 35.7262 36.0441 35.819 36.3722 35.653C37.5521 35.0525 38.7419 35.0671 39.9218 35.653C40.2156 35.7995 40.3625 35.7799 40.3429 35.4138C40.3331 35.238 40.3282 35.0622 40.3429 34.8865C40.3918 34.4129 40.1617 34.2713 39.7211 34.2908C39.1923 34.3152 38.6635 34.2957 38.1348 34.2957ZM19.848 34.2957C19.3192 34.2957 18.7953 34.3152 18.2666 34.2908C17.821 34.2713 17.6007 34.4226 17.6497 34.8913C17.6692 35.0622 17.6595 35.2429 17.6497 35.4138C17.6399 35.7067 17.7231 35.819 18.0218 35.6579C19.1528 35.0622 20.3033 35.0769 21.4637 35.5798C21.5861 35.6335 21.7525 35.7506 21.8407 35.6335C22.0757 35.3308 21.9435 34.9597 21.9435 34.6228C21.9435 34.3787 21.7672 34.2957 21.5469 34.2957C20.979 34.2957 20.4159 34.2957 19.848 34.2957ZM28.984 32.9579C29.5716 32.9579 30.1542 32.9579 30.7417 32.9579C31.0257 32.9579 31.3195 32.9579 31.2803 32.5429C31.2509 32.2255 31.2264 31.9082 30.776 31.9131C29.5667 31.9228 28.3524 31.9179 27.1431 31.9131C26.7367 31.9131 26.6682 32.1425 26.6633 32.4794C26.6633 32.8407 26.8396 32.9579 27.1725 32.953C27.7796 32.9481 28.3818 32.953 28.9889 32.953L28.984 32.9579ZM38.1837 31.9179C37.6011 31.9179 37.0136 31.9277 36.4309 31.9179C36.0686 31.9131 35.956 32.0888 35.9609 32.4208C35.9609 32.7284 36.005 32.9628 36.3918 32.9628C37.5619 32.9628 38.7272 32.9579 39.8974 32.9628C40.2743 32.9628 40.3331 32.7431 40.338 32.4306C40.338 32.1035 40.2401 31.9131 39.8778 31.9179C39.3147 31.9277 38.7468 31.9179 38.1837 31.9179ZM19.8137 31.9179C19.2507 31.9179 18.6827 31.9277 18.1197 31.9179C17.7623 31.9131 17.6448 32.0839 17.6497 32.4208C17.6546 32.7284 17.6937 32.9628 18.0805 32.9628C19.2507 32.9628 20.4159 32.9628 21.5861 32.9628C21.9631 32.9628 22.0267 32.7431 22.0267 32.4306C22.0267 32.1035 21.9337 31.9082 21.5665 31.9179C20.9839 31.9277 20.3963 31.9179 19.8137 31.9179ZM11.4659 34.2957C11.4659 34.2957 11.4659 34.2957 11.4659 34.3006C10.9959 34.3006 10.5259 34.3006 10.0559 34.3006C9.83066 34.3006 9.66419 34.3982 9.66908 34.6423C9.67888 34.9646 9.57117 35.2966 9.74742 35.6042C9.76211 35.6286 9.8992 35.6042 9.96285 35.5749C10.9421 35.0769 11.9164 35.1013 12.8907 35.5895C13.0572 35.6725 13.1649 35.6921 13.2187 35.4528C13.4146 34.5984 13.1943 34.2957 12.3423 34.2957C12.0486 34.2957 11.7548 34.2957 11.461 34.2957H11.4659ZM46.5364 34.2957C46.2622 34.2957 45.988 34.2957 45.7139 34.2957C44.7249 34.2957 44.6955 34.3396 44.764 35.321C44.7836 35.5993 44.8228 35.7311 45.141 35.5749C46.0713 35.111 47.0162 35.0818 47.9612 35.5505C48.064 35.5993 48.2255 35.7018 48.2696 35.5846C48.392 35.2526 48.3479 34.8913 48.299 34.5496C48.2598 34.2957 48.0248 34.3103 47.829 34.3054C47.3981 34.3054 46.9673 34.3054 46.5364 34.3054V34.2957ZM46.5413 32.9628C46.9917 32.9628 47.4373 32.9579 47.8877 32.9628C48.2696 32.9677 48.3333 32.7431 48.3284 32.4306C48.3284 32.1474 48.2794 31.9228 47.9269 31.9228C47.0113 31.9228 46.0909 31.9228 45.1753 31.9228C44.8277 31.9228 44.7689 32.1377 44.764 32.4257C44.764 32.7333 44.813 32.9725 45.1949 32.9677C45.6453 32.9628 46.0909 32.9677 46.5413 32.9677V32.9628ZM11.4415 31.9228C11.0106 31.9228 10.5846 31.9326 10.1538 31.9228C9.76211 31.9082 9.6495 32.0986 9.6544 32.4599C9.65929 32.7919 9.75721 32.9725 10.1195 32.9725C10.9959 32.9628 11.8772 32.9628 12.7536 32.9725C13.1159 32.9725 13.2187 32.7968 13.2236 32.4648C13.2236 32.1084 13.1208 31.9082 12.7291 31.9228C12.2983 31.9375 11.8723 31.9228 11.4415 31.9228ZM6.98115 32.9628C7.27491 32.9628 7.56378 32.9579 7.85754 32.9628C8.21985 32.9725 8.32267 32.7724 8.32267 32.4452C8.32267 32.1279 8.23944 31.9131 7.87223 31.9179C7.32877 31.9228 6.78041 31.9277 6.23694 31.9179C5.86484 31.9082 5.65431 32.0009 5.65431 32.4355C5.65431 32.8554 5.84036 32.9872 6.22226 32.9677C6.47685 32.953 6.72655 32.9677 6.98115 32.9677V32.9628ZM50.9771 32.9628C51.2709 32.9628 51.5598 32.953 51.8535 32.9628C52.2109 32.9725 52.3236 32.7919 52.3236 32.455C52.3236 32.0986 52.2207 31.9033 51.829 31.9131C51.2856 31.9277 50.7372 31.9228 50.1938 31.9131C49.8364 31.9033 49.6601 32.0351 49.6552 32.4208C49.6503 32.831 49.8266 32.9823 50.2183 32.9628C50.4728 32.9481 50.7225 32.9628 50.9771 32.9628ZM24.3524 32.9628C24.4503 32.9628 24.5482 32.9628 24.6461 32.9628C25.0231 32.9774 25.3365 32.9628 25.3316 32.4355C25.3316 31.8935 24.9937 31.9179 24.6265 31.9228C24.3524 31.9228 24.0831 31.9277 23.8089 31.9228C23.4417 31.9179 23.3536 32.1328 23.3536 32.4501C23.3536 32.7772 23.4711 32.9725 23.8236 32.9628C23.9998 32.9628 24.1761 32.9628 24.3475 32.9628H24.3524ZM33.6549 31.9179C33.4982 31.9179 33.3415 31.9277 33.1897 31.9179C32.7001 31.8838 32.5239 32.1767 32.6463 32.5673C32.8911 33.3436 33.5667 32.8407 34.0368 32.953C34.3403 33.0263 34.6096 32.9286 34.6243 32.5136C34.6439 31.9814 34.5558 31.9179 33.6549 31.9179ZM15.4366 32.9628C15.515 32.9628 15.5933 32.9628 15.6668 32.9628C16.0291 32.9774 16.313 32.9286 16.3179 32.4501C16.3179 31.9863 16.078 31.8935 15.6912 31.9131C15.4415 31.9277 15.1869 31.9131 14.9372 31.9228C14.7071 31.9277 14.5994 32.0449 14.5603 32.2792C14.477 32.8358 14.6288 32.9628 15.4317 32.9628H15.4366ZM42.4629 32.9628C42.6049 32.9628 42.7028 32.9628 42.8007 32.9628C43.1777 32.9872 43.4323 32.8993 43.4323 32.4306C43.4323 31.9521 43.1581 31.8984 42.7909 31.9131C42.6 31.9228 42.4041 31.9277 42.2083 31.9131C41.753 31.8838 41.6403 32.1377 41.6746 32.5282C41.7187 33.1288 42.1887 32.8993 42.4678 32.9579L42.4629 32.9628Z" class="colorE94F8E svgShape"></path><path fill="#6334fa" d="M28.372 28.0169C28.372 27.7044 28.3622 27.3919 28.372 27.0843 28.3867 26.7328 28.5777 26.4789 28.9351 26.4399 29.317 26.4008 29.596 26.6156 29.645 26.9867 29.738 27.6605 29.7429 28.3489 29.645 29.0227 29.5911 29.3937 29.3267 29.6086 28.94 29.5793 28.5728 29.55 28.3867 29.3059 28.372 28.9494 28.3573 28.637 28.372 28.3245 28.372 28.0169zM29.7086 6.51471C29.694 6.82231 29.7037 7.13966 29.6597 7.44237 29.6058 7.83297 29.3757 8.09174 28.9498 8.06244 28.5532 8.03315 28.372 7.76461 28.3671 7.38867 28.3573 6.78813 28.3524 6.18759 28.3671 5.58705 28.3769 5.20623 28.5923 4.95234 28.9791 4.93281 29.3708 4.91328 29.6009 5.17205 29.6499 5.52846 29.6989 5.8507 29.6597 6.18759 29.6597 6.51471 29.6744 6.51471 29.6891 6.51471 29.7037 6.51471H29.7086zM28.3769 20.1318C28.3769 19.7998 28.3573 19.4678 28.3818 19.1407 28.4063 18.8038 28.6315 18.6133 28.9595 18.5792 29.2974 18.545 29.552 18.7256 29.6156 19.0381 29.7576 19.7656 29.7527 20.5126 29.6205 21.2401 29.5569 21.5867 29.2729 21.7625 28.9155 21.7137 28.5874 21.6697 28.3916 21.4549 28.372 21.118 28.3573 20.786 28.372 20.454 28.372 20.1269 28.372 20.1269 28.372 20.1269 28.3769 20.1269V20.1318zM50.3407 28.2415C50.3407 27.9876 50.3113 27.7337 50.3455 27.4847 50.3896 27.1625 50.6001 26.9623 50.938 26.9428 51.2758 26.9232 51.5206 27.0843 51.5891 27.4066 51.7115 27.9632 51.7066 28.5295 51.5891 29.0813 51.5157 29.4181 51.2611 29.6183 50.8988 29.5744 50.5463 29.5304 50.3455 29.301 50.3309 28.9397 50.3211 28.7053 50.3309 28.4758 50.3309 28.2415 50.3309 28.2415 50.3358 28.2415 50.3407 28.2415zM51.6773 23.5446C51.6577 23.7789 51.6626 24.0524 51.5989 24.3111 51.5108 24.648 51.2513 24.8238 50.8988 24.7896 50.5659 24.7554 50.3602 24.5406 50.3455 24.2135 50.3211 23.7301 50.3211 23.2468 50.3455 22.7634 50.3651 22.4119 50.5757 22.1873 50.9429 22.1726 51.3052 22.158 51.5402 22.3582 51.6136 22.6951 51.6724 22.9587 51.6577 23.2321 51.6773 23.5397V23.5446zM7.65191 28.2952C7.65191 28.5295 7.67149 28.7639 7.65191 28.9934 7.61763 29.3547 7.39242 29.5597 7.03501 29.5744 6.69718 29.5939 6.46706 29.3937 6.39851 29.0813 6.27611 28.5442 6.2957 27.9974 6.37893 27.4603 6.43279 27.1088 6.68249 26.9183 7.04479 26.9379 7.412 26.9574 7.61274 27.182 7.64701 27.5335 7.67149 27.7825 7.64701 28.0364 7.65191 28.2903V28.2952zM7.6568 23.4762C7.6568 23.7106 7.67149 23.9401 7.6568 24.1744 7.63232 24.526 7.45117 24.7652 7.08396 24.7945 6.69717 24.8238 6.43279 24.6138 6.37404 24.2477 6.2908 23.7301 6.28101 23.2028 6.38383 22.6902 6.45237 22.3484 6.70207 22.158 7.06438 22.1824 7.43158 22.2068 7.62253 22.4314 7.65191 22.7829 7.67149 23.0124 7.65191 23.2468 7.6568 23.4811V23.4762zM19.2262 27.9827C19.2262 27.6507 19.2017 27.3187 19.2311 26.9916 19.2654 26.6645 19.4759 26.4545 19.8137 26.435 20.1418 26.4155 20.411 26.5863 20.4649 26.9086 20.5922 27.6409 20.602 28.3831 20.46 29.1106 20.3914 29.4523 20.1124 29.6281 19.7501 29.5744 19.4122 29.5256 19.236 29.301 19.2213 28.969 19.2017 28.637 19.2213 28.305 19.2213 27.9778H19.2311L19.2262 27.9827zM37.5326 27.9925C37.5326 27.68 37.5179 27.3675 37.5326 27.0599 37.557 26.7084 37.7627 26.4643 38.1201 26.4399 38.4726 26.4106 38.7419 26.6108 38.7957 26.9574 38.9035 27.6507 38.9035 28.3538 38.7957 29.0471 38.737 29.4181 38.4628 29.6232 38.076 29.5793 37.7088 29.5353 37.5423 29.2814 37.5277 28.9299 37.5179 28.6174 37.5277 28.3098 37.5277 27.9974L37.5326 27.9925zM38.8741 8.3798C38.8545 8.70692 38.8594 9.04381 38.8006 9.36605 38.737 9.73711 38.4873 9.95682 38.0956 9.92264 37.7333 9.88847 37.5374 9.64923 37.5277 9.29281 37.513 8.67274 37.513 8.04779 37.5277 7.42773 37.5374 7.05178 37.7627 6.79301 38.1494 6.78325 38.5362 6.77348 38.7713 7.02248 38.8153 7.39355 38.8496 7.72067 38.8251 8.05268 38.8251 8.38468H38.8741V8.3798zM19.2164 8.33097C19.2164 8.0185 19.2017 7.70603 19.2164 7.39843 19.2409 7.0469 19.4416 6.80278 19.8039 6.78325 20.1564 6.76372 20.4257 6.95413 20.4796 7.30567 20.5824 7.99897 20.5873 8.70204 20.4796 9.40022 20.4257 9.74199 20.176 9.95194 19.8137 9.93241 19.4171 9.908 19.2311 9.65411 19.2164 9.27328 19.2066 8.96081 19.2164 8.64833 19.2164 8.34074 19.2164 8.34074 19.2164 8.34074 19.2213 8.34074L19.2164 8.33097zM20.5579 21.0594C20.5383 21.3768 20.5432 21.7088 20.4845 22.031 20.4159 22.3972 20.1613 22.6121 19.7696 22.5681 19.4024 22.5291 19.2213 22.28 19.2164 21.9285 19.2066 21.3084 19.1968 20.6835 19.2164 20.0634 19.2311 19.6826 19.471 19.4482 19.8529 19.4336 20.2201 19.419 20.4355 19.6533 20.4845 19.9951 20.5334 20.3417 20.5334 20.6884 20.5579 21.0546V21.0594zM38.8643 21.2059C38.8545 21.367 38.8643 21.699 38.8055 22.0213 38.7419 22.3875 38.4971 22.6072 38.1054 22.5779 37.7431 22.5486 37.5423 22.3093 37.5326 21.9578 37.5179 21.3182 37.5179 20.6786 37.5472 20.039 37.5619 19.6826 37.7969 19.4629 38.1495 19.4385 38.4873 19.4141 38.6831 19.6387 38.7859 19.9365 38.9084 20.2929 38.8447 20.6688 38.8692 21.2059H38.8643zM29.7037 13.4722C29.694 13.6528 29.6989 13.9897 29.6401 14.3119 29.5765 14.6781 29.3365 14.9076 28.9449 14.8783 28.5826 14.849 28.3818 14.6049 28.372 14.2533 28.3573 13.6138 28.3573 12.9742 28.3769 12.3346 28.3867 12.0074 28.5874 11.7877 28.9204 11.7438 29.2827 11.6998 29.5128 11.8951 29.6205 12.2271 29.738 12.5836 29.6744 12.9595 29.6989 13.4722H29.7037zM38.8741 14.6781C38.8545 15.0052 38.8643 15.3421 38.8055 15.6644 38.7419 16.0354 38.4824 16.2551 38.0956 16.2161 37.7382 16.1819 37.5423 15.9329 37.5326 15.5765 37.5179 14.9564 37.5179 14.3315 37.5326 13.7065 37.5423 13.3159 37.7725 13.0865 38.1592 13.0718 38.5265 13.0572 38.7517 13.2866 38.8055 13.6284 38.8594 13.9702 38.8545 14.3266 38.8741 14.6781zM19.2164 14.6244C19.2164 14.3119 19.2017 13.9995 19.2164 13.6919 19.236 13.3306 19.4465 13.1109 19.8039 13.0767 20.1711 13.0425 20.4208 13.2573 20.4747 13.5942 20.5873 14.2875 20.5775 14.9906 20.4796 15.6839 20.4306 16.0306 20.1711 16.2356 19.8137 16.2161 19.4514 16.2014 19.2409 15.9671 19.2164 15.6107 19.1919 15.2835 19.2115 14.9515 19.2115 14.6195L19.2164 14.6244zM12.1073 14.5414C12.1073 14.8539 12.1269 15.1664 12.1024 15.474 12.0731 15.845 11.8625 16.1087 11.4757 16.1233 11.0547 16.138 10.8197 15.8597 10.8001 15.4691 10.7707 14.849 10.7707 14.2241 10.8001 13.604 10.8197 13.228 11.0792 12.9888 11.4562 12.9839 11.8478 12.9839 12.0633 13.2427 12.0975 13.6138 12.1269 13.9213 12.1024 14.2338 12.1024 14.5463L12.1073 14.5414zM47.1925 14.5561C47.1925 14.8685 47.217 15.181 47.1876 15.4886 47.1533 15.8597 46.9379 16.1184 46.5462 16.1233 46.1545 16.1233 45.9146 15.8743 45.895 15.5033 45.8608 14.8637 45.8656 14.2192 45.895 13.5747 45.9146 13.1987 46.1741 12.9644 46.5609 12.9693 46.9232 12.9693 47.1435 13.2134 47.1827 13.56 47.2219 13.8872 47.1925 14.2192 47.1925 14.5512V14.5561zM45.8901 28.0022C45.8901 27.6702 45.8608 27.3382 45.8999 27.0111 45.944 26.6693 46.1643 26.4301 46.5315 26.435 46.884 26.435 47.1582 26.6498 47.1729 26.9965 47.2072 27.6751 47.2121 28.3587 47.1631 29.0324 47.1386 29.3742 46.8693 29.5841 46.507 29.5744 46.1447 29.5646 45.9244 29.3351 45.8901 28.9885 45.8559 28.6614 45.8852 28.3294 45.8852 27.9974L45.8901 28.0022zM12.1024 28.0315C12.1024 28.344 12.1269 28.6565 12.0975 28.9641 12.0633 29.34 11.838 29.5841 11.4464 29.5793 11.0889 29.5793 10.8344 29.3498 10.8148 29.0031 10.7756 28.344 10.7707 27.68 10.8148 27.0209 10.8344 26.6449 11.1134 26.4203 11.4953 26.435 11.8576 26.4448 12.0633 26.6938 12.0975 27.0404 12.1318 27.3675 12.1024 27.6995 12.1073 28.0315H12.1024zM12.1024 21.6649C12.1024 21.9773 12.1269 22.2898 12.0975 22.5974 12.0633 22.9489 11.8478 23.1638 11.4806 23.1833 11.1085 23.2028 10.8686 22.9978 10.8197 22.6511 10.7315 21.9725 10.7462 21.2889 10.8148 20.6103 10.849 20.2636 11.0792 20.0488 11.4513 20.0488 11.8234 20.0488 12.0437 20.2685 12.0828 20.6151 12.122 20.9618 12.0926 21.3133 12.0926 21.6649 12.0926 21.6649 12.0975 21.6649 12.1024 21.6649zM47.1876 21.6502C47.1876 21.9627 47.217 22.2752 47.1778 22.5828 47.1337 22.9538 46.9183 23.1931 46.5119 23.1784 46.1154 23.1638 45.895 22.9196 45.8803 22.5437 45.8559 21.9236 45.8559 21.2987 45.8852 20.6737 45.9048 20.3076 46.1203 20.0488 46.5217 20.0439 46.9281 20.0341 47.1386 20.2831 47.1778 20.6542 47.2121 20.9813 47.1827 21.3133 47.1827 21.6453L47.1876 21.6502zM28.9645 39.2611C28.5679 39.2025 28.3182 39.0023 28.328 38.6166 28.3377 38.2407 28.563 37.9917 28.9498 37.9868 29.3708 37.977 29.6058 38.2211 29.5911 38.641 29.5765 39.0365 29.3072 39.2025 28.9645 39.266V39.2611zM38.8251 38.6166C38.7713 39.017 38.5607 39.2611 38.1788 39.2465 37.7725 39.2318 37.5325 38.9779 37.5521 38.5629 37.5668 38.2016 37.7871 37.9917 38.1544 37.9868 38.5803 37.9819 38.7712 38.2456 38.83 38.6166H38.8251zM19.8676 37.977C20.2593 38.021 20.4943 38.226 20.4845 38.6215 20.4747 39.0023 20.2446 39.2611 19.8627 39.2562 19.4563 39.2513 19.2066 38.9926 19.2164 38.5776 19.2262 38.1772 19.4906 38.0014 19.8676 37.977zM46.5266 37.9721C46.9134 38.0063 47.1631 38.2016 47.1729 38.5873 47.1827 38.9682 46.9526 39.2269 46.5707 39.2416 46.1643 39.2562 45.895 39.017 45.8999 38.602 45.8999 38.2211 46.1447 38.0112 46.5266 37.9721zM11.4366 37.977C11.8185 38.0063 12.0731 38.2016 12.0828 38.5873 12.0975 39.0072 11.8331 39.2465 11.4317 39.2416 11.0498 39.2416 10.8148 38.9828 10.8148 38.602 10.8148 38.2163 11.0547 38.0112 11.4415 37.9721L11.4366 37.977z" class="colorE94F8E svgShape"></path></svg></g></svg>