<svg width="38" height="38" viewBox="0 0 38 38" fill="none" xmlns="http://www.w3.org/2000/svg">
<g clip-path="url(#clip0_372_691)">
<g clip-path="url(#clip1_372_691)">
<g clip-path="url(#clip2_372_691)">
<path d="M38 19C38 8.50659 29.4934 0 19 0C8.50659 0 0 8.50659 0 19C0 29.4934 8.50659 38 19 38C29.4934 38 38 29.4934 38 19Z" fill="#F7FFF8"/>
<mask id="mask0_372_691" style="mask-type:alpha" maskUnits="userSpaceOnUse" x="8" y="8" width="22" height="22">
<rect x="8" y="8" width="22" height="22" fill="#D9D9D9"/>
</mask>
<g mask="url(#mask0_372_691)">
<path d="M14.5083 27.3417V23.5781C13.6375 22.8447 12.9614 21.9795 12.4802 20.9825C11.9989 19.9855 11.7583 18.9482 11.7583 17.8707C11.7583 15.8673 12.4646 14.1643 13.8772 12.7618C15.2898 11.3595 17.005 10.6583 19.0229 10.6583C20.5589 10.6583 21.9562 11.0759 23.2148 11.9109C24.4735 12.7459 25.305 13.8285 25.7093 15.1589L27.101 19.8014C27.1698 20.0396 27.1327 20.2558 26.9899 20.4502C26.8472 20.6445 26.653 20.7417 26.4073 20.7417H25.1416V23.6679C25.1416 24.0732 24.9973 24.4202 24.7087 24.7088C24.4201 24.9974 24.0732 25.1417 23.6679 25.1417H21.2916V27.3417H20.1V23.95H23.6679C23.7502 23.95 23.8178 23.9236 23.8707 23.8707C23.9235 23.8178 23.95 23.7502 23.95 23.6679V19.55H25.7833L24.5916 15.5854C24.2555 14.4796 23.5689 13.5806 22.5319 12.8883C21.4947 12.1961 20.325 11.85 19.0229 11.85C17.3271 11.85 15.8909 12.4362 14.7146 13.6086C13.5382 14.781 12.95 16.2068 12.95 17.8858C12.95 18.7846 13.1409 19.6385 13.5229 20.4474C13.9048 21.2564 14.4396 21.9506 15.1271 22.5301L15.7 23.0333V27.3417H14.5083ZM18.5455 21.0061H19.4617L19.5181 20.1935C19.7516 20.1351 19.9686 20.0539 20.1692 19.9497C20.3698 19.8453 20.5565 19.7056 20.7293 19.5305L21.4415 19.8761L21.9033 19.074L21.2706 18.621C21.3362 18.3806 21.3691 18.1403 21.3691 17.9C21.3691 17.6597 21.3362 17.4194 21.2706 17.179L21.9033 16.726L21.4415 15.9239L20.7293 16.2695C20.5717 16.0944 20.3873 15.9554 20.1758 15.8524C19.9642 15.7496 19.745 15.6676 19.5181 15.6065L19.4544 14.7939H18.5382L18.4818 15.6065C18.2484 15.6649 18.0314 15.7461 17.8308 15.8503C17.6302 15.9547 17.4435 16.0944 17.2707 16.2695L16.5584 15.9239L16.0967 16.726L16.7294 17.179C16.6637 17.4194 16.6308 17.6597 16.6308 17.9C16.6308 18.1403 16.6637 18.3806 16.7294 18.621L16.0967 19.074L16.5584 19.8761L17.2707 19.5305C17.4282 19.7056 17.6127 19.8446 17.8241 19.9476C18.0357 20.0504 18.2549 20.1324 18.4818 20.1935L18.5455 21.0061ZM18.9995 19.1675C18.6472 19.1675 18.348 19.0442 18.1019 18.7976C17.8556 18.5511 17.7324 18.2517 17.7324 17.8995C17.7324 17.5472 17.8557 17.248 18.1023 17.0019C18.3489 16.7556 18.6483 16.6325 19.0004 16.6325C19.3527 16.6325 19.6519 16.7558 19.8981 17.0023C20.1444 17.2489 20.2675 17.5483 20.2675 17.9005C20.2675 18.2528 20.1442 18.552 19.8976 18.7981C19.651 19.0444 19.3517 19.1675 18.9995 19.1675Z" fill="#188A00"/>
</g>
</g>
</g>
</g>
<defs>
<clipPath id="clip0_372_691">
<rect width="38" height="38" rx="19" fill="white"/>
</clipPath>
<clipPath id="clip1_372_691">
<rect width="38" height="38" fill="white"/>
</clipPath>
<clipPath id="clip2_372_691">
<rect width="38" height="38" fill="white"/>
</clipPath>
</defs>
</svg>
