<svg width="38" height="38" viewBox="0 0 38 38" fill="none" xmlns="http://www.w3.org/2000/svg">
<g clip-path="url(#clip0_372_706)">
<g clip-path="url(#clip1_372_706)">
<path d="M38 19C38 8.50659 29.4934 0 19 0C8.50659 0 0 8.50659 0 19C0 29.4934 8.50659 38 19 38C29.4934 38 38 29.4934 38 19Z" fill="#F7FDFF"/>
<mask id="mask0_372_706" style="mask-type:alpha" maskUnits="userSpaceOnUse" x="8" y="8" width="22" height="22">
<rect x="8" y="8" width="22" height="22" fill="#D9D9D9"/>
</mask>
<g mask="url(#mask0_372_706)">
<path d="M21.6389 21.4044L19.1586 23.8847C19.0638 23.9741 18.9561 24.0187 18.8355 24.0187C18.7148 24.0187 18.6099 23.9741 18.5206 23.8847L10.6779 16.0419C10.5885 15.9527 10.5409 15.8464 10.5351 15.7229C10.5291 15.5995 10.5718 15.4921 10.6632 15.4007L13.2184 12.8455C13.3066 12.7541 13.4005 12.7085 13.5003 12.7085C13.6 12.7085 13.6945 12.7531 13.7838 12.8425L21.6478 20.6835C21.7523 20.7909 21.8031 20.9117 21.8002 21.046C21.7973 21.1804 21.7436 21.2999 21.6389 21.4044ZM18.8396 22.501L20.301 21.0396L13.5001 14.2615L12.0616 15.7L18.8396 22.501ZM24.4542 27.4826L20.7523 23.7806L21.6036 22.9293L25.3056 26.6312L24.4542 27.4826ZM24.4962 16.465C23.676 16.465 22.9775 16.1751 22.4007 15.5955C21.8236 15.0159 21.5351 14.3161 21.5351 13.4961C21.5351 12.676 21.8249 11.9775 22.4046 11.4006C22.9842 10.8236 23.684 10.535 24.5039 10.535C25.3241 10.535 26.0226 10.8249 26.5994 11.4045C27.1765 11.9841 27.465 12.6839 27.465 13.5039C27.465 14.324 27.1752 15.0225 26.5956 15.5994C26.0159 16.1764 25.3161 16.465 24.4962 16.465ZM24.5012 15.2735C24.9941 15.2735 25.4127 15.101 25.757 14.7558C26.1014 14.4109 26.2736 13.9919 26.2736 13.4988C26.2736 13.006 26.101 12.5874 25.7559 12.243C25.4109 11.8987 24.9919 11.7265 24.4989 11.7265C24.006 11.7265 23.5874 11.899 23.2431 12.2442C22.8987 12.5891 22.7265 13.0081 22.7265 13.5011C22.7265 13.994 22.8991 14.4126 23.2442 14.757C23.5892 15.1013 24.0082 15.2735 24.5012 15.2735Z" fill="#005470"/>
</g>
</g>
</g>
<defs>
<clipPath id="clip0_372_706">
<rect width="38" height="38" fill="white"/>
</clipPath>
<clipPath id="clip1_372_706">
<rect width="38" height="38" fill="white"/>
</clipPath>
</defs>
</svg>
