<svg width="38" height="38" viewBox="0 0 38 38" fill="none" xmlns="http://www.w3.org/2000/svg">
<g clip-path="url(#clip0_372_761)">
<g clip-path="url(#clip1_372_761)">
<g clip-path="url(#clip2_372_761)">
<path d="M38 19C38 8.50659 29.4934 0 19 0C8.50659 0 0 8.50659 0 19C0 29.4934 8.50659 38 19 38C29.4934 38 38 29.4934 38 19Z" fill="#FEEFF6"/>
<mask id="mask0_372_761" style="mask-type:alpha" maskUnits="userSpaceOnUse" x="8" y="8" width="22" height="22">
<rect x="8" y="8" width="22" height="22" fill="#D9D9D9"/>
</mask>
<g mask="url(#mask0_372_761)">
<path d="M13.1472 24.5916V25.9208C13.1472 26.0117 13.1164 26.0878 13.055 26.1492C12.9935 26.2108 12.9172 26.2416 12.8263 26.2416H12.079C11.9881 26.2416 11.9119 26.2108 11.8505 26.1492C11.789 26.0878 11.7582 26.0117 11.7582 25.9208V19.0705L13.4927 14.7603C13.5763 14.5041 13.7328 14.3064 13.9623 14.1673C14.1918 14.0279 14.4472 13.9583 14.7286 13.9583H23.3063C23.5789 13.9583 23.8264 14.0289 24.0488 14.1702C24.2711 14.3116 24.4238 14.5083 24.507 14.7603L26.2415 19.0705V25.9208C26.2415 26.0117 26.2107 26.0878 26.1492 26.1492C26.0877 26.2108 26.0116 26.2416 25.9207 26.2416H25.1734C25.0825 26.2416 25.0062 26.2108 24.9447 26.1492C24.8832 26.0878 24.8525 26.0117 24.8525 25.9208V24.5916H13.1472ZM13.3465 18.4288H24.6532L23.3593 15.1499H14.6404L13.3465 18.4288ZM15.1166 22.434C15.3737 22.434 15.5917 22.3439 15.7704 22.1638C15.949 21.9838 16.0383 21.7653 16.0383 21.5081C16.0383 21.251 15.9483 21.0331 15.7684 20.8543C15.5882 20.6757 15.3696 20.5864 15.1125 20.5864C14.8554 20.5864 14.6375 20.6764 14.4589 20.8564C14.2802 21.0365 14.1908 21.2551 14.1908 21.5123C14.1908 21.7694 14.2808 21.9873 14.461 22.1659C14.6409 22.3446 14.8595 22.434 15.1166 22.434ZM22.8872 22.434C23.1443 22.434 23.3622 22.3439 23.5408 22.1638C23.7195 21.9838 23.8089 21.7653 23.8089 21.5081C23.8089 21.251 23.7188 21.0331 23.5387 20.8543C23.3587 20.6757 23.1402 20.5864 22.8831 20.5864C22.626 20.5864 22.408 20.6764 22.2293 20.8564C22.0507 21.0365 21.9614 21.2551 21.9614 21.5123C21.9614 21.7694 22.0514 21.9873 22.2313 22.1659C22.4115 22.3446 22.6301 22.434 22.8872 22.434ZM12.9498 23.3999H25.0498V19.6205H12.9498V23.3999Z" fill="#A7396C"/>
</g>
</g>
</g>
</g>
<defs>
<clipPath id="clip0_372_761">
<rect width="38" height="38" rx="19" fill="white"/>
</clipPath>
<clipPath id="clip1_372_761">
<rect width="38" height="38" fill="white"/>
</clipPath>
<clipPath id="clip2_372_761">
<rect width="38" height="38" fill="white"/>
</clipPath>
</defs>
</svg>
