<svg width="60" height="60" viewBox="0 0 60 60" fill="none" xmlns="http://www.w3.org/2000/svg">
<path style="mix-blend-mode:multiply" opacity="0.8" d="M29.68 59.36C46.0718 59.36 59.36 46.0718 59.36 29.68C59.36 13.2882 46.0718 0 29.68 0C13.2882 0 0 13.2882 0 29.68C0 46.0718 13.2882 59.36 29.68 59.36Z" fill="url(#paint0_radial_3288_1952)"/>
<path d="M29.83 53.66C42.9909 53.66 53.66 42.9909 53.66 29.83C53.66 16.6691 42.9909 6 29.83 6C16.6691 6 6 16.6691 6 29.83C6 42.9909 16.6691 53.66 29.83 53.66Z" fill="url(#paint1_linear_3288_1952)"/>
<path d="M31.85 28.1509L39.75 18.9609H37.88L31.02 26.9409L25.54 18.9609H19.22L27.51 31.0209L19.22 40.6509H21.09L28.34 32.2309L34.13 40.6509H40.45L31.85 28.1409V28.1509ZM29.28 31.1309L28.44 29.9309L21.76 20.3709H24.64L30.03 28.0809L30.87 29.2809L37.88 39.3109H35L29.28 31.1309Z" fill="white"/>
<defs>
<radialGradient id="paint0_radial_3288_1952" cx="0" cy="0" r="1" gradientUnits="userSpaceOnUse" gradientTransform="translate(29.68 29.68) scale(29.68)">
<stop stop-color="#000057"/>
<stop offset="0.39" stop-color="#7474A4" stop-opacity="0.54"/>
<stop offset="0.79" stop-color="#D8D8E5" stop-opacity="0.15"/>
<stop offset="1" stop-color="white" stop-opacity="0"/>
</radialGradient>
<linearGradient id="paint1_linear_3288_1952" x1="12.98" y1="12.97" x2="46.68" y2="46.68" gradientUnits="userSpaceOnUse">
<stop stop-color="#23004A"/>
<stop offset="0.96" stop-color="#010003"/>
<stop offset="1"/>
</linearGradient>
</defs>
</svg>
