<svg width="24" height="24" viewBox="0 0 24 24" fill="none" xmlns="http://www.w3.org/2000/svg">
<path d="M20.0536 12.001H18.1589C17.9077 12.001 17.6668 12.0959 17.4891 12.2646C17.3115 12.4334 17.2116 12.6623 17.2116 12.9009C17.2116 13.1396 17.3115 13.3685 17.4891 13.5373C17.6668 13.706 17.9077 13.8008 18.1589 13.8008V15.6006H17.0354C17.148 15.3125 17.2073 15.008 17.2107 14.7007C17.2107 14.1064 17.0042 13.5288 16.6234 13.0573C16.2425 12.5859 15.7086 12.247 15.1043 12.0932C14.5 11.9393 13.8592 11.9793 13.2812 12.2067C12.7032 12.4341 12.2204 12.8362 11.9075 13.3509C11.8443 13.4533 11.8031 13.5665 11.7861 13.6841C11.7693 13.8016 11.777 13.9213 11.8089 14.0361C11.8408 14.1508 11.8963 14.2583 11.9722 14.3527C12.0482 14.4469 12.1429 14.526 12.2511 14.5854C12.3593 14.6447 12.4787 14.6831 12.6026 14.6984C12.7266 14.7137 12.8525 14.7056 12.973 14.6745C13.0936 14.6434 13.2065 14.59 13.3052 14.5172C13.4039 14.4445 13.4866 14.354 13.5483 14.2508C13.6315 14.114 13.751 14.0004 13.895 13.9214C14.0391 13.8424 14.2024 13.8008 14.3687 13.8008C14.62 13.8008 14.8609 13.8957 15.0385 14.0644C15.2162 14.2331 15.316 14.4621 15.316 14.7007C15.316 14.9394 15.2162 15.1683 15.0385 15.337C14.8609 15.5058 14.62 15.6006 14.3687 15.6006C14.1174 15.6006 13.8765 15.6955 13.6988 15.8642C13.5212 16.0329 13.4213 16.2619 13.4213 16.5005C13.4213 16.7392 13.5212 16.9681 13.6988 17.1368C13.8765 17.3056 14.1174 17.4004 14.3687 17.4004C14.62 17.4004 14.8609 17.4953 15.0385 17.664C15.2162 17.8327 15.316 18.0617 15.316 18.3003C15.316 18.539 15.2162 18.7679 15.0385 18.9366C14.8609 19.1054 14.62 19.2002 14.3687 19.2002C14.2024 19.2002 14.0391 19.1586 13.895 19.0796C13.751 19.0007 13.6315 18.887 13.5483 18.7503C13.4866 18.6471 13.4039 18.5565 13.3052 18.4838C13.2065 18.4111 13.0936 18.3576 12.973 18.3266C12.8525 18.2955 12.7266 18.2874 12.6026 18.3027C12.4787 18.318 12.3593 18.3564 12.2511 18.4157C12.1429 18.4751 12.0482 18.5542 11.9722 18.6484C11.8963 18.7427 11.8408 18.8503 11.8089 18.9651C11.777 19.0798 11.7693 19.1994 11.7861 19.3169C11.8031 19.4345 11.8443 19.5477 11.9075 19.6502C12.2204 20.1648 12.7032 20.567 13.2812 20.7944C13.8592 21.0218 14.5 21.0617 15.1043 20.9079C15.7086 20.7541 16.2425 20.4152 16.6234 19.9437C17.0042 19.4722 17.2107 18.8946 17.2107 18.3003C17.2073 17.993 17.148 17.6886 17.0354 17.4004H18.158V20.1001C18.158 20.3388 18.2578 20.5677 18.4355 20.7364C18.6132 20.9052 18.8541 21 19.1053 21C19.3567 21 19.5976 20.9052 19.7752 20.7364C19.9529 20.5677 20.0527 20.3388 20.0527 20.1001V13.8008C20.304 13.8008 20.5449 13.706 20.7225 13.5373C20.9002 13.3685 21 13.1396 21 12.9009C21 12.6623 20.9002 12.4334 20.7225 12.2646C20.5449 12.0959 20.304 12.001 20.0527 12.001H20.0536ZM8.71407 11.3198C8.74357 11.4352 8.79681 11.5439 8.87072 11.6396C8.94463 11.7353 9.03776 11.8162 9.14472 11.8776C9.25168 11.939 9.37038 11.9797 9.49397 11.9973C9.6176 12.0149 9.7436 12.0091 9.86485 11.9803C9.98602 11.9515 10.1001 11.9001 10.2003 11.8293C10.3005 11.7583 10.385 11.6693 10.4489 11.5672C10.5128 11.4652 10.5548 11.3521 10.5724 11.2346C10.5901 11.1171 10.5831 10.9974 10.5519 10.8825L8.88742 4.55621C8.771 4.11183 8.5014 3.71722 8.12158 3.43521C7.74176 3.1532 7.27354 3 6.79145 3C6.30937 3 5.84115 3.1532 5.46133 3.43521C5.0815 3.71722 4.81191 4.11183 4.69547 4.55621L3.03006 10.8825C2.99883 10.9974 2.99185 11.1171 3.00952 11.2346C3.02719 11.3521 3.06917 11.4652 3.13304 11.5672C3.1969 11.6693 3.28139 11.7583 3.38164 11.8293C3.48187 11.9001 3.59589 11.9515 3.71712 11.9803C3.83835 12.0091 3.9644 12.0149 4.08799 11.9973C4.21158 11.9797 4.33028 11.939 4.43724 11.8776C4.5442 11.8162 4.63733 11.7353 4.71124 11.6396C4.78515 11.5439 4.83839 11.4352 4.86789 11.3198L5.39745 9.30136H8.18261L8.71407 11.3198ZM5.87206 7.50157L6.53235 4.99356C6.55228 4.94372 6.58768 4.9008 6.63387 4.87052C6.68006 4.84025 6.73485 4.82403 6.79097 4.82403C6.8471 4.82403 6.9019 4.84025 6.94809 4.87052C6.99428 4.9008 7.02968 4.94372 7.0496 4.99356L7.70989 7.50157H5.87206ZM13.4223 7.50157H14.3696C14.6208 7.50181 14.8617 7.59669 15.0392 7.76541C15.2168 7.93412 15.3168 8.16287 15.3169 8.40146V9.30136C15.3169 9.54003 15.4168 9.76893 15.5944 9.93768C15.7721 10.1064 16.013 10.2013 16.2643 10.2013C16.5156 10.2013 16.7565 10.1064 16.9341 9.93768C17.1119 9.76893 17.2116 9.54003 17.2116 9.30136V8.40146C17.2109 7.68568 16.9112 6.99942 16.3784 6.49329C15.8456 5.98715 15.1231 5.70249 14.3696 5.70177H13.4223C13.171 5.70177 12.9301 5.79659 12.7524 5.96535C12.5748 6.13411 12.4749 6.36301 12.4749 6.60167C12.4749 6.84034 12.5748 7.06924 12.7524 7.238C12.9301 7.40676 13.171 7.50157 13.4223 7.50157ZM9.63295 15.6006H8.68564C8.43447 15.6004 8.19366 15.5055 8.01606 15.3368C7.83845 15.168 7.73856 14.9393 7.73831 14.7007V13.8008C7.73831 13.5622 7.63851 13.3333 7.46084 13.1645C7.28319 12.9958 7.04223 12.9009 6.79097 12.9009C6.53973 12.9009 6.29877 12.9958 6.12112 13.1645C5.94345 13.3333 5.84364 13.5622 5.84364 13.8008V14.7007C5.8444 15.4165 6.14406 16.1028 6.67688 16.6089C7.2097 17.1151 7.93213 17.3997 8.68564 17.4004H9.63295C9.88427 17.4004 10.1252 17.3056 10.3028 17.1368C10.4805 16.9681 10.5803 16.7392 10.5803 16.5005C10.5803 16.2619 10.4805 16.0329 10.3028 15.8642C10.1252 15.6955 9.88427 15.6006 9.63295 15.6006Z" fill="white"/>
</svg>
