<svg width="100" height="100" fill="none" xmlns="http://www.w3.org/2000/svg"><path fill-rule="evenodd" clip-rule="evenodd" d="M73.145 19.192h.005a2.325 2.325 0 0 0 1.273-.403c.373-.253.667-.61.85-1.026a2.6 2.6 0 0 0 .17-1.896 2.532 2.532 0 0 0-1.179-1.495l-.004-.002C66.255 9.975 58.937 8 50.56 8a46.948 46.948 0 0 0-23.788 6.41l-.01.006c-.555.343-.961.89-1.137 1.527a2.67 2.67 0 0 0 .187 1.907l.003.007.004.007c.656 1.206 2.091 1.708 3.281 1.017h.002c6.587-3.863 13.827-5.794 21.458-5.794 7.662 0 14.048 1.72 21.46 5.795.34.204.73.311 1.125.31ZM41.763 91.135h.006a2.527 2.527 0 0 0 1.761-.778l.008-.008.007-.008c.43-.489.668-1.124.668-1.781 0-.657-.238-1.292-.668-1.782l-.008-.008c-2.976-3.22-4.666-5.222-7.133-9.95l-.002-.002c-2.333-4.407-3.565-9.852-3.565-15.77 0-9.79 7.938-17.767 17.693-17.767 9.752 0 17.68 7.973 17.684 17.76a2.52 2.52 0 0 0 .162.957c.116.307.29.588.515.825.224.237.493.426.79.555a2.36 2.36 0 0 0 2.67-.555c.224-.237.4-.518.516-.825.115-.305.17-.63.162-.957-.004-12.588-10.104-22.846-22.508-22.846-12.406 0-22.5 10.261-22.5 22.853 0 6.749 1.405 13.056 4.141 18.243 2.624 5.06 4.486 7.427 7.893 11.068.212.245.474.44.766.575.296.135.618.204.942.2Z" fill="red"/><path fill-rule="evenodd" clip-rule="evenodd" d="M69.679 83.45h.46v-.015a25.46 25.46 0 0 0 4.337-.498 2.466 2.466 0 0 0 1.576-1.064c.366-.552.503-1.23.384-1.884-.234-1.39-1.467-2.342-2.797-2.08a23.732 23.732 0 0 1-3.961.407c-3.813 0-6.947-.928-9.62-2.856l-.002-.001a17.437 17.437 0 0 1-5.397-6.274 17.97 17.97 0 0 1-1.96-8.122 2.524 2.524 0 0 0-.154-.963 2.479 2.479 0 0 0-.513-.835 2.41 2.41 0 0 0-.794-.564 2.361 2.361 0 0 0-2.69.564c-.224.24-.398.525-.513.835a2.523 2.523 0 0 0-.153.964c.011 3.65.875 7.245 2.52 10.481a22.63 22.63 0 0 0 6.937 8.122c3.437 2.514 7.622 3.784 12.34 3.784Z" fill="red"/><path d="M15.034 38.875a2.6 2.6 0 0 0 .983 1.654l.008.006c.406.296.89.457 1.389.462.39.011.777-.087 1.117-.283a2.17 2.17 0 0 0 .804-.817c3.463-5.16 7.844-9.256 13.065-12.122h.001c.254-.141.51-.278.767-.412 10.624-5.522 23.962-5.524 34.623-.039.26.133.517.27.773.41 5.187 2.827 9.57 6.885 13.033 12.057.175.274.403.51.67.692a2.303 2.303 0 0 0 2.719-.079c.524-.402.874-.995.98-1.654a2.644 2.644 0 0 0-.408-1.887c-3.896-5.833-8.856-10.412-14.765-13.647-12.403-6.804-28.222-6.755-40.584.042-5.912 3.235-10.87 7.856-14.765 13.73a2.64 2.64 0 0 0-.41 1.887Z" fill="red"/><path d="M61.831 92h.032a2.348 2.348 0 0 0 1.473-.575 2.45 2.45 0 0 0 .796-1.374c.319-1.29-.37-2.719-1.687-3.086-5.414-1.605-8.88-3.716-12.526-7.557-4.626-4.894-7.154-11.429-7.154-18.409 0-4.179 3.408-7.59 7.638-7.59s7.638 3.418 7.636 7.597c0 6.984 5.578 12.678 12.455 12.678s12.454-5.694 12.454-12.678c0-18.2-14.613-32.987-32.585-32.987-12.758 0-24.409 7.619-29.663 19.38-1.782 4.008-2.689 8.609-2.689 13.649a49.473 49.473 0 0 0 2.869 16.593c.101.307.261.59.471.834.212.245.47.444.76.585a2.324 2.324 0 0 0 1.858.076c1.273-.472 1.868-1.958 1.4-3.253-2.313-6.58-2.58-11.63-2.58-14.835 0-4.264.772-8.142 2.256-11.436 4.48-10.008 14.439-16.465 25.318-16.465 15.323 0 27.769 12.504 27.769 27.9 0 4.18-3.408 7.591-7.638 7.591s-7.638-3.411-7.638-7.59c0-6.983-5.579-12.678-12.454-12.678-6.876 0-12.453 5.695-12.453 12.678 0 8.34 3.04 16.14 8.577 22.002l.002.002c4.303 4.505 8.423 6.997 14.689 8.846h.001c.2.059.406.093.613.101Z" fill="red"/></svg>