<svg width="60" height="60" viewBox="0 0 60 60" fill="none" xmlns="http://www.w3.org/2000/svg">
<path style="mix-blend-mode:multiply" opacity="0.8" d="M29.68 59.36C46.0718 59.36 59.36 46.0718 59.36 29.68C59.36 13.2882 46.0718 0 29.68 0C13.2882 0 0 13.2882 0 29.68C0 46.0718 13.2882 59.36 29.68 59.36Z" fill="url(#paint0_radial_3288_1955)"/>
<path d="M29.83 53.66C42.9909 53.66 53.66 42.9909 53.66 29.83C53.66 16.6691 42.9909 6 29.83 6C16.6691 6 6 16.6691 6 29.83C6 42.9909 16.6691 53.66 29.83 53.66Z" fill="url(#paint1_linear_3288_1955)"/>
<path d="M41.4 26.8105C41.4 24.0005 39.13 21.7305 36.32 21.7305H23.33C20.52 21.7305 18.25 24.0005 18.25 26.8105V32.8505C18.25 35.6605 20.52 37.9305 23.33 37.9305H36.32C39.13 37.9305 41.4 35.6605 41.4 32.8505V26.8105ZM33.77 30.2905L27.95 33.1705C27.72 33.2905 26.95 33.1305 26.95 32.8705V26.9505C26.95 26.6905 27.73 26.5205 27.96 26.6505L33.54 29.6805C33.77 29.8105 34.02 30.1505 33.78 30.2805L33.77 30.2905Z" fill="white"/>
<defs>
<radialGradient id="paint0_radial_3288_1955" cx="0" cy="0" r="1" gradientUnits="userSpaceOnUse" gradientTransform="translate(29.68 29.68) scale(29.68)">
<stop stop-color="#000057"/>
<stop offset="0.39" stop-color="#7474A4" stop-opacity="0.54"/>
<stop offset="0.79" stop-color="#D8D8E5" stop-opacity="0.15"/>
<stop offset="1" stop-color="white" stop-opacity="0"/>
</radialGradient>
<linearGradient id="paint1_linear_3288_1955" x1="12.98" y1="12.98" x2="46.68" y2="46.69" gradientUnits="userSpaceOnUse">
<stop stop-color="#FF0000"/>
<stop offset="1" stop-color="#9B0000"/>
</linearGradient>
</defs>
</svg>
